<svg xmlns="http://www.w3.org/2000/svg" width="271.456" height="47.152" viewBox="0 0 271.456 47.152">
  <g id="그룹_3" data-name="그룹 3" transform="translate(-274 -533.893)">
    <rect id="사각형_12" data-name="사각형 12" width="48.644" height="4.655" transform="translate(274 561.648)" fill="#fff"/>
    <path id="패스_152" data-name="패스 152" d="M374.289,806.839h-4.954v4.477H339.909v-4.477h-4.954v19.7h39.334Zm-4.954,15.1H339.909v-6.089h29.425Z" transform="translate(-56.3 -270.081)" fill="#fff"/>
    <path id="패스_153" data-name="패스 153" d="M350.084,829.755a3.785,3.785,0,0,0-2.686,1.074,3.57,3.57,0,0,0-1.134,2.686,3.358,3.358,0,0,0,1.134,2.627,3.4,3.4,0,0,0,2.686,1.134,3.665,3.665,0,0,0,2.687-1.134,3.517,3.517,0,0,0,1.074-2.627,3.748,3.748,0,0,0-1.074-2.686A4.126,4.126,0,0,0,350.084,829.755Z" transform="translate(-51.733 -260.825)" fill="#fff"/>
    <path id="패스_154" data-name="패스 154" d="M395.823,811.6a3.376,3.376,0,0,0-2.568,1.014,3.811,3.811,0,0,0-1.074,2.628,3.376,3.376,0,0,0,1.074,2.565,3.207,3.207,0,0,0,2.568,1.074,3.639,3.639,0,0,0,2.686-1.074,3.552,3.552,0,0,0,1.015-2.565,4.029,4.029,0,0,0-1.015-2.628A3.849,3.849,0,0,0,395.823,811.6Z" transform="translate(-33.188 -268.158)" fill="#fff"/>
    <path id="패스_155" data-name="패스 155" d="M400.792,826.089a13.7,13.7,0,0,0-3.879-2.208,15.577,15.577,0,0,0-4.716-.716,15.4,15.4,0,0,0-4.775.716,12.613,12.613,0,0,0-3.82,2.208,9.883,9.883,0,0,0-2.566,3.4,9.167,9.167,0,0,0-1.015,4.358,10.545,10.545,0,0,0,3.581,7.759,11.339,11.339,0,0,0,3.82,2.149,14.913,14.913,0,0,0,9.49,0,10.791,10.791,0,0,0,6.506-5.552,10.358,10.358,0,0,0,.955-4.356,10.8,10.8,0,0,0-.955-4.358A14.452,14.452,0,0,0,400.792,826.089ZM399,836.355a6.367,6.367,0,0,1-1.553,2.031,8.328,8.328,0,0,1-8.176,1.311,6.48,6.48,0,0,1-2.269-1.311,5.986,5.986,0,0,1-1.671-2.031,5.714,5.714,0,0,1-.538-2.506,6.1,6.1,0,0,1,.538-2.506,6.581,6.581,0,0,1,1.671-2.03,7.7,7.7,0,0,1,2.269-1.373,9.088,9.088,0,0,1,2.924-.477,9,9,0,0,1,2.865.477,9.3,9.3,0,0,1,2.387,1.373,7.061,7.061,0,0,1,1.553,2.03,6.174,6.174,0,0,1,.6,2.506A5.742,5.742,0,0,1,399,836.355Z" transform="translate(-38.099 -263.487)" fill="#fff"/>
    <rect id="사각형_13" data-name="사각형 13" width="4.955" height="28.351" transform="translate(369.379 533.893)" fill="#fff"/>
    <path id="패스_156" data-name="패스 156" d="M388.666,826.835a10.442,10.442,0,0,0,3.88-2.207,11.268,11.268,0,0,0,2.625-3.343,10.17,10.17,0,0,0,.955-4.358,10.3,10.3,0,0,0-.955-4.3,13.585,13.585,0,0,0-2.625-3.461,15.305,15.305,0,0,0-3.88-2.21,17.7,17.7,0,0,0-4.716-.716,17.419,17.419,0,0,0-4.775.716,13.93,13.93,0,0,0-3.82,2.21,9.547,9.547,0,0,0-2.566,3.461,9.731,9.731,0,0,0,0,8.655,8.289,8.289,0,0,0,2.566,3.343,9.739,9.739,0,0,0,3.82,2.207,13.875,13.875,0,0,0,9.49,0Zm-9.848-5.311a6.035,6.035,0,0,1,0-9.132,7.591,7.591,0,0,1,5.133-1.671,7.864,7.864,0,0,1,5.193,1.671,6.15,6.15,0,0,1,0,9.132,7.864,7.864,0,0,1-5.193,1.671A7.591,7.591,0,0,1,378.817,821.524Z" transform="translate(-41.43 -270.321)" fill="#fff"/>
    <path id="패스_157" data-name="패스 157" d="M434.81,813.068a15.365,15.365,0,0,0-4.716-3.223,16.235,16.235,0,0,0-5.909-1.134,15.228,15.228,0,0,0-5.849,1.134,14.056,14.056,0,0,0-7.759,8.057,16.084,16.084,0,0,0-1.134,6.149,15.868,15.868,0,0,0,1.134,6.146,12.626,12.626,0,0,0,3.044,4.835,12.1,12.1,0,0,0,4.716,3.223,14.2,14.2,0,0,0,5.849,1.134,15.09,15.09,0,0,0,5.909-1.134,13.557,13.557,0,0,0,4.716-3.223,14.212,14.212,0,0,0,3.044-4.835,17.07,17.07,0,0,0,1.134-6.146,17.32,17.32,0,0,0-1.134-6.149A15.461,15.461,0,0,0,434.81,813.068Zm-1.433,15.279a10.743,10.743,0,0,1-1.968,3.343,8.866,8.866,0,0,1-3.1,2.267,9.237,9.237,0,0,1-4.119.837,8.638,8.638,0,0,1-4.057-.837,7.5,7.5,0,0,1-3.105-2.267,8.772,8.772,0,0,1-1.909-3.343,12.257,12.257,0,0,1-.656-4.3,12.953,12.953,0,0,1,.656-4.3,10.351,10.351,0,0,1,1.909-3.341,9.1,9.1,0,0,1,7.163-3.045,10.135,10.135,0,0,1,4.119.776,11.892,11.892,0,0,1,3.1,2.269,13.276,13.276,0,0,1,1.968,3.341,14.645,14.645,0,0,1,.6,4.3A13.825,13.825,0,0,1,433.376,828.346Z" transform="translate(-26.216 -269.325)" fill="#fff"/>
    <rect id="사각형_14" data-name="사각형 14" width="4.955" height="43.451" transform="translate(423.992 535.028)" fill="#fff"/>
    <path id="패스_158" data-name="패스 158" d="M455.383,826.439h-4.954v13.907h42.795v-4.655h-37.84Z" transform="translate(-9.663 -262.165)" fill="#fff"/>
    <path id="패스_159" data-name="패스 159" d="M475.581,829.018l3.461-3.461-16-19.1-15.34,19.1,3.462,3.461,11.937-15.339Z" transform="translate(-10.762 -270.235)" fill="#fff"/>
    <path id="패스_160" data-name="패스 160" d="M484.57,812.2a3.339,3.339,0,0,0-2.627,1.074,3.7,3.7,0,0,0-1.074,2.627,3.252,3.252,0,0,0,1.074,2.507,3.194,3.194,0,0,0,2.627,1.133,3.352,3.352,0,0,0,2.625-1.133,3.413,3.413,0,0,0,1.015-2.507,3.906,3.906,0,0,0-1.015-2.627A3.511,3.511,0,0,0,484.57,812.2Z" transform="translate(2.632 -267.917)" fill="#fff"/>
    <rect id="사각형_15" data-name="사각형 15" width="4.955" height="28.948" transform="translate(475.144 533.893)" fill="#fff"/>
    <path id="패스_161" data-name="패스 161" d="M513.039,827.322l3.522-3.284a89,89,0,0,1-7.043-6.326c-2.328-2.21-4.655-4.358-7.043-6.447h12.654v-4.6h-26.62v4.6h12.653L487.077,824.1l3.461,3.223,11.282-10.566Z" transform="translate(5.139 -270.149)" fill="#fff"/>
    <path id="패스_162" data-name="패스 162" d="M526.1,812.464a3.508,3.508,0,0,0-2.627-1.075,3.328,3.328,0,0,0-2.625,1.075,3.561,3.561,0,0,0-1.074,2.566,3.374,3.374,0,0,0,1.074,2.566,3.332,3.332,0,0,0,2.625,1.074A3.511,3.511,0,0,0,526.1,817.6a3.556,3.556,0,0,0,1.015-2.566A3.762,3.762,0,0,0,526.1,812.464Z" transform="translate(18.344 -268.244)" fill="#fff"/>
    <path id="패스_163" data-name="패스 163" d="M516.69,826.089a14.6,14.6,0,0,0-3.88-2.208,15.564,15.564,0,0,0-4.716-.716,14.882,14.882,0,0,0-4.775.716,11.938,11.938,0,0,0-3.82,2.208,10.907,10.907,0,0,0-2.625,3.4,9.883,9.883,0,0,0-.955,4.358,9.515,9.515,0,0,0,.955,4.356,9.677,9.677,0,0,0,2.625,3.4,10.8,10.8,0,0,0,3.82,2.149,12.177,12.177,0,0,0,4.775.775,12.623,12.623,0,0,0,4.716-.775,12.935,12.935,0,0,0,3.88-2.149,13.643,13.643,0,0,0,2.627-3.4,11.352,11.352,0,0,0,.894-4.356,11.856,11.856,0,0,0-.894-4.358A16.3,16.3,0,0,0,516.69,826.089ZM514.9,836.355a8.723,8.723,0,0,1-1.551,2.031,8.42,8.42,0,0,1-2.388,1.311,7.842,7.842,0,0,1-2.865.538,7.7,7.7,0,0,1-2.924-.538,6.775,6.775,0,0,1-2.328-1.311,6.577,6.577,0,0,1-1.61-2.031,5.012,5.012,0,0,1-.6-2.506,5.334,5.334,0,0,1,.6-2.506,7.316,7.316,0,0,1,1.61-2.03,8.059,8.059,0,0,1,2.328-1.373,9.088,9.088,0,0,1,2.924-.477,9.283,9.283,0,0,1,2.865.477,10.454,10.454,0,0,1,2.388,1.373,10.111,10.111,0,0,1,1.551,2.03,6.175,6.175,0,0,1,.6,2.506A5.742,5.742,0,0,1,514.9,836.355Z" transform="translate(8.711 -263.487)" fill="#fff"/>
    <rect id="사각형_16" data-name="사각형 16" width="4.954" height="27.754" transform="translate(529.758 533.893)" fill="#fff"/>
  </g>
</svg>
