<svg id="구성_요소_21_3" data-name="구성 요소 21 – 3" xmlns="http://www.w3.org/2000/svg" width="290.283" height="214.689" viewBox="0 0 290.283 214.689">
  <path id="패스_25" data-name="패스 25" d="M39.585,257.424a2.451,2.451,0,0,0,.971-.2c17.458-7.438,25.132-15.992,29.585-33.37h29.7a2.481,2.481,0,1,0,0-4.962H95.825c.16.416.32.849.48,1.255a2.481,2.481,0,0,1-4.616,1.818c-.377-.958-.772-1.985-1.177-3.072H68.2a2.482,2.482,0,0,0-2.417,1.916c-3.506,14.941-8.672,23.972-27.169,31.855a2.481,2.481,0,0,0,.973,4.764Z" transform="translate(-37.101 -42.734)" fill="#f0a30f"/>
  <path id="패스_26" data-name="패스 26" d="M131.249,223.852h14.169c4.454,17.378,12.127,25.932,29.585,33.37a2.454,2.454,0,0,0,.973.2,2.481,2.481,0,0,0,.973-4.764c-18.5-7.882-23.665-16.914-27.171-31.855a2.48,2.48,0,0,0-2.414-1.916H134.11l-.405,2.835A2.48,2.48,0,0,1,131.249,223.852Z" transform="translate(111.825 -42.734)" fill="#f0a30f"/>
  <path id="패스_27" data-name="패스 27" d="M108.126,223.535a2.433,2.433,0,0,1-.906-.173,2.48,2.48,0,0,1-1.4-3.214c.16-.405.32-.842.48-1.257h-4.141a2.481,2.481,0,1,0,0,4.962h60.559a2.48,2.48,0,0,1-2.455-2.127l-.408-2.835H150.9a22.735,22.735,0,0,1-2.047,3.6,2.476,2.476,0,0,1-2.019,1.04H133.606a2.476,2.476,0,0,1-2.019-1.04,22.73,22.73,0,0,1-2.047-3.6H111.612c-.405,1.087-.8,2.114-1.177,3.07A2.478,2.478,0,0,1,108.126,223.535Z" transform="translate(61.882 -42.734)" fill="#f0a30f"/>
  <path id="패스_28" data-name="패스 28" d="M70.16,215.888a2.482,2.482,0,0,0-3.351,1.038,23.171,23.171,0,0,0-.979,19.924,2.484,2.484,0,0,0,2.3,1.539,2.426,2.426,0,0,0,.942-.189,2.482,2.482,0,0,0,1.353-3.238,18.285,18.285,0,0,1,.78-15.726A2.478,2.478,0,0,0,70.16,215.888Z" transform="translate(5.509 -47.937)" fill="#f0a30f"/>
  <path id="패스_29" data-name="패스 29" d="M71.914,215.888a2.475,2.475,0,0,0-1.038,3.349,18.294,18.294,0,0,1,.78,15.726,2.478,2.478,0,0,0,1.35,3.238,2.436,2.436,0,0,0,.942.189,2.484,2.484,0,0,0,2.3-1.539,23.171,23.171,0,0,0-.978-19.924A2.482,2.482,0,0,0,71.914,215.888Z" transform="translate(15.871 -47.937)" fill="#f0a30f"/>
  <path id="패스_30" data-name="패스 30" d="M70.276,215.6a2.48,2.48,0,0,0-2.481,2.481v17.825a2.481,2.481,0,0,0,4.962,0V218.082A2.482,2.482,0,0,0,70.276,215.6Z" transform="translate(11.452 -47.937)" fill="#f0a30f"/>
  <path id="패스_31" data-name="패스 31" d="M94.736,215.888a2.48,2.48,0,0,0-3.351,1.038,23.171,23.171,0,0,0-.979,19.924,2.481,2.481,0,0,0,2.3,1.539,2.436,2.436,0,0,0,.942-.189,2.478,2.478,0,0,0,1.35-3.238,18.294,18.294,0,0,1,.78-15.726A2.475,2.475,0,0,0,94.736,215.888Z" transform="translate(44.383 -47.937)" fill="#f0a30f"/>
  <path id="패스_32" data-name="패스 32" d="M96.488,215.888a2.48,2.48,0,0,0-1.038,3.349,18.285,18.285,0,0,1,.78,15.726,2.482,2.482,0,0,0,1.353,3.238,2.427,2.427,0,0,0,.942.189,2.484,2.484,0,0,0,2.3-1.539,23.171,23.171,0,0,0-.981-19.924A2.481,2.481,0,0,0,96.488,215.888Z" transform="translate(54.745 -47.937)" fill="#f0a30f"/>
  <path id="패스_33" data-name="패스 33" d="M94.851,215.6a2.482,2.482,0,0,0-2.481,2.481v17.825a2.481,2.481,0,0,0,4.962,0V218.082A2.48,2.48,0,0,0,94.851,215.6Z" transform="translate(50.325 -47.937)" fill="#f0a30f"/>
  <path id="패스_34" data-name="패스 34" d="M138.228,233.872c0-10.054-2.92-19.007-7.531-23.391l.759-9.421a2.478,2.478,0,0,0-2.471-2.68h-9.847a2.478,2.478,0,0,0-2.471,2.68l.759,9.421c-4.611,4.384-7.534,13.338-7.534,23.391a42.371,42.371,0,0,0,3.488,17.461h21.362A42.371,42.371,0,0,0,138.228,233.872Zm-19.444,17.143c-2.473-4.115-3.929-10.4-3.929-17.143,0-9.031,2.732-17.4,6.64-20.35a2.475,2.475,0,0,0,.979-2.179l-.645-8h4.467l-.645,8a2.481,2.481,0,0,0,.978,2.179c3.909,2.951,6.64,11.319,6.64,20.35,0,6.741-1.456,13.028-3.93,17.143Z" transform="translate(78.042 -75.178)" fill="#f0a30f"/>
  <path id="패스_35" data-name="패스 35" d="M115.309,223.535h13.229a2.476,2.476,0,0,0,2.019-1.04,22.734,22.734,0,0,0,2.047-3.6H111.243a22.73,22.73,0,0,0,2.047,3.6A2.476,2.476,0,0,0,115.309,223.535Z" transform="translate(80.178 -42.734)" fill="#f0a30f"/>
  <path id="패스_36" data-name="패스 36" d="M127.556,217.446h17.5l-1.663,11.577H148.4l1.967-13.7a2.483,2.483,0,0,0-2.455-2.835H124.692a2.483,2.483,0,0,0-2.455,2.835l1.967,13.7h5.011Z" transform="translate(97.531 -52.867)" fill="#f0a30f"/>
  <path id="패스_37" data-name="패스 37" d="M125.847,223.852h18.476a2.48,2.48,0,0,0,2.455-2.127l.405-2.835h-24.2l.408,2.835A2.48,2.48,0,0,0,125.847,223.852Z" transform="translate(98.751 -42.734)" fill="#f0a30f"/>
  <path id="패스_38" data-name="패스 38" d="M121.745,216.445c.651-.274,1.046-.416,1.082-.429a2.48,2.48,0,0,1,1.616,4.689c-.183.064-.966.349-2.115.87.444,4.637.7,9.542.7,14.817,0,15.447-5.228,37.4-11.166,55.274.108.328.225.679.32.973.715,2.174,1.144,3.488,1.4,4.26.054.17.124.382.188.62l.093.271-.023.01c.253,1.121.271,2.621-1.513,3.217a2.737,2.737,0,0,1-.839.137,2.474,2.474,0,0,1-2.316-1.792c-.382,1.038-.764,2.042-1.146,3.034h5.313c5.936-15.87,14.654-44.725,14.654-66,0-29.634-7.35-52.318-21.842-67.427-.953-.994-1.949-1.941-2.964-2.866-1.459.824-2.979,1.645-4.606,2.461C109.6,177.934,118.538,192.891,121.745,216.445Z" transform="translate(60.153 -126.241)" fill="#f0a30f"/>
  <path id="패스_39" data-name="패스 39" d="M71.008,299.569a2.432,2.432,0,0,1-2.2,1.585,2.722,2.722,0,0,1-.839-.137c-1.784-.6-1.766-2.1-1.513-3.217l-.023-.01.093-.271c.065-.238.132-.449.188-.62.25-.772.682-2.086,1.394-4.26.067-.2.152-.457.225-.679-5.977-17.923-11.262-40.036-11.262-55.569,0-5.308.263-10.245.713-14.907-1.046-.462-1.753-.718-1.926-.777a2.481,2.481,0,0,1,1.614-4.691c.034.01.359.129.9.354,3.212-23.51,12.142-38.446,23.149-47.81-1.627-.816-3.147-1.637-4.606-2.461-1.017.924-2.011,1.872-2.964,2.866-14.494,15.109-21.842,37.793-21.842,67.427,0,21.282,8.716,50.134,14.654,66H72.08C71.724,301.469,71.367,300.537,71.008,299.569Z" transform="translate(-13.356 -126.241)" fill="#f0a30f"/>
  <path id="패스_40" data-name="패스 40" d="M109.086,164.3c11.892,0,27.453,2.264,40.863,11.556,1.73-.824,3.377-1.652,4.918-2.486-12.083-9.2-27.708-14.032-45.781-14.032s-33.69,4.828-45.771,14.024c1.541.837,3.189,1.665,4.916,2.491C81.638,166.566,97.2,164.3,109.086,164.3Z" transform="translate(4.365 -136.934)" fill="#f0a30f"/>
  <path id="패스_41" data-name="패스 41" d="M62.18,223.362a2.481,2.481,0,0,0,1.4-3.217c-.16-.405-.32-.839-.48-1.255H57.788c.405,1.087.8,2.114,1.177,3.072A2.482,2.482,0,0,0,62.18,223.362Z" transform="translate(-4.378 -42.734)" fill="#f0a30f"/>
  <path id="패스_42" data-name="패스 42" d="M102.161,220.147a2.48,2.48,0,0,0,1.4,3.214,2.433,2.433,0,0,0,.906.173,2.478,2.478,0,0,0,2.308-1.575c.377-.955.772-1.983,1.177-3.07h-5.313C102.481,219.306,102.321,219.742,102.161,220.147Z" transform="translate(65.54 -42.734)" fill="#f0a30f"/>
  <path id="패스_43" data-name="패스 43" d="M68.164,166.9a2.324,2.324,0,0,1,.442-.178,2.472,2.472,0,0,1,1.565.077c-.777-.349-1.495-.7-2.238-1.059-1.505,1.043-2.985,2.171-4.428,3.4.529.268,1.113.529,1.663.793.759-.893,1.544-1.763,2.383-2.577A2.511,2.511,0,0,1,68.164,166.9Z" transform="translate(4.664 -126.815)" fill="#f0a30f"/>
  <path id="패스_44" data-name="패스 44" d="M74.136,169.292c-2.437-.847-4.7-1.74-6.881-2.649,2.233.958,4.479,1.867,6.731,2.649,18.264,6.354,25.689,16.867,28.7,24.569l.059.157.034-.077C99.479,185.436,91.764,175.424,74.136,169.292Z" transform="translate(10.597 -125.38)" fill="#f0a30f"/>
  <path id="패스_45" data-name="패스 45" d="M57.548,158.745a2.48,2.48,0,0,0-4.051,2.863c.341.483,6.584,9.114,21.948,17.778q1.983-1.8,4.118-3.429C63.966,167.505,57.628,158.859,57.548,158.745Z" transform="translate(-11.883 -139.529)" fill="#f0a30f"/>
  <path id="패스_46" data-name="패스 46" d="M70.754,167.262c-1.727-.826-3.374-1.655-4.916-2.492Q63.7,166.4,61.72,168.2c1.459.824,2.979,1.645,4.606,2.461C67.769,169.434,69.249,168.306,70.754,167.262Z" transform="translate(1.843 -128.341)" fill="#f0a30f"/>
  <path id="패스_47" data-name="패스 47" d="M124.833,161.608a2.481,2.481,0,1,0-4.056-2.858c-.08.114-6.341,8.745-22,17.216q2.13,1.623,4.11,3.421C118.25,170.722,124.493,162.091,124.833,161.608Z" transform="translate(60.457 -139.528)" fill="#f0a30f"/>
  <path id="패스_48" data-name="패스 48" d="M96.147,166.62a2.488,2.488,0,0,1,.9.1,2.337,2.337,0,0,1,.411.163,2.518,2.518,0,0,1,.64.467,35.645,35.645,0,0,1,2.471,2.675c.622-.3,1.275-.591,1.872-.891-1.441-1.226-2.917-2.352-4.423-3.4C97.394,166.031,96.792,166.328,96.147,166.62Z" transform="translate(56.3 -126.814)" fill="#f0a30f"/>
  <path id="패스_49" data-name="패스 49" d="M109.869,171.531c2.982-1.038,5.729-2.135,8.347-3.253-.026-.028-.046-.059-.072-.088-2.778,1.239-5.605,2.36-8.424,3.341-25.214,8.773-27.713,25.811-27.713,32.211a19.6,19.6,0,0,0,.1,2.081l.163.145C81.905,203.145,80.219,181.845,109.869,171.531Z" transform="translate(33.931 -122.933)" fill="#f0a30f"/>
  <path id="패스_50" data-name="패스 50" d="M101.293,170.655c1.626-.816,3.147-1.637,4.606-2.461q-1.979-1.8-4.11-3.421c-1.541.834-3.189,1.663-4.918,2.486C98.375,168.3,99.852,169.429,101.293,170.655Z" transform="translate(57.443 -128.336)" fill="#f0a30f"/>
  <path id="패스_51" data-name="패스 51" d="M81.868,174.176a6.741,6.741,0,0,0,4.294-1.536,6.772,6.772,0,0,0,8.59,0,6.773,6.773,0,0,0,11.068-5.238,2.481,2.481,0,0,0-4.962,0,1.812,1.812,0,1,1-3.625,0,2.481,2.481,0,0,0-4.962,0,1.814,1.814,0,1,1-3.628,0,2.481,2.481,0,0,0-4.962,0,1.812,1.812,0,1,1-3.625,0,2.481,2.481,0,0,0-4.962,0A6.782,6.782,0,0,0,81.868,174.176Z" transform="translate(22.996 -128.101)" fill="#f0a30f"/>
  <path id="패스_52" data-name="패스 52" d="M66.086,166.146c.966.436,2,.857,3.018,1.283-.945-.408-1.892-.8-2.827-1.232A1.76,1.76,0,0,0,66.086,166.146Z" transform="translate(8.749 -126.166)" fill="#f0a30f"/>
  <path id="패스_53" data-name="패스 53" d="M119.216,166.3a101.932,101.932,0,0,1-9.558,3.88c-17.629,6.132-25.341,16.144-28.643,24.649.026.07.046.137.072.207,3.258-8.548,10.947-18.672,28.72-24.855,3.733-1.3,7.141-2.682,10.276-4.105a2.491,2.491,0,0,0-.865.222Z" transform="translate(32.363 -126.272)" fill="#f0a30f"/>
  <path id="패스_54" data-name="패스 54" d="M161.291,194.034c0,18.225-12.413,33.053-27.667,33.053a24.757,24.757,0,0,1-16.389-6.439,28.29,28.29,0,0,0-2.117,1.877,2.478,2.478,0,0,1-3.478,0,28.273,28.273,0,0,0-2.117-1.877,24.757,24.757,0,0,1-16.389,6.439c-15.253,0-27.664-14.827-27.664-33.053a36.05,36.05,0,0,1,9.14-24.53c2.775,1.239,5.6,2.36,8.422,3.341,25.1,8.734,27.742,25.353,27.742,31.95a20.151,20.151,0,0,1-.124,2.337c.054-.049.111-.1.165-.15.4-3.754,1.151-24.122-27.633-34.137a124.106,124.106,0,0,1-13.273-5.486,41.316,41.316,0,0,0-9.4,26.675c0,20.962,14.636,38.012,32.626,38.012a29.766,29.766,0,0,0,20.247-8.19,29.759,29.759,0,0,0,20.244,8.19c17.99,0,32.627-17.05,32.627-38.012a41.332,41.332,0,0,0-9.31-26.577q-2.254,1.084-4.717,2.135A36.072,36.072,0,0,1,161.291,194.034Z" transform="translate(-0.076 -124.248)" fill="#f0a30f"/>
  <path id="패스_55" data-name="패스 55" d="M105.054,209.005c.15-.134.3-.263.452-.4a34.327,34.327,0,0,1,2.262-13.565c-.026-.07-.046-.137-.072-.207l-.034.077-.059-.158c-3.013-7.7-10.438-18.215-28.7-24.569-2.251-.782-4.5-1.691-6.731-2.649-1.02-.426-2.053-.847-3.018-1.283a2.473,2.473,0,0,0-1.565-.078,2.333,2.333,0,0,0-.442.178,2.511,2.511,0,0,0-.614.454c-.839.813-1.624,1.683-2.383,2.577a124.109,124.109,0,0,0,13.273,5.486C106.206,184.883,105.455,205.251,105.054,209.005Z" transform="translate(5.683 -126.27)" fill="#f0a30f"/>
  <path id="패스_56" data-name="패스 56" d="M121.345,166.344a2.344,2.344,0,0,0-.41-.163,2.487,2.487,0,0,0-.9-.1c-3.134,1.423-6.542,2.806-10.276,4.105-17.773,6.183-25.462,16.307-28.72,24.855a34.165,34.165,0,0,1,2.251,13.821c.111.1.225.2.336.3a19.6,19.6,0,0,1-.1-2.081c0-6.4,2.5-23.438,27.713-32.211,2.819-.981,5.646-2.1,8.425-3.341.026.028.046.059.072.088q2.463-1.054,4.717-2.135a35.664,35.664,0,0,0-2.471-2.675A2.519,2.519,0,0,0,121.345,166.344Z" transform="translate(32.408 -126.276)" fill="#f0a30f"/>
  <path id="패스_57" data-name="패스 57" d="M80.185,190.861c.121-.116.253-.217.374-.336a2.478,2.478,0,0,1,3.478,0c.214.209.444.39.661.591A34.166,34.166,0,0,0,82.447,177.3,34.325,34.325,0,0,0,80.185,190.861Z" transform="translate(31.004 -108.529)" fill="#f0a30f"/>
  <path id="패스_58" data-name="패스 58" d="M79,175.2a13.068,13.068,0,1,0,13.069,13.067A13.067,13.067,0,0,0,79,175.2Zm0,21.137a8.071,8.071,0,1,1,8.071-8.071A8.081,8.081,0,0,1,79,196.334Z" transform="translate(8.504 -111.849)" fill="#f0a30f"/>
  <path id="패스_59" data-name="패스 59" d="M85.857,188.264A13.068,13.068,0,1,0,98.924,175.2,13.067,13.067,0,0,0,85.857,188.264Zm21.318,0a8.071,8.071,0,1,1-8.071-8.071A8.081,8.081,0,0,1,107.175,188.264Z" transform="translate(40.023 -111.849)" fill="#f0a30f"/>
  <path id="패스_60" data-name="패스 60" d="M73.16,236c-4.319,13.077-6.837,20.709-8.3,25.157.88,2.641,1.776,5.184,2.672,7.609.041-.083.09-.134.126-.225l.005,0,.018-.057c.039-.1.075-.194.111-.3a2.159,2.159,0,0,0,.075-.281c.589-1.813,2.719-8.3,10-30.352,11.794-35.7-17.42-49.692-22.973-51.988-.227,1.657-.421,3.369-.589,5.115C61.16,193.716,83.069,206.015,73.16,236Z" transform="translate(-9.879 -95.441)" fill="#f0a30f"/>
  <path id="패스_61" data-name="패스 61" d="M53.051,187.056a2.479,2.479,0,0,0,1.539,3.152c.173.059.88.315,1.926.777.168-1.745.361-3.457.589-5.115-.542-.225-.868-.343-.9-.354A2.475,2.475,0,0,0,53.051,187.056Z" transform="translate(-12.085 -95.742)" fill="#f0a30f"/>
  <path id="패스_62" data-name="패스 62" d="M59.4,215.527c-.713,2.174-1.144,3.488-1.394,4.26-.057.17-.124.382-.188.62l-.093.271.023.01c-.253,1.12-.271,2.62,1.513,3.217a2.725,2.725,0,0,0,.839.137,2.432,2.432,0,0,0,2.2-1.585c-.9-2.424-1.792-4.967-2.672-7.609C59.549,215.07,59.464,215.323,59.4,215.527Z" transform="translate(-4.641 -49.128)" fill="#f0a30f"/>
  <path id="패스_63" data-name="패스 63" d="M105.139,235.957c-9.79-29.632,11.626-42.037,18.667-45.228-.168-1.75-.359-3.467-.583-5.13-5.982,2.517-34.465,16.591-22.792,51.913,7.286,22.054,9.413,28.539,10,30.352a2.685,2.685,0,0,0,.077.281c.036.106.072.2.111.3l.016.057.005,0,.01.018c.9-2.455,1.807-5.027,2.693-7.7C111.867,256.331,109.368,248.75,105.139,235.957Z" transform="translate(58.676 -95.395)" fill="#f0a30f"/>
  <path id="패스_64" data-name="패스 64" d="M105,224.222a2.736,2.736,0,0,0,.839-.137c1.784-.6,1.766-2.1,1.513-3.217l.023-.01-.093-.271c-.065-.238-.134-.449-.189-.62-.253-.772-.682-2.086-1.4-4.26-.1-.294-.212-.646-.32-.973-.886,2.67-1.789,5.241-2.693,7.7A2.474,2.474,0,0,0,105,224.222Z" transform="translate(66.641 -49.308)" fill="#f0a30f"/>
  <path id="패스_65" data-name="패스 65" d="M110.252,190.2a2.48,2.48,0,0,0-1.616-4.689c-.036.013-.431.155-1.082.429.225,1.663.416,3.38.584,5.13C109.286,190.553,110.069,190.269,110.252,190.2Z" transform="translate(74.344 -95.741)" fill="#f0a30f"/>
  <path id="패스_66" data-name="패스 66" d="M144.092,188.978a16.751,16.751,0,0,0,7.5-1.75,2.479,2.479,0,0,0,0-4.446,11.958,11.958,0,0,1,0-21.442,2.481,2.481,0,0,0,0-4.449,16.919,16.919,0,1,0-7.5,32.087Zm0-28.875c.261,0,.522.008.78.026a16.958,16.958,0,0,0,0,23.864c-.258.016-.519.023-.78.023a11.956,11.956,0,1,1,0-23.913Z" transform="translate(105.378 -143.574)" fill="#f0a30f"/>
  <path id="패스_67" data-name="패스 67" d="M51.922,163.692,40.358,175.259a2.48,2.48,0,0,0,3.509,3.506l7.33-7.33v-5.99A2.481,2.481,0,0,1,51.922,163.692Z" transform="translate(-33.098 -130.048)" fill="#f0a30f"/>
  <path id="패스_68" data-name="패스 68" d="M46.477,171.435l7.332,7.33a2.479,2.479,0,0,0,3.506-3.506L45.752,163.692a2.47,2.47,0,0,1,.725,1.753Z" transform="translate(-23.416 -130.048)" fill="#f0a30f"/>
  <path id="패스_69" data-name="패스 69" d="M44.7,163.6a2.457,2.457,0,0,1,.955-.194A2.459,2.459,0,0,0,44.7,163.6Z" transform="translate(-25.077 -130.494)" fill="#f0a30f"/>
  <path id="패스_70" data-name="패스 70" d="M45.072,163.41a2.457,2.457,0,0,1,.955.194A2.449,2.449,0,0,0,45.072,163.41Z" transform="translate(-24.491 -130.494)" fill="#f0a30f"/>
  <path id="패스_71" data-name="패스 71" d="M40.358,179.291a2.481,2.481,0,1,0,3.509,3.509l7.33-7.33v-7.017Z" transform="translate(-33.098 -122.517)" fill="#f0a30f"/>
  <path id="패스_72" data-name="패스 72" d="M53.365,182.8a2.48,2.48,0,0,0,3.506-3.509L46.033,168.453v7.017Z" transform="translate(-22.972 -122.517)" fill="#f0a30f"/>
  <path id="패스_73" data-name="패스 73" d="M40.358,183.772a2.481,2.481,0,0,0,3.509,3.509l7.33-7.332v-7.015Z" transform="translate(-33.098 -115.43)" fill="#f0a30f"/>
  <path id="패스_74" data-name="패스 74" d="M53.365,187.28a2.48,2.48,0,0,0,3.506-3.509L46.033,172.933v7.015Z" transform="translate(-22.972 -115.43)" fill="#f0a30f"/>
  <path id="패스_75" data-name="패스 75" d="M44.111,177.169V207.7a2.481,2.481,0,1,0,4.962,0V177.169l-2.481-2.479Z" transform="translate(-26.012 -112.651)" fill="#f0a30f"/>
  <path id="패스_76" data-name="패스 76" d="M45.192,163.485a2.444,2.444,0,0,0-.8.534h0A2.462,2.462,0,0,1,45.192,163.485Z" transform="translate(-25.568 -130.376)" fill="#f0a30f"/>
  <path id="패스_77" data-name="패스 77" d="M44.839,176.512a2.481,2.481,0,0,1,3.506,0l.728.728v-4.549l-2.481-2.481-2.481,2.481v4.549Z" transform="translate(-26.012 -119.738)" fill="#f0a30f"/>
  <path id="패스_78" data-name="패스 78" d="M46.242,164.02a2.444,2.444,0,0,0-.8-.534,2.435,2.435,0,0,1,.8.534Z" transform="translate(-23.906 -130.376)" fill="#f0a30f"/>
  <path id="패스_79" data-name="패스 79" d="M48.345,172.035l.728.726v-4.549l-2.481-2.481-2.481,2.481v4.549l.728-.726A2.475,2.475,0,0,1,48.345,172.035Z" transform="translate(-26.012 -126.825)" fill="#f0a30f"/>
  <path id="패스_80" data-name="패스 80" d="M49.073,171.881v-5.99a2.47,2.47,0,0,0-.726-1.753h0a2.468,2.468,0,0,0-2.708-.534,2.464,2.464,0,0,0-.8.534h0a2.481,2.481,0,0,0-.725,1.753v5.99l2.481-2.481Z" transform="translate(-26.012 -130.494)" fill="#f0a30f"/>
  <path id="패스_81" data-name="패스 81" d="M49.073,176.361v-7.017l-.728-.726a2.475,2.475,0,0,0-3.506,0l-.728.726v7.017l2.481-2.481Z" transform="translate(-26.012 -123.408)" fill="#f0a30f"/>
  <path id="패스_82" data-name="패스 82" d="M46.592,172.37a2.477,2.477,0,0,0-1.753.726l-.728.728v7.015l2.481-2.479,2.481,2.479v-7.015l-.728-.728A2.477,2.477,0,0,0,46.592,172.37Z" transform="translate(-26.012 -116.321)" fill="#f0a30f"/>
  <path id="패스_83" data-name="패스 83" d="M144.538,186.309l-11.564,11.564a2.481,2.481,0,0,0,3.509,3.509l7.33-7.332v-5.987A2.481,2.481,0,0,1,144.538,186.309Z" transform="translate(113.402 -94.272)" fill="#f0a30f"/>
  <path id="패스_84" data-name="패스 84" d="M137.317,186.221a2.456,2.456,0,0,1,.955-.194A2.458,2.458,0,0,0,137.317,186.221Z" transform="translate(121.424 -94.718)" fill="#f0a30f"/>
  <path id="패스_85" data-name="패스 85" d="M138.642,186.221a2.458,2.458,0,0,0-.955-.194A2.456,2.456,0,0,1,138.642,186.221Z" transform="translate(122.009 -94.718)" fill="#f0a30f"/>
  <path id="패스_86" data-name="패스 86" d="M139.092,194.049l7.332,7.332a2.48,2.48,0,0,0,3.506-3.509l-11.564-11.564a2.47,2.47,0,0,1,.725,1.753Z" transform="translate(123.085 -94.272)" fill="#f0a30f"/>
  <path id="패스_87" data-name="패스 87" d="M145.98,205.417a2.48,2.48,0,0,0,3.506-3.509L138.648,191.07v7.015Z" transform="translate(123.529 -86.741)" fill="#f0a30f"/>
  <path id="패스_88" data-name="패스 88" d="M132.974,201.908a2.481,2.481,0,0,0,3.509,3.509l7.33-7.332V191.07Z" transform="translate(113.402 -86.741)" fill="#f0a30f"/>
  <path id="패스_89" data-name="패스 89" d="M145.98,209.9a2.48,2.48,0,0,0,3.506-3.509L138.648,195.55v7.015Z" transform="translate(123.529 -79.654)" fill="#f0a30f"/>
  <path id="패스_90" data-name="패스 90" d="M132.974,206.389a2.481,2.481,0,0,0,3.509,3.509l7.33-7.332V195.55Z" transform="translate(113.402 -79.654)" fill="#f0a30f"/>
  <path id="패스_91" data-name="패스 91" d="M137.807,186.1a2.445,2.445,0,0,0-.8.534l0,0A2.454,2.454,0,0,1,137.807,186.1Z" transform="translate(120.933 -94.599)" fill="#f0a30f"/>
  <path id="패스_92" data-name="패스 92" d="M138.857,186.636a2.446,2.446,0,0,0-.8-.534,2.427,2.427,0,0,1,.8.532Z" transform="translate(122.594 -94.599)" fill="#f0a30f"/>
  <path id="패스_93" data-name="패스 93" d="M136.726,199.787v30.535a2.481,2.481,0,1,0,4.962,0V199.787l-2.481-2.481Z" transform="translate(120.489 -76.877)" fill="#f0a30f"/>
  <path id="패스_94" data-name="패스 94" d="M136.726,195.307v4.552l.728-.728a2.479,2.479,0,0,1,3.506,0l.728.728v-4.552l-2.481-2.481Z" transform="translate(120.489 -83.963)" fill="#f0a30f"/>
  <path id="패스_95" data-name="패스 95" d="M136.726,190.827v4.552l.728-.728a2.481,2.481,0,0,1,3.506,0l.728.728v-4.552l-2.481-2.481Z" transform="translate(120.489 -91.05)" fill="#f0a30f"/>
  <path id="패스_96" data-name="패스 96" d="M138.252,186.221a2.456,2.456,0,0,0-.8.532l0,0a2.481,2.481,0,0,0-.726,1.753V194.5l2.481-2.481,2.481,2.481v-5.987a2.47,2.47,0,0,0-.725-1.753l0,0a2.43,2.43,0,0,0-.8-.532,2.453,2.453,0,0,0-1.911,0Z" transform="translate(120.489 -94.718)" fill="#f0a30f"/>
  <path id="패스_97" data-name="패스 97" d="M139.207,190.507a2.477,2.477,0,0,0-1.753.726l-.728.728v7.015l2.481-2.481,2.481,2.481v-7.015l-.728-.728A2.477,2.477,0,0,0,139.207,190.507Z" transform="translate(120.489 -87.631)" fill="#f0a30f"/>
  <path id="패스_98" data-name="패스 98" d="M137.454,195.713l-.728.728v7.015l2.481-2.481,2.481,2.481v-7.015l-.728-.728A2.479,2.479,0,0,0,137.454,195.713Z" transform="translate(120.489 -80.545)" fill="#f0a30f"/>
  <path id="패스_99" data-name="패스 99" d="M40.047,203.457h3.8V198.5h-3.8a2.481,2.481,0,0,0,0,4.962Z" transform="translate(-36.365 -74.996)" fill="#f0a30f"/>
  <path id="패스_100" data-name="패스 100" d="M45.718,203.457a2.481,2.481,0,0,0,0-4.962h-3.8v4.962Z" transform="translate(-29.478 -74.996)" fill="#f0a30f"/>
  <path id="패스_101" data-name="패스 101" d="M40,204.215a2.481,2.481,0,1,0,4.962,0v-3.8H40Z" transform="translate(-32.519 -71.956)" fill="#f0a30f"/>
  <path id="패스_102" data-name="패스 102" d="M44.96,198.542a2.481,2.481,0,0,0-4.962,0v3.8H44.96Z" transform="translate(-32.519 -78.843)" fill="#f0a30f"/>
  <rect id="사각형_7" data-name="사각형 7" width="4.961" height="4.961" transform="translate(7.479 123.499)" fill="#f0a30f"/>
  <path id="패스_103" data-name="패스 103" d="M122.95,189.822a2.481,2.481,0,1,0,0,4.962h2.019v-4.962Z" transform="translate(94.773 -88.715)" fill="#f0a30f"/>
  <path id="패스_104" data-name="패스 104" d="M126.156,194.784a2.481,2.481,0,0,0,0-4.962h-2.022v4.962Z" transform="translate(100.57 -88.715)" fill="#f0a30f"/>
  <path id="패스_105" data-name="패스 105" d="M124.693,196.244a2.48,2.48,0,0,0,2.481-2.481v-2.019h-4.962v2.019A2.48,2.48,0,0,0,124.693,196.244Z" transform="translate(97.53 -85.675)" fill="#f0a30f"/>
  <path id="패스_106" data-name="패스 106" d="M127.174,190.559a2.481,2.481,0,1,0-4.962,0v2.022h4.962Z" transform="translate(97.53 -91.474)" fill="#f0a30f"/>
  <rect id="사각형_8" data-name="사각형 8" width="4.961" height="4.961" transform="translate(219.743 101.106)" fill="#f0a30f"/>
  <path id="패스_107" data-name="패스 107" d="M103.579,158.055a2.481,2.481,0,0,0,0-4.962h-3.8v4.962Z" transform="translate(62.049 -146.814)" fill="#f0a30f"/>
  <path id="패스_108" data-name="패스 108" d="M97.906,158.055h3.8v-4.962h-3.8a2.481,2.481,0,0,0,0,4.962Z" transform="translate(55.161 -146.814)" fill="#f0a30f"/>
  <path id="패스_109" data-name="패스 109" d="M97.859,158.815a2.481,2.481,0,0,0,4.962,0v-3.8H97.859Z" transform="translate(59.008 -143.774)" fill="#f0a30f"/>
  <path id="패스_110" data-name="패스 110" d="M102.821,153.142a2.481,2.481,0,1,0-4.962,0v3.8h4.962Z" transform="translate(59.008 -150.661)" fill="#f0a30f"/>
  <rect id="사각형_9" data-name="사각형 9" width="4.961" height="4.961" transform="translate(156.867 6.28)" fill="#f0a30f"/>
  <path id="패스_111" data-name="패스 111" d="M117.489,165.7h1.232v-4.962h-1.232a2.481,2.481,0,1,0,0,4.962Z" transform="translate(86.135 -134.729)" fill="#f0a30f"/>
  <path id="패스_112" data-name="패스 112" d="M119.6,165.7a2.481,2.481,0,1,0,0-4.962h-1.232V165.7Z" transform="translate(91.449 -134.729)" fill="#f0a30f"/>
  <path id="패스_113" data-name="패스 113" d="M116.446,163.887a2.481,2.481,0,0,0,4.962,0v-1.232h-4.962Z" transform="translate(88.409 -131.689)" fill="#f0a30f"/>
  <path id="패스_114" data-name="패스 114" d="M121.408,161.776a2.481,2.481,0,0,0-4.962,0v1.232h4.962Z" transform="translate(88.409 -137.003)" fill="#f0a30f"/>
  <rect id="사각형_10" data-name="사각형 10" width="4.962" height="4.961" transform="translate(204.855 26.005)" fill="#f0a30f"/>
  <path id="패스_115" data-name="패스 115" d="M48.58,208.574a2.48,2.48,0,1,0,0,4.96h1.232v-4.96Z" transform="translate(-22.867 -59.053)" fill="#f0a30f"/>
  <path id="패스_116" data-name="패스 116" d="M49.459,208.574v4.96h1.232a2.48,2.48,0,1,0,0-4.96Z" transform="translate(-17.553 -59.053)" fill="#f0a30f"/>
  <path id="패스_117" data-name="패스 117" d="M47.537,211.729a2.481,2.481,0,1,0,4.962,0v-1.234H47.537Z" transform="translate(-20.593 -56.014)" fill="#f0a30f"/>
  <path id="패스_118" data-name="패스 118" d="M52.5,209.616a2.481,2.481,0,0,0-4.962,0v1.234H52.5Z" transform="translate(-20.593 -61.329)" fill="#f0a30f"/>
  <rect id="사각형_11" data-name="사각형 11" width="4.961" height="4.961" transform="translate(26.944 149.52)" fill="#f0a30f"/>
  <path id="패스_119" data-name="패스 119" d="M121.271,185.542h9a6.762,6.762,0,0,0,6.514,8.548h23.066a6.754,6.754,0,1,0,0-13.508h-9a6.762,6.762,0,0,0-6.514-8.548H121.271a6.754,6.754,0,0,0,0,13.508Zm0-8.546H144.34a1.793,1.793,0,0,1,0,3.586,2.48,2.48,0,1,0,0,4.96h15.512a1.793,1.793,0,1,1,0,3.586H136.785a1.793,1.793,0,0,1,0-3.586,2.48,2.48,0,1,0,0-4.96H121.271a1.793,1.793,0,0,1,0-3.586Z" transform="translate(85.358 -116.853)" fill="#f0a30f"/>
  <path id="패스_120" data-name="패스 120" d="M72.919,179.04a3.145,3.145,0,1,0,3.145,3.145A3.15,3.15,0,0,0,72.919,179.04Z" transform="translate(14.583 -105.77)" fill="#f0a30f"/>
  <path id="패스_121" data-name="패스 121" d="M74.113,178.285a5.094,5.094,0,1,0,5.094,5.094A5.1,5.1,0,0,0,74.113,178.285Zm0,8.239a3.145,3.145,0,1,1,3.145-3.145A3.149,3.149,0,0,1,74.113,186.524Z" transform="translate(13.387 -106.965)" fill="#f0a30f"/>
  <path id="패스_122" data-name="패스 122" d="M92.845,185.329a3.145,3.145,0,1,0-3.145-3.145A3.147,3.147,0,0,0,92.845,185.329Z" transform="translate(46.101 -105.77)" fill="#f0a30f"/>
  <path id="패스_123" data-name="패스 123" d="M94.109,188.473a5.094,5.094,0,1,0-5.094-5.094A5.092,5.092,0,0,0,94.109,188.473Zm-.181-8.239a3.145,3.145,0,1,1-3.145,3.145A3.149,3.149,0,0,1,93.928,180.234Z" transform="translate(45.018 -106.965)" fill="#f0a30f"/>
  <path id="패스_124" data-name="패스 124" d="M100.482,190.016a2.481,2.481,0,0,0-1.541-2.3,27.089,27.089,0,0,1-7.65-4.807c.018.139.034.248.041.294a2.486,2.486,0,0,1-2.037,2.853,2.531,2.531,0,0,1-.416.034c-.049,0-.093-.021-.139-.023a2.587,2.587,0,0,1-.346.005c-.018,0-.036,0-.054,0-.046,0-.09.023-.137.023a2.456,2.456,0,0,1-.387-.034c-.065-.005-.124.008-.186,0a2.479,2.479,0,0,1-2.06-2.442,2.636,2.636,0,0,1,.036-.423c.01-.057.031-.222.057-.434a27.068,27.068,0,0,1-7.818,4.957,2.48,2.48,0,0,0,0,4.59,26.954,26.954,0,0,1,6.692,3.968c.7-.62,1.386-1.278,2.045-1.98a2.477,2.477,0,0,1,3.622,0c.658.7,1.343,1.361,2.045,1.98a26.955,26.955,0,0,1,6.692-3.968A2.477,2.477,0,0,0,100.482,190.016Zm-12.088,3.008a32.373,32.373,0,0,0-4.139-3.008,32.383,32.383,0,0,0,4.139-3.008,31.932,31.932,0,0,0,4.136,3.008A32.164,32.164,0,0,0,88.394,193.024Z" transform="translate(24.91 -99.879)" fill="#f0a30f"/>
  <path id="패스_125" data-name="패스 125" d="M81.149,184.077c.046,0,.09-.021.137-.023a2.379,2.379,0,0,1-.524-.01A2.45,2.45,0,0,0,81.149,184.077Z" transform="translate(31.963 -97.856)" fill="#f0a30f"/>
  <path id="패스_126" data-name="패스 126" d="M83.6,183.618a2.479,2.479,0,0,1-2.06,2.442,2.246,2.246,0,0,1-.416.008c.046,0,.09.023.139.023a2.532,2.532,0,0,0,.416-.034,2.486,2.486,0,0,0,2.037-2.853c-.008-.046-.023-.155-.041-.294l-.163-.145c.026.24.049.413.052.429A2.368,2.368,0,0,1,83.6,183.618Z" transform="translate(32.529 -99.876)" fill="#f0a30f"/>
  <path id="패스_127" data-name="패스 127" d="M83.349,186.927a2.487,2.487,0,0,0-1.812.787c-.658.7-1.343,1.361-2.045,1.98a28.273,28.273,0,0,1,2.117,1.877,2.478,2.478,0,0,0,3.478,0,28.282,28.282,0,0,1,2.117-1.877c-.7-.62-1.386-1.278-2.045-1.98A2.481,2.481,0,0,0,83.349,186.927Z" transform="translate(29.955 -93.294)" fill="#f0a30f"/>
  <path id="패스_128" data-name="패스 128" d="M81.019,184.071a2.587,2.587,0,0,0,.346-.005c-.065-.005-.124-.026-.186-.034-.072.01-.139.034-.214.039C80.983,184.068,81,184.073,81.019,184.071Z" transform="translate(32.284 -97.874)" fill="#f0a30f"/>
  <path id="패스_129" data-name="패스 129" d="M79.892,183.713a2.479,2.479,0,0,0,2.06,2.443c.062.01.121,0,.186,0l-.036,0a2.481,2.481,0,0,1-2.024-2.866c.01-.072.041-.279.072-.584-.054.052-.111.1-.165.15-.026.212-.046.377-.057.434A2.633,2.633,0,0,0,79.892,183.713Z" transform="translate(30.587 -99.971)" fill="#f0a30f"/>
  <path id="패스_130" data-name="패스 130" d="M82.01,186.4l.036,0a2.382,2.382,0,0,0,.524.01c.075-.005.142-.028.214-.039a2.451,2.451,0,0,1-2.114-2,17.837,17.837,0,0,1-.16-1.828c-.147.139-.3.269-.452.4-.031.3-.062.511-.072.584A2.481,2.481,0,0,0,82.01,186.4Z" transform="translate(30.678 -100.218)" fill="#f0a30f"/>
  <path id="패스_131" data-name="패스 131" d="M81.048,186.22c.062.008.121.028.186.034a2.246,2.246,0,0,0,.416-.008,2.479,2.479,0,0,0,2.06-2.443,2.366,2.366,0,0,0-.036-.423c0-.015-.026-.189-.052-.429-.111-.1-.225-.2-.336-.3-.054.963-.142,1.534-.147,1.572A2.457,2.457,0,0,1,81.048,186.22Z" transform="translate(32.416 -100.062)" fill="#f0a30f"/>
  <path id="패스_132" data-name="패스 132" d="M80.541,182.857c-.121.119-.253.219-.374.336a17.849,17.849,0,0,0,.16,1.828,2.106,2.106,0,0,0,4.206,0c.005-.039.093-.609.147-1.572-.217-.2-.447-.382-.661-.591A2.478,2.478,0,0,0,80.541,182.857Z" transform="translate(31.022 -100.86)" fill="#f0a30f"/>
  <path id="패스_133" data-name="패스 133" d="M103.875,218.767h-26.3a2.481,2.481,0,0,0,0,4.962h26.3a2.481,2.481,0,0,0,0-4.962Z" transform="translate(22.996 -42.929)" fill="#f0a30f"/>
  <path id="패스_134" data-name="패스 134" d="M74.992,206.611v-7.557a2.48,2.48,0,1,0-4.96,0v7.557a2.48,2.48,0,1,0,4.96,0Z" transform="translate(14.99 -78.036)" fill="#f0a30f"/>
  <path id="패스_135" data-name="패스 135" d="M92.508,196.573a2.482,2.482,0,0,0-2.481,2.481v7.557a2.481,2.481,0,1,0,4.962,0v-7.557A2.484,2.484,0,0,0,92.508,196.573Z" transform="translate(46.619 -78.036)" fill="#f0a30f"/>
  <path id="패스_136" data-name="패스 136" d="M85.843,209.092a2.48,2.48,0,0,0,2.479-2.481v-7.557a2.48,2.48,0,1,0-4.96,0v7.557A2.48,2.48,0,0,0,85.843,209.092Z" transform="translate(36.076 -78.036)" fill="#f0a30f"/>
  <path id="패스_137" data-name="패스 137" d="M79.176,209.092a2.48,2.48,0,0,0,2.481-2.481v-7.557a2.48,2.48,0,1,0-4.96,0v7.557A2.48,2.48,0,0,0,79.176,209.092Z" transform="translate(25.533 -78.036)" fill="#f0a30f"/>
  <path id="패스_138" data-name="패스 138" d="M83.362,219.953a2.48,2.48,0,1,0,4.96,0v-7.559a2.48,2.48,0,0,0-4.96,0Z" transform="translate(36.076 -56.931)" fill="#f0a30f"/>
  <path id="패스_139" data-name="패스 139" d="M76.7,219.953a2.48,2.48,0,1,0,4.96,0v-7.559a2.48,2.48,0,0,0-4.96,0Z" transform="translate(25.533 -56.931)" fill="#f0a30f"/>
  <path id="패스_140" data-name="패스 140" d="M89.171,203.441a2.48,2.48,0,0,0-2.481,2.481v7.56a2.481,2.481,0,1,0,4.962,0v-7.56A2.482,2.482,0,0,0,89.171,203.441Z" transform="translate(41.341 -67.172)" fill="#f0a30f"/>
  <path id="패스_141" data-name="패스 141" d="M84.985,213.482v-7.56a2.48,2.48,0,1,0-4.96,0v7.56a2.48,2.48,0,1,0,4.96,0Z" transform="translate(30.798 -67.172)" fill="#f0a30f"/>
  <path id="패스_142" data-name="패스 142" d="M78.322,205.922a2.481,2.481,0,0,0-4.962,0v7.56a2.481,2.481,0,1,0,4.962,0Z" transform="translate(20.255 -67.172)" fill="#f0a30f"/>
</svg>
