<svg xmlns="http://www.w3.org/2000/svg" width="20" height="20" viewBox="0 0 20 20">
  <g id="구성_요소_23_13" data-name="구성 요소 23 – 13" transform="translate(1 1)">
    <path id="패스_40" data-name="패스 40" d="M7.5,3h9A4.5,4.5,0,0,1,21,7.5v9A4.5,4.5,0,0,1,16.5,21h-9A4.5,4.5,0,0,1,3,16.5v-9A4.5,4.5,0,0,1,7.5,3Z" transform="translate(-3 -3)" fill="none" stroke="#777" stroke-linecap="round" stroke-linejoin="round" stroke-width="2"/>
    <path id="패스_41" data-name="패스 41" d="M19.226,15.007a3.6,3.6,0,1,1-3.033-3.033,3.6,3.6,0,0,1,3.033,3.033Z" transform="translate(-6.626 -6.574)" fill="none" stroke="#777" stroke-linecap="round" stroke-linejoin="round" stroke-width="2"/>
    <path id="패스_42" data-name="패스 42" d="M26.25,9.75h0" transform="translate(-12.3 -5.7)" fill="none" stroke="#777" stroke-linecap="round" stroke-linejoin="round" stroke-width="2"/>
  </g>
</svg>
