<svg xmlns="http://www.w3.org/2000/svg" width="104.205" height="101.31"><g data-name="그룹 4361"><path data-name="패스 7543" d="M87.531 54.863a43.764 43.764 0 1 1-43.767-43.764 43.763 43.763 0 0 1 43.767 43.764" fill="#fef8ec"/><path data-name="패스 7544" d="m74.152 20.744-8.5 14.785-8.054 6.5a11.717 11.717 0 0 1-7.1 2.732h-3.366a11.725 11.725 0 0 1-7.1-2.732l-8.052-6.5-8.505-14.785c-3.277 2.139-4.96 5.506-2.636 9.993l4.535 11.594L37.03 56.547v43.767h23.565V56.548l11.657-14.217 4.535-11.594c2.323-4.487.64-7.854-2.636-9.993" fill="#fff"/><path data-name="패스 7545" d="M37.031 86.844c-6.139 0-15.149 1.564-15.149 8.977v4.489h30.3v-4.489c0-7.413-9.01-8.977-15.149-8.977" fill="#fff"/><path data-name="패스 7546" d="m99.401 54.408-8.505 14.785-8.054 6.5a11.717 11.717 0 0 1-7.1 2.732h-3.366c-5.27 0-11.782 1.693-11.782 9.722v12.16h25.248v-10.1L97.5 75.991l4.535-11.594c2.323-4.487.64-7.854-2.636-9.993" fill="#fff"/><path data-name="패스 7547" d="M37.031 59.914v-3.366L25.373 42.333 20.84 30.739c-2.325-4.489-.641-7.856 2.634-9.993l8.507 14.784 8.052 6.507a11.728 11.728 0 0 0 7.1 2.729h3.366a11.728 11.728 0 0 0 7.1-2.729l8.052-6.507 8.501-14.786c3.276 2.138 4.959 5.5 2.634 9.993l-4.534 11.594-11.658 14.215v18.515" fill="none" stroke="#f0a30f" stroke-linecap="round" stroke-width="2"/><path data-name="패스 7549" d="M48.811 21.199c4.048 0 6.733 3.23 6.733 7.214v2.405c0 3.982-2.685 7.213-6.733 7.213s-6.733-3.23-6.733-7.213v-2.405c.002-3.984 2.687-7.214 6.733-7.214Z" fill="#fff" stroke="#f0a30f" stroke-linecap="round" stroke-width="2"/><path data-name="패스 7550" d="M21.882 100.31v-4.489c0-7.413 9.01-8.977 15.149-8.977s15.149 1.564 15.149 8.977v4.489" fill="none" stroke="#f0a30f" stroke-linecap="round" stroke-width="2"/><g data-name="그룹 4354" fill="none" stroke="#f0a30f" stroke-linecap="round" stroke-width="2"><path data-name="선 27" d="M48.814 12.783V1"/><path data-name="선 28" d="m38.444 15.331-7.096-7.096"/><path data-name="선 29" d="m59.183 15.331 7.096-7.096"/></g><path data-name="패스 7551" d="M60.596 100.309V88.153c0-8.032 6.512-9.726 11.782-9.726h3.366a11.728 11.728 0 0 0 7.1-2.728l8.052-6.507 8.507-14.784c3.276 2.138 4.959 5.5 2.634 9.993l-4.533 11.594L85.846 90.21v10.1" fill="none" stroke="#f0a30f" stroke-linecap="round" stroke-width="2"/><path data-name="패스 7553" d="M37.029 64.962c4.048 0 6.733 3.23 6.733 7.214v2.405c0 3.982-2.685 7.213-6.733 7.213s-6.733-3.23-6.733-7.213v-2.405c.002-3.984 2.687-7.214 6.733-7.214Z" fill="#fff" stroke="#f0a30f" stroke-linecap="round" stroke-width="2"/><path data-name="패스 7555" d="M74.06 54.863c4.048 0 6.733 3.23 6.733 7.214v2.405c0 3.982-2.685 7.213-6.733 7.213s-6.733-3.23-6.733-7.213v-2.405c.002-3.984 2.687-7.214 6.733-7.214Z" fill="#fff" stroke="#f0a30f" stroke-linecap="round" stroke-width="2"/></g></svg>