<svg xmlns="http://www.w3.org/2000/svg" width="103.502" height="101.811"><g data-name="그룹 4359" transform="translate(1.272 1.362)"><path data-name="패스 7601" d="M101.783 62.971A37.031 37.031 0 1 1 64.752 25.94a37.031 37.031 0 0 1 37.031 37.031" fill="#fef8ec"/><path data-name="패스 7602" d="M100.244 91.729 74.338 65.824l-6.942 6.526 26.115 26.113a3.366 3.366 0 0 0 4.76 0l1.973-1.973a3.366 3.366 0 0 0 0-4.76" fill="#fff"/><path data-name="패스 7603" d="m74.338 65.824 25.906 25.905a3.368 3.368 0 0 1 0 4.762l-1.971 1.971a3.368 3.368 0 0 1-4.762 0L67.398 72.35" fill="none" stroke="#f0a30f" stroke-width="2"/><path data-name="패스 7604" d="M83.27 41.089A38.714 38.714 0 1 1 44.553 2.375 38.715 38.715 0 0 1 83.27 41.089" fill="#fff"/><circle data-name="타원 274" cx="38.714" cy="38.714" r="38.714" transform="translate(5.839 2.375)" fill="none" stroke="#f0a30f" stroke-linecap="round" stroke-linejoin="round" stroke-width="2"/><path data-name="패스 7605" d="M58.07 42.956a14.887 14.887 0 0 1 6.688-1.867h0c4.535 0 10.093 3.319 10.093 5.236v3.18" fill="none" stroke="#f0a30f" stroke-linecap="round" stroke-linejoin="round" stroke-width="2"/><path data-name="패스 7607" d="M64.75 41.089c4.048 0 6.733-3.23 6.733-7.213v-2.405c0-3.984-2.685-7.214-6.733-7.214s-6.733 3.23-6.733 7.214v2.405c.002 3.981 2.687 7.213 6.733 7.213Z" fill="#fff" stroke="#f0a30f" stroke-width="2"/><path data-name="패스 7608" d="M31.038 42.956a14.887 14.887 0 0 0-6.689-1.867h0c-4.535 0-10.093 3.319-10.093 5.236v3.18" fill="none" stroke="#f0a30f" stroke-linecap="round" stroke-linejoin="round" stroke-width="2"/><path data-name="패스 7610" d="M24.353 41.089c-4.048 0-6.733-3.23-6.733-7.213v-2.405c0-3.984 2.685-7.214 6.733-7.214s6.733 3.23 6.733 7.214v2.405c.002 3.981-2.683 7.213-6.733 7.213Z" fill="#fff" stroke="#f0a30f" stroke-width="2"/><path data-name="패스 7611" d="M44.558 44.455c-5.292 0-11.777 3.733-11.777 5.891v11.783c0 2.158 6.485 5.891 11.777 5.891s11.777-3.733 11.777-5.891V50.346c0-2.158-6.485-5.891-11.777-5.891" fill="#fef8ec"/><path data-name="패스 7612" d="M56.336 61.287V50.346c0-2.158-6.485-5.891-11.777-5.891h0c-5.292 0-11.777 3.733-11.777 5.891v10.941" fill="none" stroke="#f0a30f" stroke-linecap="round" stroke-linejoin="round" stroke-width="2"/><path data-name="패스 7614" d="M44.551 44.455c4.048 0 6.733-3.23 6.733-7.213v-2.405c0-3.984-2.685-7.214-6.733-7.214s-6.733 3.23-6.733 7.214v2.405c.002 3.981 2.687 7.213 6.733 7.213Z" fill="#fff" stroke="#f0a30f" stroke-width="2"/><path data-name="패스 7615" d="M67.657 0a47.2 47.2 0 0 1 23.089 31.685" fill="none" stroke="#f0a30f" stroke-linecap="round" stroke-width="2"/><path data-name="패스 7616" d="M27.729 85.127A47.263 47.263 0 0 1 0 56.497" fill="none" stroke="#f0a30f" stroke-linecap="round" stroke-width="2"/></g></svg>