<svg xmlns="http://www.w3.org/2000/svg" width="101.472" height="96.072" viewBox="0 0 101.472 96.072">
  <g id="그룹_4363" data-name="그룹 4363" transform="translate(1.186 1.313)">
    <path id="패스_7696" data-name="패스 7696" d="M207,152.764A43.764,43.764,0,1,1,163.233,109,43.763,43.763,0,0,1,207,152.764" transform="translate(-106.71 -106.441)" fill="#fef8ec"/>
    <path id="패스_7698" data-name="패스 7698" d="M143.218,110.72l-29.476,12.616,9.705,7.5-1.316,12.094,29.478-12.616" transform="translate(-110.623 -105.266)" fill="#fff" stroke="#f0a30f" stroke-linecap="round" stroke-linejoin="round" stroke-width="2"/>
    <path id="패스_7699" data-name="패스 7699" d="M181.046,155.945c-.825-3.85-3.075-6.945-9.828-6.945H145.969s1.31,8.416,8.416,8.416H164.6l5.5,15.149h15.725Z" transform="translate(-88.605 -79.113)" fill="#fff"/>
    <path id="패스_7700" data-name="패스 7700" d="M167.516,137.2l-12.68,11.449-12.792,2.131c-4.127.774-6.8,2.641-7.718,6.248l-11.471,2.281c-4.265.8-6.985,2.749-7.81,6.6l-3.156,14.723H148.44l4.238-21.2,5.242-1.6,9.147-9.051c4.654-4.4.449-11.582.449-11.582" transform="translate(-111.889 -87.176)" fill="#fff"/>
    <path id="패스_7701" data-name="패스 7701" d="M122.2,180.628l4.982-23.252c.825-3.848,3.547-5.8,7.81-6.6l12.792-2.131,12.68-11.449s4.206,7.186-.449,11.582l-9.147,9.052-13.982,4.274" transform="translate(-104.842 -87.176)" fill="none" stroke="#f0a30f" stroke-linecap="round" stroke-linejoin="round" stroke-width="2"/>
    <line id="선_76" data-name="선 76" y1="21.195" x2="4.238" transform="translate(36.55 72.257)" fill="none" stroke="#f0a30f" stroke-linecap="round" stroke-linejoin="round" stroke-width="2"/>
    <path id="패스_7702" data-name="패스 7702" d="M185.823,172.565l-4.779-16.62c-.823-3.848-3.075-6.945-9.827-6.945H145.969s1.31,8.416,8.416,8.416h16.832" transform="translate(-88.605 -79.113)" fill="none" stroke="#f0a30f" stroke-linecap="round" stroke-linejoin="round" stroke-width="2"/>
    <line id="선_77" data-name="선 77" x1="5.501" y1="15.149" transform="translate(75.994 78.303)" fill="none" stroke="#f0a30f" stroke-linecap="round" stroke-linejoin="round" stroke-width="2"/>
    <path id="패스_7703" data-name="패스 7703" d="M111.89,172.58l3.154-14.723c.825-3.848,3.547-5.8,7.81-6.6l11.463-2.281" transform="translate(-111.888 -79.128)" fill="none" stroke="#f0a30f" stroke-linecap="round" stroke-linejoin="round" stroke-width="2"/>
    <line id="선_78" data-name="선 78" x1="22.56" y1="52.585" transform="translate(30.238)" fill="none" stroke="#f0a30f" stroke-linecap="round" stroke-linejoin="round" stroke-width="2"/>
    <line id="선_79" data-name="선 79" x1="3.855" y1="9.332" transform="translate(56.091 60.556)" fill="none" stroke="#f0a30f" stroke-linecap="round" stroke-linejoin="round" stroke-width="2"/>
    <line id="선_80" data-name="선 80" x1="6.423" y1="15.551" transform="translate(63.255 77.901)" fill="none" stroke="#f0a30f" stroke-linecap="round" stroke-linejoin="round" stroke-width="2"/>
    <circle id="타원_275" data-name="타원 275" cx="7.574" cy="7.574" r="7.574" transform="translate(71.671 49.689)" fill="#fff" stroke="#f0a30f" stroke-linecap="round" stroke-linejoin="round" stroke-width="2"/>
    <circle id="타원_276" data-name="타원 276" cx="7.574" cy="7.574" r="7.574" transform="translate(24.541 42.956)" fill="#fff" stroke="#f0a30f" stroke-linecap="round" stroke-linejoin="round" stroke-width="2"/>
    <circle id="타원_277" data-name="타원 277" cx="7.574" cy="7.574" r="7.574" transform="translate(2.659 51.372)" fill="#fff" stroke="#f0a30f" stroke-linecap="round" stroke-linejoin="round" stroke-width="2"/>
  </g>
</svg>
