<svg xmlns="http://www.w3.org/2000/svg" width="97.627" height="107.042"><g data-name="그룹 4358"><path data-name="패스 7556" d="M97.631 58.229A48.813 48.813 0 1 1 48.813 9.416a48.814 48.814 0 0 1 48.818 48.813" fill="#fef8ec"/><path data-name="패스 7557" d="M48.813 71.695c-6.3 0-18.515 3.439-18.515 10.1v18.515h37.031V81.795c0-6.66-12.212-10.1-18.515-10.1" fill="#fff"/><path data-name="패스 7558" d="M67.329 100.31V81.795c0-6.66-12.212-10.1-18.515-10.1s-18.515 3.439-18.515 10.1v18.515" fill="none" stroke="#f0a30f" stroke-linecap="round" stroke-linejoin="round" stroke-width="2"/><path data-name="패스 7559" d="M85.883 80.111h-4.641a5.05 5.05 0 0 0-3.572 1.48l-10.3 10.3H55.585s-.966 8.416 6.733 8.416h11.783l3.328-3.328v8.377h15.188V86.844a6.733 6.733 0 0 0-6.734-6.733" fill="#fff"/><path data-name="패스 7560" d="M11.781 80.111h4.641a5.05 5.05 0 0 1 3.572 1.48l10.3 10.3h11.787s.966 8.416-6.733 8.416H23.565l-3.328-3.328v8.377H5.05V86.844a6.733 6.733 0 0 1 6.731-6.733" fill="#fff"/><path data-name="선 36" fill="none" stroke="#f0a30f" stroke-linecap="round" stroke-width="2" d="M58.913 91.894v-8.416"/><path data-name="선 37" fill="none" stroke="#f0a30f" stroke-linecap="round" stroke-width="2" d="M38.714 83.478v8.416"/><path data-name="패스 7562" d="M48.813 66.647a8.505 8.505 0 0 0 8.416-8.657v-2.885a8.419 8.419 0 1 0-16.832 0v2.885a8.505 8.505 0 0 0 8.416 8.657Z" fill="#fff" stroke="#f0a30f" stroke-linecap="round" stroke-width="2"/><path data-name="패스 7563" d="M5.05 105.359V86.844a6.733 6.733 0 0 1 6.731-6.733h4.641a5.05 5.05 0 0 1 3.572 1.48l10.3 10.3h11.787s.966 8.416-6.733 8.416H23.565l-10.1-10.1" fill="none" stroke="#f0a30f" stroke-linecap="round" stroke-width="2"/><path data-name="패스 7564" d="M92.616 105.359V86.844a6.733 6.733 0 0 0-6.733-6.733h-4.641a5.05 5.05 0 0 0-3.572 1.48l-10.3 10.3H55.585s-.966 8.416 6.733 8.416h11.783l10.1-10.1" fill="none" stroke="#f0a30f" stroke-linecap="round" stroke-width="2"/><path data-name="선 38" fill="none" stroke="#f0a30f" stroke-linecap="round" stroke-width="2" d="M20.199 96.943v8.416"/><path data-name="선 39" fill="none" stroke="#f0a30f" stroke-linecap="round" stroke-width="2" d="M77.428 96.943v8.416"/><path data-name="선 40" fill="none" stroke="#f0a30f" stroke-linecap="round" stroke-width="2" d="M20.199 100.31h57.229"/><path data-name="패스 7566" d="M15.149 75.063a8.505 8.505 0 0 0 8.416-8.657v-2.885a8.419 8.419 0 1 0-16.832 0v2.885a8.505 8.505 0 0 0 8.416 8.657Z" fill="#fff" stroke="#f0a30f" stroke-linecap="round" stroke-width="2"/><path data-name="패스 7568" d="M82.478 75.063a8.505 8.505 0 0 0 8.416-8.657v-2.885a8.419 8.419 0 1 0-16.832 0v2.885a8.505 8.505 0 0 0 8.416 8.657Z" fill="#fff" stroke="#f0a30f" stroke-linecap="round" stroke-width="2"/><path data-name="패스 7569" d="M20.199 1h55.546a5.049 5.049 0 0 1 5.05 5.05v28.615a5.049 5.049 0 0 1-5.05 5.05H38.714l-8.916 11.592c-1.261 1.683-4.55.828-4.55-1.493v-10.1h-5.05a5.049 5.049 0 0 1-5.05-5.05V6.05A5.049 5.049 0 0 1 20.198 1" fill="#fff"/><path data-name="패스 7570" d="M20.199 1h55.546a5.049 5.049 0 0 1 5.05 5.05v28.615a5.049 5.049 0 0 1-5.05 5.05H38.714l-8.916 11.592c-1.261 1.683-4.55.828-4.55-1.493v-10.1h-5.05a5.049 5.049 0 0 1-5.05-5.05V6.05A5.049 5.049 0 0 1 20.199 1Z" fill="none" stroke="#f0a30f" stroke-linecap="round" stroke-width="2"/><path data-name="선 41" fill="none" stroke="#f0a30f" stroke-linecap="round" stroke-width="2" d="M33.665 12.783h30.298"/><path data-name="선 42" fill="none" stroke="#f0a30f" stroke-linecap="round" stroke-width="2" d="M33.665 19.515h30.298"/><path data-name="선 43" fill="none" stroke="#f0a30f" stroke-linecap="round" stroke-width="2" d="M33.665 26.248h15.149"/></g></svg>