<svg xmlns="http://www.w3.org/2000/svg" width="96.27" height="105.359"><g data-name="그룹 4362"><path data-name="패스 7657" d="M91.897 53.18A43.764 43.764 0 1 1 48.13 9.416 43.763 43.763 0 0 1 91.897 53.18" fill="#fef8ec"/><path data-name="패스 7658" d="M48.135 22.882c-6.053 0-13.471 4.267-13.471 6.733v5.05c0 2.466 7.418 6.733 13.471 6.733s13.471-4.267 13.471-6.733v-5.05c0-2.466-7.418-6.733-13.471-6.733" fill="#fff"/><path data-name="패스 7659" d="M61.606 34.664v-5.05c0-2.466-7.418-6.733-13.469-6.733h0c-6.056 0-13.472 4.267-13.472 6.733v5.05" fill="none" stroke="#f0a30f" stroke-linecap="round" stroke-linejoin="round" stroke-width="2"/><path data-name="패스 7661" d="M48.13 22.882c5.06 0 8.416-4.2 8.416-9.377v-3.127c0-5.179-3.355-9.377-8.416-9.377s-8.416 4.2-8.416 9.377V13.5c0 5.184 3.356 9.382 8.416 9.382Z" fill="#fff" stroke="#f0a30f" stroke-width="2"/><path data-name="패스 7663" d="M48.13 86.844c5.06 0 8.416-4.2 8.416-9.377V74.34c0-5.179-3.355-9.377-8.416-9.377s-8.416 4.2-8.416 9.377v3.122c0 5.184 3.356 9.382 8.416 9.382Z" fill="#fff" stroke="#f0a30f" stroke-width="2"/><path data-name="패스 7665" d="M81.794 86.844c5.06 0 8.416-4.2 8.416-9.377V74.34c0-5.179-3.355-9.377-8.416-9.377s-8.416 4.2-8.416 9.377v3.122c0 5.184 3.356 9.382 8.416 9.382Z" fill="#fff" stroke="#f0a30f" stroke-width="2"/><path data-name="패스 7667" d="M14.466 86.844c5.06 0 8.416-4.2 8.416-9.377V74.34c0-5.179-3.355-9.377-8.416-9.377s-8.416 4.2-8.416 9.377v3.122c0 5.184 3.356 9.382 8.416 9.382Z" fill="#fff" stroke="#f0a30f" stroke-width="2"/><path data-name="선 69" fill="none" stroke="#f0a30f" stroke-linecap="round" stroke-width="2" d="M48.13 44.764V58.23"/><path data-name="패스 7668" d="M14.466 58.23v-3.366a3.366 3.366 0 0 1 3.366-3.367h60.6a3.365 3.365 0 0 1 3.366 3.366v3.366" fill="none" stroke="#f0a30f" stroke-linecap="round" stroke-width="2"/><path data-name="패스 7669" d="M14.471 86.844C8.418 86.844 1 91.111 1 93.577v5.05c0 2.466 7.418 6.733 13.471 6.733s13.471-4.267 13.471-6.733v-5.05c0-2.466-7.418-6.733-13.471-6.733" fill="#fff"/><path data-name="패스 7670" d="M27.942 98.627v-5.05c0-2.466-7.418-6.733-13.469-6.733h0c-6.056 0-13.472 4.267-13.472 6.733v5.05" fill="none" stroke="#f0a30f" stroke-linecap="round" stroke-linejoin="round" stroke-width="2"/><path data-name="패스 7671" d="M48.135 86.844c-6.053 0-13.471 4.267-13.471 6.733v5.05c0 2.466 7.418 6.733 13.471 6.733s13.471-4.267 13.471-6.733v-5.05c0-2.466-7.418-6.733-13.471-6.733" fill="#fff"/><path data-name="패스 7672" d="M61.606 98.627v-5.05c0-2.466-7.418-6.733-13.469-6.733h0c-6.056 0-13.472 4.267-13.472 6.733v5.05" fill="none" stroke="#f0a30f" stroke-linecap="round" stroke-linejoin="round" stroke-width="2"/><path data-name="패스 7673" d="M81.8 86.844c-6.053 0-13.471 4.267-13.471 6.733v5.05c0 2.466 7.418 6.733 13.471 6.733s13.471-4.267 13.471-6.733v-5.05c0-2.466-7.418-6.733-13.471-6.733" fill="#fff"/><path data-name="패스 7674" d="M95.271 98.627v-5.05c0-2.466-7.418-6.733-13.469-6.733h0c-6.056 0-13.472 4.267-13.472 6.733v5.05" fill="none" stroke="#f0a30f" stroke-linecap="round" stroke-linejoin="round" stroke-width="2"/></g></svg>