<svg xmlns="http://www.w3.org/2000/svg" width="101.472" height="96.072"><g data-name="그룹 4363" transform="translate(1.186 1.313)"><path data-name="패스 7696" d="M100.29 46.323A43.764 43.764 0 1 1 56.523 2.559a43.763 43.763 0 0 1 43.767 43.764" fill="#fef8ec"/><path data-name="패스 7698" d="M32.595 5.454 3.119 18.07l9.705 7.5-1.316 12.094 29.478-12.616" fill="#fff" stroke="#f0a30f" stroke-linecap="round" stroke-linejoin="round" stroke-width="2"/><path data-name="패스 7699" d="M92.441 76.832c-.825-3.85-3.075-6.945-9.828-6.945H57.364s1.31 8.416 8.416 8.416h10.215l5.5 15.149H97.22Z" fill="#fff"/><path data-name="패스 7700" d="m55.627 50.024-12.68 11.449-12.792 2.131c-4.127.774-6.8 2.641-7.718 6.248l-11.471 2.281c-4.265.8-6.985 2.749-7.81 6.6L0 93.456h36.551l4.238-21.2 5.242-1.6 9.147-9.051c4.654-4.4.449-11.582.449-11.582" fill="#fff"/><path data-name="패스 7701" d="M17.358 93.452 22.34 70.2c.825-3.848 3.547-5.8 7.81-6.6l12.792-2.131 12.68-11.449s4.206 7.186-.449 11.582l-9.147 9.052-13.982 4.274" fill="none" stroke="#f0a30f" stroke-linecap="round" stroke-linejoin="round" stroke-width="2"/><path data-name="선 76" fill="none" stroke="#f0a30f" stroke-linecap="round" stroke-linejoin="round" stroke-width="2" d="m36.55 93.452 4.238-21.195"/><path data-name="패스 7702" d="m97.218 93.452-4.779-16.62c-.823-3.848-3.075-6.945-9.827-6.945H57.364s1.31 8.416 8.416 8.416h16.832" fill="none" stroke="#f0a30f" stroke-linecap="round" stroke-linejoin="round" stroke-width="2"/><path data-name="선 77" fill="none" stroke="#f0a30f" stroke-linecap="round" stroke-linejoin="round" stroke-width="2" d="m81.495 93.452-5.501-15.149"/><path data-name="패스 7703" d="m.002 93.452 3.154-14.723c.825-3.848 3.547-5.8 7.81-6.6l11.463-2.281" fill="none" stroke="#f0a30f" stroke-linecap="round" stroke-linejoin="round" stroke-width="2"/><path data-name="선 78" fill="none" stroke="#f0a30f" stroke-linecap="round" stroke-linejoin="round" stroke-width="2" d="M52.798 52.585 30.238 0"/><path data-name="선 79" fill="none" stroke="#f0a30f" stroke-linecap="round" stroke-linejoin="round" stroke-width="2" d="m59.946 69.888-3.855-9.332"/><path data-name="선 80" fill="none" stroke="#f0a30f" stroke-linecap="round" stroke-linejoin="round" stroke-width="2" d="m69.678 93.452-6.423-15.551"/><circle data-name="타원 275" cx="7.574" cy="7.574" r="7.574" transform="translate(71.671 49.689)" fill="#fff" stroke="#f0a30f" stroke-linecap="round" stroke-linejoin="round" stroke-width="2"/><circle data-name="타원 276" cx="7.574" cy="7.574" r="7.574" transform="translate(24.541 42.956)" fill="#fff" stroke="#f0a30f" stroke-linecap="round" stroke-linejoin="round" stroke-width="2"/><circle data-name="타원 277" cx="7.574" cy="7.574" r="7.574" transform="translate(2.659 51.372)" fill="#fff" stroke="#f0a30f" stroke-linecap="round" stroke-linejoin="round" stroke-width="2"/></g></svg>