<svg xmlns="http://www.w3.org/2000/svg" width="97.627" height="107.042" viewBox="0 0 97.627 107.042">
  <g id="그룹_4358" data-name="그룹 4358" transform="translate(0 1)">
    <path id="패스_7556" data-name="패스 7556" d="M429.1,262.813A48.813,48.813,0,1,1,380.282,214,48.814,48.814,0,0,1,429.1,262.813" transform="translate(-331.469 -205.584)" fill="#fef8ec"/>
    <path id="패스_7557" data-name="패스 7557" d="M367.984,251c-6.3,0-18.515,3.439-18.515,10.1v18.515H386.5V261.1c0-6.66-12.212-10.1-18.515-10.1" transform="translate(-319.171 -180.305)" fill="#fff"/>
    <path id="패스_7558" data-name="패스 7558" d="M386.5,279.615V261.1c0-6.66-12.212-10.1-18.515-10.1s-18.515,3.439-18.515,10.1v18.515" transform="translate(-319.171 -180.305)" fill="none" stroke="#f0a30f" stroke-linecap="round" stroke-linejoin="round" stroke-width="2"/>
    <path id="패스_7559" data-name="패스 7559" d="M394.806,256h-4.641a5.05,5.05,0,0,0-3.572,1.48l-10.3,10.3H364.508s-.966,8.416,6.733,8.416h11.783l3.328-3.328v8.377h15.188V262.733A6.733,6.733,0,0,0,394.806,256" transform="translate(-308.923 -176.889)" fill="#fff"/>
    <path id="패스_7560" data-name="패스 7560" d="M341.2,256h4.641a5.05,5.05,0,0,1,3.572,1.48l10.3,10.3H371.5s.966,8.416-6.733,8.416H352.984l-3.328-3.328v8.377H334.469V262.733A6.733,6.733,0,0,1,341.2,256" transform="translate(-329.419 -176.889)" fill="#fff"/>
    <line id="선_36" data-name="선 36" y1="8.416" transform="translate(58.913 82.478)" fill="none" stroke="#f0a30f" stroke-linecap="round" stroke-width="2"/>
    <line id="선_37" data-name="선 37" y2="8.416" transform="translate(38.714 82.478)" fill="none" stroke="#f0a30f" stroke-linecap="round" stroke-width="2"/>
    <path id="패스_7562" data-name="패스 7562" d="M363.885,256.2a8.505,8.505,0,0,0,8.416-8.657v-2.885a8.419,8.419,0,1,0-16.832,0v2.885A8.505,8.505,0,0,0,363.885,256.2Z" transform="translate(-315.072 -190.553)" fill="#fff" stroke="#f0a30f" stroke-linecap="round" stroke-width="2"/>
    <path id="패스_7563" data-name="패스 7563" d="M334.469,281.248V262.733A6.733,6.733,0,0,1,341.2,256h4.641a5.05,5.05,0,0,1,3.572,1.48l10.3,10.3H371.5s.966,8.416-6.733,8.416H352.984l-10.1-10.1" transform="translate(-329.419 -176.889)" fill="none" stroke="#f0a30f" stroke-linecap="round" stroke-width="2"/>
    <path id="패스_7564" data-name="패스 7564" d="M401.539,281.248V262.733A6.733,6.733,0,0,0,394.806,256h-4.641a5.05,5.05,0,0,0-3.572,1.48l-10.3,10.3H364.508s-.966,8.416,6.733,8.416h11.783l10.1-10.1" transform="translate(-308.923 -176.889)" fill="none" stroke="#f0a30f" stroke-linecap="round" stroke-width="2"/>
    <line id="선_38" data-name="선 38" y2="8.416" transform="translate(20.199 95.943)" fill="none" stroke="#f0a30f" stroke-linecap="round" stroke-width="2"/>
    <line id="선_39" data-name="선 39" y2="8.416" transform="translate(77.428 95.943)" fill="none" stroke="#f0a30f" stroke-linecap="round" stroke-width="2"/>
    <line id="선_40" data-name="선 40" x2="57.229" transform="translate(20.199 99.31)" fill="none" stroke="#f0a30f" stroke-linecap="round" stroke-width="2"/>
    <path id="패스_7566" data-name="패스 7566" d="M343.885,261.2a8.505,8.505,0,0,0,8.416-8.657v-2.885a8.419,8.419,0,1,0-16.832,0v2.885A8.505,8.505,0,0,0,343.885,261.2Z" transform="translate(-328.736 -187.137)" fill="#fff" stroke="#f0a30f" stroke-linecap="round" stroke-width="2"/>
    <path id="패스_7568" data-name="패스 7568" d="M383.885,261.2a8.505,8.505,0,0,0,8.416-8.657v-2.885a8.419,8.419,0,1,0-16.832,0v2.885A8.505,8.505,0,0,0,383.885,261.2Z" transform="translate(-301.407 -187.137)" fill="#fff" stroke="#f0a30f" stroke-linecap="round" stroke-width="2"/>
    <path id="패스_7569" data-name="패스 7569" d="M345.519,209h55.546a5.049,5.049,0,0,1,5.05,5.05v28.615a5.049,5.049,0,0,1-5.05,5.05H364.034l-8.916,11.592c-1.261,1.683-4.55.828-4.55-1.493v-10.1h-5.05a5.049,5.049,0,0,1-5.05-5.05V214.05a5.049,5.049,0,0,1,5.05-5.05" transform="translate(-325.32 -209)" fill="#fff"/>
    <path id="패스_7570" data-name="패스 7570" d="M345.519,209h55.546a5.049,5.049,0,0,1,5.05,5.05v28.615a5.049,5.049,0,0,1-5.05,5.05H364.034l-8.916,11.592c-1.261,1.683-4.55.828-4.55-1.493v-10.1h-5.05a5.049,5.049,0,0,1-5.05-5.05V214.05A5.049,5.049,0,0,1,345.519,209Z" transform="translate(-325.32 -209)" fill="none" stroke="#f0a30f" stroke-linecap="round" stroke-width="2"/>
    <line id="선_41" data-name="선 41" x2="30.298" transform="translate(33.665 11.783)" fill="none" stroke="#f0a30f" stroke-linecap="round" stroke-width="2"/>
    <line id="선_42" data-name="선 42" x2="30.298" transform="translate(33.665 18.515)" fill="none" stroke="#f0a30f" stroke-linecap="round" stroke-width="2"/>
    <line id="선_43" data-name="선 43" x2="15.149" transform="translate(33.665 25.248)" fill="none" stroke="#f0a30f" stroke-linecap="round" stroke-width="2"/>
  </g>
</svg>
