<svg xmlns="http://www.w3.org/2000/svg" width="96.27" height="105.359" viewBox="0 0 96.27 105.359">
  <g id="그룹_4362" data-name="그룹 4362" transform="translate(1 1)">
    <path id="패스_7657" data-name="패스 7657" d="M420,361.764A43.764,43.764,0,1,1,376.233,318,43.763,43.763,0,0,1,420,361.764" transform="translate(-329.103 -309.584)" fill="#fef8ec"/>
    <path id="패스_7658" data-name="패스 7658" d="M363.94,326c-6.053,0-13.471,4.267-13.471,6.733v5.05c0,2.466,7.418,6.733,13.471,6.733s13.471-4.267,13.471-6.733v-5.05c0-2.466-7.418-6.733-13.471-6.733" transform="translate(-316.805 -304.118)" fill="#fff"/>
    <path id="패스_7659" data-name="패스 7659" d="M377.411,337.782v-5.05c0-2.466-7.418-6.733-13.469-6.733h0c-6.056,0-13.472,4.267-13.472,6.733v5.05" transform="translate(-316.805 -304.118)" fill="none" stroke="#f0a30f" stroke-linecap="round" stroke-linejoin="round" stroke-width="2"/>
    <path id="패스_7661" data-name="패스 7661" d="M361.885,334.882c5.06,0,8.416-4.2,8.416-9.377v-3.127c0-5.179-3.355-9.377-8.416-9.377s-8.416,4.2-8.416,9.377V325.5C353.469,330.684,356.825,334.882,361.885,334.882Z" transform="translate(-314.755 -313)" fill="#fff" stroke="#f0a30f" stroke-width="2"/>
    <path id="패스_7663" data-name="패스 7663" d="M361.885,372.882c5.06,0,8.416-4.2,8.416-9.377v-3.127c0-5.179-3.355-9.377-8.416-9.377s-8.416,4.2-8.416,9.377V363.5C353.469,368.684,356.825,372.882,361.885,372.882Z" transform="translate(-314.755 -287.038)" fill="#fff" stroke="#f0a30f" stroke-width="2"/>
    <path id="패스_7665" data-name="패스 7665" d="M381.885,372.882c5.06,0,8.416-4.2,8.416-9.377v-3.127c0-5.179-3.355-9.377-8.416-9.377s-8.416,4.2-8.416,9.377V363.5C373.469,368.684,376.825,372.882,381.885,372.882Z" transform="translate(-301.091 -287.038)" fill="#fff" stroke="#f0a30f" stroke-width="2"/>
    <path id="패스_7667" data-name="패스 7667" d="M341.885,372.882c5.06,0,8.416-4.2,8.416-9.377v-3.127c0-5.179-3.355-9.377-8.416-9.377s-8.416,4.2-8.416,9.377V363.5C333.469,368.684,336.825,372.882,341.885,372.882Z" transform="translate(-328.419 -287.038)" fill="#fff" stroke="#f0a30f" stroke-width="2"/>
    <line id="선_69" data-name="선 69" y2="13.466" transform="translate(47.13 43.764)" fill="none" stroke="#f0a30f" stroke-linecap="round" stroke-width="2"/>
    <path id="패스_7668" data-name="패스 7668" d="M338.469,349.733v-3.366A3.366,3.366,0,0,1,341.835,343h60.6a3.365,3.365,0,0,1,3.366,3.366v3.366" transform="translate(-325.003 -292.503)" fill="none" stroke="#f0a30f" stroke-linecap="round" stroke-width="2"/>
    <path id="패스_7669" data-name="패스 7669" d="M343.94,364c-6.053,0-13.471,4.267-13.471,6.733v5.05c0,2.466,7.418,6.733,13.471,6.733s13.471-4.267,13.471-6.733v-5.05c0-2.466-7.418-6.733-13.471-6.733" transform="translate(-330.469 -278.156)" fill="#fff"/>
    <path id="패스_7670" data-name="패스 7670" d="M357.411,375.783v-5.05c0-2.466-7.418-6.733-13.469-6.733h0c-6.056,0-13.472,4.267-13.472,6.733v5.05" transform="translate(-330.469 -278.156)" fill="none" stroke="#f0a30f" stroke-linecap="round" stroke-linejoin="round" stroke-width="2"/>
    <path id="패스_7671" data-name="패스 7671" d="M363.94,364c-6.053,0-13.471,4.267-13.471,6.733v5.05c0,2.466,7.418,6.733,13.471,6.733s13.471-4.267,13.471-6.733v-5.05c0-2.466-7.418-6.733-13.471-6.733" transform="translate(-316.805 -278.156)" fill="#fff"/>
    <path id="패스_7672" data-name="패스 7672" d="M377.411,375.783v-5.05c0-2.466-7.418-6.733-13.469-6.733h0c-6.056,0-13.472,4.267-13.472,6.733v5.05" transform="translate(-316.805 -278.156)" fill="none" stroke="#f0a30f" stroke-linecap="round" stroke-linejoin="round" stroke-width="2"/>
    <path id="패스_7673" data-name="패스 7673" d="M383.94,364c-6.053,0-13.471,4.267-13.471,6.733v5.05c0,2.466,7.418,6.733,13.471,6.733s13.471-4.267,13.471-6.733v-5.05c0-2.466-7.418-6.733-13.471-6.733" transform="translate(-303.14 -278.156)" fill="#fff"/>
    <path id="패스_7674" data-name="패스 7674" d="M397.411,375.783v-5.05c0-2.466-7.418-6.733-13.469-6.733h0c-6.056,0-13.472,4.267-13.472,6.733v5.05" transform="translate(-303.14 -278.156)" fill="none" stroke="#f0a30f" stroke-linecap="round" stroke-linejoin="round" stroke-width="2"/>
  </g>
</svg>
