<svg xmlns="http://www.w3.org/2000/svg" width="98.278" height="99.695"><g data-name="그룹 4360"><path data-name="패스 7588" d="M95.181 49.848A45.447 45.447 0 1 1 49.734 4.401a45.446 45.446 0 0 1 45.447 45.447" fill="#fef8ec"/><path data-name="패스 7589" d="M78.67 54.337a16.233 16.233 0 0 0-1.419-4.3l2.18-6.285c.919-2.548 1.506-5.166 3-6.659l4.25-4.25-21.249-21.249-4.25 4.25a12.713 12.713 0 0 1-6.4 3.366l-7.408 2.328a16.912 16.912 0 0 0-2.016-.517c-3.139-.592-5.844-1.343-8.258-3.757l-4.253-4.253L11.596 34.26l4.253 4.253c2.08 2.08 2.426 6.326 4.333 9.542l-.924 6.531a12.831 12.831 0 0 1-3.412 6.59l-4.25 4.25 21.251 21.251 4.25-4.25c1.515-1.515 4.19-2.1 6.775-3.042l5.6-1.584.372.372c3.207 3.207 8.839 3.171 11.333 5.667l4.255 4.254 21.253-21.246-4.254-4.253c-2.414-2.415-3.164-5.119-3.757-8.258" fill="#fff"/><path data-name="패스 7590" d="M47.014 64.013 32.846 49.848a4.152 4.152 0 0 1 .116-5.784l2.718-2.715" fill="none" stroke="#f0a30f" stroke-linecap="round" stroke-linejoin="round" stroke-width="2"/><path data-name="패스 7591" d="M58.347 52.68 39.931 34.264a3.94 3.94 0 0 0-5.61-.059l-.029.029a4.043 4.043 0 0 0-.029 5.7l18.416 18.418" fill="none" stroke="#f0a30f" stroke-linecap="round" stroke-linejoin="round" stroke-width="2"/><path data-name="패스 7592" d="m65.431 88.097-4.253-4.253c-2.5-2.5-8.127-2.459-11.333-5.667l-17-17a4.15 4.15 0 0 1 .116-5.782l2.717-2.718" fill="none" stroke="#f0a30f" stroke-linecap="round" stroke-linejoin="round" stroke-width="2"/><path data-name="패스 7593" d="M65.431 48.431 49.848 32.847a3.871 3.871 0 0 0-5.551-.116l-2.949 2.949" fill="none" stroke="#f0a30f" stroke-linecap="round" stroke-linejoin="round" stroke-width="2"/><path data-name="패스 7594" d="m86.681 66.848-4.254-4.253c-2.414-2.414-3.166-5.12-3.757-8.258a15.712 15.712 0 0 0-4.743-8.743l-7.08-7.08a3.67 3.67 0 0 0-5.667 0l-2.833 2.833" fill="none" stroke="#f0a30f" stroke-linecap="round" stroke-linejoin="round" stroke-width="2"/><path data-name="사각형 5593" fill="#fff" stroke="#f0a30f" stroke-linecap="round" stroke-linejoin="round" stroke-width="2" d="m64.014 89.515 24.083-24.083 8.766 8.766L72.78 98.28z"/><path data-name="패스 7595" d="m11.597 34.264 4.253 4.258c2.5 2.5 2.461 8.127 5.667 11.333l5.662 5.664" fill="none" stroke="#f0a30f" stroke-linecap="round" stroke-linejoin="round" stroke-width="2"/><path data-name="패스 7596" d="m32.848 13.014 4.254 4.253c2.414 2.414 5.119 3.166 8.258 3.757a15.712 15.712 0 0 1 8.743 4.743l7.08 7.08" fill="none" stroke="#f0a30f" stroke-linecap="round" stroke-linejoin="round" stroke-width="2"/><path data-name="사각형 5595" fill="#fff" stroke="#f0a30f" stroke-linecap="round" stroke-linejoin="round" stroke-width="2" d="M1.414 26.915 25.497 2.832l8.766 8.766L10.18 35.68z"/><path data-name="패스 7597" d="m32.848 86.681 4.25-4.25c1.517-1.517 4.191-2.1 6.777-3.043" fill="none" stroke="#f0a30f" stroke-linecap="round" stroke-linejoin="round" stroke-width="2"/><path data-name="패스 7598" d="m11.597 65.431 4.25-4.25a12.837 12.837 0 0 0 3.412-6.59" fill="none" stroke="#f0a30f" stroke-linecap="round" stroke-linejoin="round" stroke-width="2"/><path data-name="사각형 5597" fill="#fff" stroke="#f0a30f" stroke-linecap="round" stroke-linejoin="round" stroke-width="2" d="m1.414 72.781 8.766-8.766 24.083 24.083-8.766 8.766z"/><path data-name="패스 7599" d="m86.681 32.847-4.25 4.25c-1.493 1.493-2.08 4.11-3 6.659" fill="none" stroke="#f0a30f" stroke-linecap="round" stroke-linejoin="round" stroke-width="2"/><path data-name="패스 7600" d="m65.431 11.598-4.25 4.25a12.706 12.706 0 0 1-6.4 3.366" fill="none" stroke="#f0a30f" stroke-linecap="round" stroke-linejoin="round" stroke-width="2"/><path data-name="사각형 5599" fill="#fff" stroke="#f0a30f" stroke-linecap="round" stroke-linejoin="round" stroke-width="1.9997" d="m64.014 10.18 8.765-8.765 24.08 24.08-8.765 8.765z"/></g></svg>