<svg xmlns="http://www.w3.org/2000/svg" width="104.205" height="101.31" viewBox="0 0 104.205 101.31">
  <g id="그룹_4361" data-name="그룹 4361" transform="translate(0 1)">
    <path id="패스_7543" data-name="패스 7543" d="M414,156.764A43.764,43.764,0,1,1,370.233,113,43.763,43.763,0,0,1,414,156.764" transform="translate(-326.469 -102.901)" fill="#fef8ec"/>
    <path id="패스_7544" data-name="패스 7544" d="M392.6,118.73,384.1,133.515l-8.054,6.5a11.717,11.717,0,0,1-7.1,2.732h-3.366a11.725,11.725,0,0,1-7.1-2.732l-8.052-6.5-8.505-14.785c-3.277,2.139-4.96,5.506-2.636,9.993l4.535,11.594,11.656,14.216V198.3h23.565V154.534L390.7,140.317l4.535-11.594c2.323-4.487.64-7.854-2.636-9.993" transform="translate(-318.448 -98.986)" fill="#fff"/>
    <path id="패스_7545" data-name="패스 7545" d="M354.618,158c-6.139,0-15.149,1.564-15.149,8.977v4.489h30.3v-4.489c0-7.413-9.01-8.977-15.149-8.977" transform="translate(-317.587 -72.156)" fill="#fff"/>
    <path id="패스_7546" data-name="패스 7546" d="M401.274,138.73l-8.505,14.785-8.054,6.5a11.717,11.717,0,0,1-7.1,2.732h-3.366c-5.27,0-11.782,1.693-11.782,9.722v12.16h25.248v-10.1l11.658-14.216,4.535-11.594c2.323-4.487.64-7.854-2.636-9.993" transform="translate(-301.873 -85.322)" fill="#fff"/>
    <path id="패스_7547" data-name="패스 7547" d="M355.479,157.9v-3.366l-11.658-14.215-4.533-11.594c-2.325-4.489-.641-7.856,2.634-9.993l8.507,14.784,8.052,6.507a11.728,11.728,0,0,0,7.1,2.729h3.366a11.728,11.728,0,0,0,7.1-2.729l8.052-6.507L392.6,118.73c3.276,2.138,4.959,5.5,2.634,9.993L390.7,140.317l-11.658,14.215v18.515" transform="translate(-318.448 -98.986)" fill="none" stroke="#f0a30f" stroke-linecap="round" stroke-width="2"/>
    <path id="패스_7549" data-name="패스 7549" d="M358.2,119c4.048,0,6.733,3.23,6.733,7.214v2.405c0,3.982-2.685,7.213-6.733,7.213s-6.733-3.23-6.733-7.213v-2.405C351.469,122.23,354.154,119,358.2,119Z" transform="translate(-309.389 -98.801)" fill="#fff" stroke="#f0a30f" stroke-linecap="round" stroke-width="2"/>
    <path id="패스_7550" data-name="패스 7550" d="M339.469,171.466v-4.489c0-7.413,9.01-8.977,15.149-8.977s15.149,1.564,15.149,8.977v4.489" transform="translate(-317.587 -72.156)" fill="none" stroke="#f0a30f" stroke-linecap="round" stroke-width="2"/>
    <g id="그룹_4354" data-name="그룹 4354" transform="translate(31.348)">
      <line id="선_27" data-name="선 27" y1="11.783" transform="translate(17.466)" fill="none" stroke="#f0a30f" stroke-linecap="round" stroke-width="2"/>
      <line id="선_28" data-name="선 28" x1="7.096" y1="7.096" transform="translate(0 7.235)" fill="none" stroke="#f0a30f" stroke-linecap="round" stroke-width="2"/>
      <line id="선_29" data-name="선 29" y1="7.096" x2="7.096" transform="translate(27.835 7.235)" fill="none" stroke="#f0a30f" stroke-linecap="round" stroke-width="2"/>
    </g>
    <path id="패스_7551" data-name="패스 7551" d="M362.469,184.631V172.475c0-8.032,6.512-9.726,11.782-9.726h3.366a11.728,11.728,0,0,0,7.1-2.728l8.052-6.507,8.507-14.784c3.276,2.138,4.959,5.5,2.634,9.993l-4.533,11.594-11.658,14.215v10.1" transform="translate(-301.873 -85.322)" fill="none" stroke="#f0a30f" stroke-linecap="round" stroke-width="2"/>
    <path id="패스_7553" data-name="패스 7553" d="M351.2,145c4.048,0,6.733,3.23,6.733,7.214v2.405c0,3.982-2.685,7.213-6.733,7.213s-6.733-3.23-6.733-7.213v-2.405C344.469,148.23,347.154,145,351.2,145Z" transform="translate(-314.171 -81.038)" fill="#fff" stroke="#f0a30f" stroke-linecap="round" stroke-width="2"/>
    <path id="패스_7555" data-name="패스 7555" d="M373.2,139c4.048,0,6.733,3.23,6.733,7.214v2.405c0,3.982-2.685,7.213-6.733,7.213s-6.733-3.23-6.733-7.213v-2.405C366.469,142.23,369.154,139,373.2,139Z" transform="translate(-299.14 -85.137)" fill="#fff" stroke="#f0a30f" stroke-linecap="round" stroke-width="2"/>
  </g>
</svg>
