<svg xmlns="http://www.w3.org/2000/svg" width="98.278" height="99.695" viewBox="0 0 98.278 99.695">
  <g id="그룹_4360" data-name="그룹 4360" transform="translate(1.414 1.414)">
    <path id="패스_7588" data-name="패스 7588" d="M204.363,258.447A45.447,45.447,0,1,1,158.916,213a45.446,45.446,0,0,1,45.447,45.447" transform="translate(-110.596 -210.013)" fill="#fef8ec"/>
    <path id="패스_7589" data-name="패스 7589" d="M184.885,260.015a16.233,16.233,0,0,0-1.419-4.3l2.18-6.285c.919-2.548,1.506-5.166,3-6.659l4.25-4.25-21.249-21.249-4.25,4.25a12.713,12.713,0,0,1-6.4,3.366l-7.408,2.328a16.912,16.912,0,0,0-2.016-.517c-3.139-.592-5.844-1.343-8.258-3.757l-4.253-4.253-21.251,21.249,4.253,4.253c2.08,2.08,2.426,6.326,4.333,9.542l-.924,6.531a12.831,12.831,0,0,1-3.412,6.59l-4.25,4.25,21.251,21.251,4.25-4.25c1.515-1.515,4.19-2.1,6.775-3.042l5.6-1.584.372.372c3.207,3.207,8.839,3.171,11.333,5.667l4.255,4.254L192.9,272.526l-4.254-4.253c-2.414-2.415-3.164-5.119-3.757-8.258" transform="translate(-107.629 -207.092)" fill="#fff"/>
    <path id="패스_7590" data-name="패스 7590" d="M145.057,257.615,130.889,243.45a4.152,4.152,0,0,1,.116-5.784l2.718-2.715" transform="translate(-99.457 -195.016)" fill="none" stroke="#f0a30f" stroke-linecap="round" stroke-linejoin="round" stroke-width="2"/>
    <path id="패스_7591" data-name="패스 7591" d="M155.832,249.646,137.416,231.23a3.94,3.94,0,0,0-5.61-.059l-.029.029a4.043,4.043,0,0,0-.029,5.7l18.416,18.418" transform="translate(-98.899 -198.38)" fill="none" stroke="#f0a30f" stroke-linecap="round" stroke-linejoin="round" stroke-width="2"/>
    <path id="패스_7592" data-name="패스 7592" d="M163.474,277.1l-4.253-4.253c-2.5-2.5-8.127-2.459-11.333-5.667l-17-17a4.15,4.15,0,0,1,.116-5.782l2.717-2.718" transform="translate(-99.457 -190.417)" fill="none" stroke="#f0a30f" stroke-linecap="round" stroke-linejoin="round" stroke-width="2"/>
    <path id="패스_7593" data-name="패스 7593" d="M159.57,245.984,143.987,230.4a3.871,3.871,0,0,0-5.551-.116l-2.949,2.949" transform="translate(-95.553 -198.967)" fill="none" stroke="#f0a30f" stroke-linecap="round" stroke-linejoin="round" stroke-width="2"/>
    <path id="패스_7594" data-name="패스 7594" d="M173.92,262.145l-4.254-4.253c-2.414-2.414-3.166-5.12-3.757-8.258a15.712,15.712,0,0,0-4.743-8.743l-7.08-7.08a3.67,3.67,0,0,0-5.667,0l-2.833,2.833" transform="translate(-88.653 -196.711)" fill="none" stroke="#f0a30f" stroke-linecap="round" stroke-linejoin="round" stroke-width="2"/>
    <rect id="사각형_5593" data-name="사각형 5593" width="34.059" height="12.397" transform="translate(62.6 88.101) rotate(-45)" fill="#fff" stroke="#f0a30f" stroke-linecap="round" stroke-linejoin="round" stroke-width="2"/>
    <path id="패스_7595" data-name="패스 7595" d="M117.812,230.742,122.065,235c2.5,2.5,2.461,8.127,5.667,11.333l5.662,5.664" transform="translate(-107.629 -197.892)" fill="none" stroke="#f0a30f" stroke-linecap="round" stroke-linejoin="round" stroke-width="2"/>
    <path id="패스_7596" data-name="패스 7596" d="M130.437,218.117l4.254,4.253c2.414,2.414,5.119,3.166,8.258,3.757a15.712,15.712,0,0,1,8.743,4.743l7.08,7.08" transform="translate(-99.003 -206.517)" fill="none" stroke="#f0a30f" stroke-linecap="round" stroke-linejoin="round" stroke-width="2"/>
    <rect id="사각형_5595" data-name="사각형 5595" width="34.059" height="12.397" transform="translate(0 25.501) rotate(-45)" fill="#fff" stroke="#f0a30f" stroke-linecap="round" stroke-linejoin="round" stroke-width="2"/>
    <path id="패스_7597" data-name="패스 7597" d="M130.437,264.843l4.25-4.25c1.517-1.517,4.191-2.1,6.777-3.043" transform="translate(-99.003 -179.576)" fill="none" stroke="#f0a30f" stroke-linecap="round" stroke-linejoin="round" stroke-width="2"/>
    <path id="패스_7598" data-name="패스 7598" d="M117.812,253.658l4.25-4.25a12.837,12.837,0,0,0,3.412-6.59" transform="translate(-107.629 -189.641)" fill="none" stroke="#f0a30f" stroke-linecap="round" stroke-linejoin="round" stroke-width="2"/>
    <rect id="사각형_5597" data-name="사각형 5597" width="12.397" height="34.059" transform="translate(0 71.367) rotate(-45)" fill="#fff" stroke="#f0a30f" stroke-linecap="round" stroke-linejoin="round" stroke-width="2"/>
    <path id="패스_7599" data-name="패스 7599" d="M165.362,229.9l-4.25,4.25c-1.493,1.493-2.08,4.11-3,6.659" transform="translate(-80.095 -198.467)" fill="none" stroke="#f0a30f" stroke-linecap="round" stroke-linejoin="round" stroke-width="2"/>
    <path id="패스_7600" data-name="패스 7600" d="M154.117,217.276l-4.25,4.25a12.706,12.706,0,0,1-6.4,3.366" transform="translate(-90.1 -207.092)" fill="none" stroke="#f0a30f" stroke-linecap="round" stroke-linejoin="round" stroke-width="2"/>
    <rect id="사각형_5599" data-name="사각형 5599" width="12.397" height="34.059" transform="matrix(0.707, -0.707, 0.707, 0.707, 62.6, 8.766)" fill="#fff" stroke="#f0a30f" stroke-linecap="round" stroke-linejoin="round" stroke-width="2"/>
  </g>
</svg>
