<svg xmlns="http://www.w3.org/2000/svg" width="103.502" height="101.811" viewBox="0 0 103.502 101.811">
  <g id="그룹_4359" data-name="그룹 4359" transform="translate(1.272 1.362)">
    <path id="패스_7601" data-name="패스 7601" d="M91.531,263.031A37.031,37.031,0,1,1,54.5,226a37.031,37.031,0,0,1,37.031,37.031" transform="translate(10.252 -200.06)" fill="#fef8ec"/>
    <path id="패스_7602" data-name="패스 7602" d="M73.888,275.6,47.982,249.695l-6.942,6.526,26.115,26.113a3.366,3.366,0,0,0,4.76,0l1.973-1.973a3.366,3.366,0,0,0,0-4.76" transform="translate(26.356 -183.871)" fill="#fff"/>
    <path id="패스_7603" data-name="패스 7603" d="M47.981,249.695,73.887,275.6a3.368,3.368,0,0,1,0,4.762l-1.971,1.971a3.368,3.368,0,0,1-4.762,0L41.041,256.221" transform="translate(26.357 -183.871)" fill="none" stroke="#f0a30f" stroke-width="2"/>
    <path id="패스_7604" data-name="패스 7604" d="M81.9,250.714A38.714,38.714,0,1,1,43.183,212,38.715,38.715,0,0,1,81.9,250.714" transform="translate(1.37 -209.625)" fill="#fff"/>
    <circle id="타원_274" data-name="타원 274" cx="38.714" cy="38.714" r="38.714" transform="translate(5.839 2.375)" fill="none" stroke="#f0a30f" stroke-linecap="round" stroke-linejoin="round" stroke-width="2"/>
    <path id="패스_7605" data-name="패스 7605" d="M35.5,236.867A14.887,14.887,0,0,1,42.188,235h0c4.535,0,10.093,3.319,10.093,5.236l0,3.18" transform="translate(22.57 -193.911)" fill="none" stroke="#f0a30f" stroke-linecap="round" stroke-linejoin="round" stroke-width="2"/>
    <path id="패스_7607" data-name="패스 7607" d="M42.2,241.832c4.048,0,6.733-3.23,6.733-7.213v-2.405c0-3.984-2.685-7.214-6.733-7.214s-6.733,3.23-6.733,7.214v2.405C35.469,238.6,38.154,241.832,42.2,241.832Z" transform="translate(22.55 -200.743)" fill="#fff" stroke="#f0a30f" stroke-width="2"/>
    <path id="패스_7608" data-name="패스 7608" d="M26.252,236.867A14.887,14.887,0,0,0,19.563,235h0c-4.535,0-10.093,3.319-10.093,5.236l0,3.18" transform="translate(4.786 -193.911)" fill="none" stroke="#f0a30f" stroke-linecap="round" stroke-linejoin="round" stroke-width="2"/>
    <path id="패스_7610" data-name="패스 7610" d="M18.2,241.832c-4.048,0-6.733-3.23-6.733-7.213v-2.405c0-3.984,2.685-7.214,6.733-7.214s6.733,3.23,6.733,7.214v2.405C24.935,238.6,22.25,241.832,18.2,241.832Z" transform="translate(6.153 -200.743)" fill="#fff" stroke="#f0a30f" stroke-width="2"/>
    <path id="패스_7611" data-name="패스 7611" d="M32.252,237c-5.292,0-11.777,3.733-11.777,5.891v11.783c0,2.158,6.485,5.891,11.777,5.891s11.777-3.733,11.777-5.891V242.891c0-2.158-6.485-5.891-11.777-5.891" transform="translate(12.306 -192.545)" fill="#fef8ec"/>
    <path id="패스_7612" data-name="패스 7612" d="M44.03,253.832V242.891c0-2.158-6.485-5.891-11.777-5.891h0c-5.292,0-11.777,3.733-11.777,5.891v10.941" transform="translate(12.306 -192.545)" fill="none" stroke="#f0a30f" stroke-linecap="round" stroke-linejoin="round" stroke-width="2"/>
    <path id="패스_7614" data-name="패스 7614" d="M30.2,243.832c4.048,0,6.733-3.23,6.733-7.213v-2.405c0-3.984-2.685-7.214-6.733-7.214s-6.733,3.23-6.733,7.214v2.405C23.469,240.6,26.154,243.832,30.2,243.832Z" transform="translate(14.351 -199.377)" fill="#fff" stroke="#f0a30f" stroke-width="2"/>
    <path id="패스_7615" data-name="패스 7615" d="M41.195,210.589a47.2,47.2,0,0,1,23.089,31.685" transform="translate(26.462 -210.589)" fill="none" stroke="#f0a30f" stroke-linecap="round" stroke-width="2"/>
    <path id="패스_7616" data-name="패스 7616" d="M28.729,272.784A47.263,47.263,0,0,1,1,244.154" transform="translate(-1 -187.657)" fill="none" stroke="#f0a30f" stroke-linecap="round" stroke-width="2"/>
  </g>
</svg>
