<svg xmlns="http://www.w3.org/2000/svg" width="12.569" height="12.568" viewBox="0 0 12.569 12.568">
  <path id="Icon_ionic-ios-call" data-name="Icon ionic-ios-call" d="M16.7,14.343a10.557,10.557,0,0,0-2.205-1.476c-.661-.317-.9-.311-1.371.026-.389.281-.641.543-1.09.445a6.5,6.5,0,0,1-2.189-1.62A6.453,6.453,0,0,1,8.221,9.53c-.095-.452.167-.7.445-1.09.337-.468.347-.71.026-1.371A10.348,10.348,0,0,0,7.217,4.865c-.481-.481-.589-.376-.854-.281A4.86,4.86,0,0,0,5.581,5a2.359,2.359,0,0,0-.939.991c-.187.4-.4,1.152.7,3.108a17.344,17.344,0,0,0,3.049,4.067h0l0,0,0,0h0a17.412,17.412,0,0,0,4.067,3.049c1.957,1.1,2.706.883,3.108.7a2.319,2.319,0,0,0,.991-.939,4.86,4.86,0,0,0,.416-.782C17.072,14.932,17.18,14.824,16.7,14.343Z" transform="translate(-4.49 -4.502)" fill="#fff"/>
</svg>
