<svg id="구성_요소_2_1" data-name="구성 요소 2 – 1" xmlns="http://www.w3.org/2000/svg" width="455.421" height="120.377" viewBox="0 0 455.421 120.377">
  <g id="그룹_2" data-name="그룹 2" transform="translate(-307.659 -492.623)">
    <path id="패스_143" data-name="패스 143" d="M351.329,787.46h-2.671a.55.55,0,0,0-.605.605v25.446c0,.443.2.605.605.605h2.671c.4,0,.645-.162.645-.605V801.98h2.751l11.207,12.137a.585.585,0,0,0,.848,0l2.063-1.536a.581.581,0,0,0,.245-.488,1.386,1.386,0,0,0-.245-.485l-10.516-11.287,8.941-10.4a.672.672,0,0,0,.2-.485.633.633,0,0,0-.243-.445L365.2,787.46a.582.582,0,0,0-.85,0l-9.266,10.962h-3.114V788.065A.583.583,0,0,0,351.329,787.46Z" transform="translate(-35.394 -294.653)" fill="#fff"/>
    <path id="패스_144" data-name="패스 144" d="M384.675,810.452a7.511,7.511,0,0,0,.568-3.116V794.029a6.56,6.56,0,0,0-1.861-4.977,7.506,7.506,0,0,0-5.219-1.7h-6.675a7.336,7.336,0,0,0-5.179,1.7,6.413,6.413,0,0,0-1.858,4.977v13.307a7.6,7.6,0,0,0,.525,3.116,5.86,5.86,0,0,0,1.5,2.1,6.005,6.005,0,0,0,2.223,1.131,12.139,12.139,0,0,0,2.791.325h6.675a12.122,12.122,0,0,0,2.791-.325,5.723,5.723,0,0,0,2.226-1.131A5.386,5.386,0,0,0,384.675,810.452Zm-3.356-3.116a2.946,2.946,0,0,1-.93,2.428,3.428,3.428,0,0,1-2.226.728h-6.675a3.252,3.252,0,0,1-2.143-.768,2.662,2.662,0,0,1-.973-2.388V794.029a2.771,2.771,0,0,1,.893-2.388,3.443,3.443,0,0,1,2.223-.768h6.675a3.62,3.62,0,0,1,2.226.768,2.909,2.909,0,0,1,.93,2.388Z" transform="translate(-13.171 -294.547)" fill="#fff"/>
    <path id="패스_145" data-name="패스 145" d="M398.313,801.957a6.713,6.713,0,0,0,2.021-1.418,5.239,5.239,0,0,0,1.215-1.981,6.735,6.735,0,0,0,.405-2.183v-3.156a5.476,5.476,0,0,0-.525-2.266,6.893,6.893,0,0,0-1.378-1.9,9.089,9.089,0,0,0-2.1-1.255,8.4,8.4,0,0,0-2.669-.443h-7.242a7.591,7.591,0,0,0-3.114.605,7.2,7.2,0,0,0-2.063,1.618,5.929,5.929,0,0,0-1.175,2.063,7.572,7.572,0,0,0-.323,1.983v19.782c0,.443.2.605.608.605h2.669c.405,0,.648-.162.648-.605V793.624a3.276,3.276,0,0,1,.325-1.378,2.977,2.977,0,0,1,.848-.93,2.467,2.467,0,0,1,1.578-.443h7.242a3.14,3.14,0,0,1,1.941.688,2.148,2.148,0,0,1,.81,1.7v3.156c0,.162-.042.365-.042.565a3.268,3.268,0,0,1-.323.89,2.016,2.016,0,0,1-.81.728,2.71,2.71,0,0,1-1.5.365h-5.582a2.454,2.454,0,0,0-1.133.283,1.855,1.855,0,0,0-.688.688,1.321,1.321,0,0,0-.163.93,1.584,1.584,0,0,0,.487.97l10.356,12.177a.478.478,0,0,0,.765.163l2.146-1.336a.816.816,0,0,0,.365-.445.894.894,0,0,0-.162-.525l-8.05-9.386h1.658A7.671,7.671,0,0,0,398.313,801.957Z" transform="translate(9.749 -294.547)" fill="#fff"/>
    <path id="패스_146" data-name="패스 146" d="M416.29,810.492H405.126a2.605,2.605,0,0,1-1.093-.2,2.8,2.8,0,0,1-1.013-.565,2.294,2.294,0,0,1-.765-.973,3.5,3.5,0,0,1-.245-1.416v-5.462h13.107a.566.566,0,0,0,.608-.645v-2.266a.585.585,0,0,0-.608-.648H402.01v-4.287a3.515,3.515,0,0,1,.245-1.418,2.273,2.273,0,0,1,.765-.97,3.507,3.507,0,0,1,1.013-.565,3.441,3.441,0,0,1,1.093-.2h10.761a.566.566,0,0,0,.645-.608v-2.306a.583.583,0,0,0-.645-.605H405.126a7.328,7.328,0,0,0-5.179,1.7,6.414,6.414,0,0,0-1.861,4.977v13.307a7.6,7.6,0,0,0,.525,3.116,5.331,5.331,0,0,0,1.456,2.1,6.069,6.069,0,0,0,2.226,1.131,12.5,12.5,0,0,0,2.833.325H416.29a.536.536,0,0,0,.608-.605V811.14A.585.585,0,0,0,416.29,810.492Z" transform="translate(32.415 -294.547)" fill="#fff"/>
    <path id="패스_147" data-name="패스 147" d="M433.3,793.136c-.24-.605-.443-1.253-.768-1.941a15.419,15.419,0,0,0-1.253-1.9,8.178,8.178,0,0,0-1.821-1.416,5.8,5.8,0,0,0-2.428-.525h-3.924a5.542,5.542,0,0,0-2.428.525,7.294,7.294,0,0,0-1.818,1.416,9.382,9.382,0,0,0-1.213,1.9,9.21,9.21,0,0,0-.77,1.941,8.729,8.729,0,0,0-.445,1.658,6.863,6.863,0,0,0-.2.973l-2.753,17.071a.616.616,0,0,0,.122.525.5.5,0,0,0,.445.283l2.671.365a.462.462,0,0,0,.445-.12.687.687,0,0,0,.24-.445l1.378-8.658h12.54l1.416,8.658a.521.521,0,0,0,.2.445.508.508,0,0,0,.485.12l2.669-.365a.615.615,0,0,0,.448-.283,1.119,1.119,0,0,0,.12-.525l-2.751-17.071c-.04-.162-.08-.485-.16-.973C433.625,794.311,433.463,793.784,433.3,793.136Zm-13.915,8.133.768-4.894a11.424,11.424,0,0,1,.325-1.618,13.534,13.534,0,0,1,.605-1.781,4.545,4.545,0,0,1,.85-1.5,1.427,1.427,0,0,1,1.173-.605h3.924a1.545,1.545,0,0,1,1.175.605,5.378,5.378,0,0,1,.848,1.5,13.206,13.206,0,0,1,.608,1.781c.16.645.243,1.171.323,1.618l.768,4.894Z" transform="translate(53.257 -294.547)" fill="#fff"/>
    <path id="패스_148" data-name="패스 148" d="M451.221,814.011a1.621,1.621,0,0,0,1.3-.485,1.741,1.741,0,0,0,.485-1.253V787.959a.584.584,0,0,0-.648-.605h-2.671a.552.552,0,0,0-.605.605v22.533a1.123,1.123,0,0,1-.89-.283,1.844,1.844,0,0,1-.688-.89l-7.848-19.7a3.7,3.7,0,0,0-1.538-1.821,7.022,7.022,0,0,0-2.791-.443h-2.346a2.228,2.228,0,0,0-1.375.605,2.052,2.052,0,0,0-.565,1.335v24.111c0,.443.2.605.605.605h2.671c.405,0,.648-.162.648-.605V790.873c.243,0,.485.04.688.04a4.03,4.03,0,0,1,.4.2,2.125,2.125,0,0,1,.245.325,1.929,1.929,0,0,0,.243.528l7.845,19.7a3.008,3.008,0,0,0,1.7,1.861,7.01,7.01,0,0,0,2.994.485Z" transform="translate(77.072 -294.547)" fill="#fff"/>
    <path id="패스_149" data-name="패스 149" d="M460.9,814.011h2.671c.4,0,.648-.162.648-.605V804.22h9.789a10.339,10.339,0,0,0,2.791-.363,5.34,5.34,0,0,0,2.226-1.173,5.081,5.081,0,0,0,1.5-2.021,7.8,7.8,0,0,0,.568-3.116v-3.519a6.683,6.683,0,0,0-1.861-4.977,7.5,7.5,0,0,0-5.219-1.7h-5.662c-2.791,0-4.857.565-6.11,1.7a6.147,6.147,0,0,0-1.943,4.934v19.419C460.293,813.849,460.5,814.011,460.9,814.011Zm3.319-20.025a2.5,2.5,0,0,1,1.133-2.346,5.266,5.266,0,0,1,2.994-.768h5.662a3.611,3.611,0,0,1,2.183.728,3.007,3.007,0,0,1,.973,2.428v3.519q0,3.155-3.156,3.154h-9.789Z" transform="translate(116.724 -294.547)" fill="#fff"/>
    <path id="패스_150" data-name="패스 150" d="M490.147,814.011a9.564,9.564,0,0,0,2.911-.4,7.025,7.025,0,0,0,2.348-1.3,6.448,6.448,0,0,0,1.456-2.266,8.684,8.684,0,0,0,.528-3.074V787.959a.573.573,0,0,0-.608-.605h-2.669a.566.566,0,0,0-.65.605v19.014a3.622,3.622,0,0,1-.888,2.628,3.4,3.4,0,0,1-2.428.89H484.24a3.171,3.171,0,0,1-2.386-.89,3.326,3.326,0,0,1-.93-2.628V787.959a.583.583,0,0,0-.645-.605h-2.671a.552.552,0,0,0-.608.605v19.014a6.7,6.7,0,0,0,1.983,5.3,7.636,7.636,0,0,0,5.257,1.738Z" transform="translate(139.367 -294.547)" fill="#fff"/>
    <path id="패스_151" data-name="패스 151" d="M495.684,814.011H507.5a7.594,7.594,0,0,0,5.1-1.861,6.141,6.141,0,0,0,1.943-4.409v-3.319a4.328,4.328,0,0,0-.77-2.426,8.28,8.28,0,0,0-1.778-1.781,5.977,5.977,0,0,0,1.536-1.861,6.214,6.214,0,0,0,.608-2.791v-2.346a5.546,5.546,0,0,0-.448-2.063,5.633,5.633,0,0,0-1.373-1.941,9.41,9.41,0,0,0-2.386-1.376,12.187,12.187,0,0,0-3.441-.485h-10.8a2.24,2.24,0,0,0-1.375.443,1.8,1.8,0,0,0-.568,1.255v23.221a1.654,1.654,0,0,0,.568,1.253A1.855,1.855,0,0,0,495.684,814.011Zm1.981-23.138h8.818a6.278,6.278,0,0,1,1.9.24,7.749,7.749,0,0,1,1.173.608,6.72,6.72,0,0,1,.525.81,2.973,2.973,0,0,1,.122.688v2.346a2.865,2.865,0,0,1-.528,1.741,3.1,3.1,0,0,1-1.416,1.01h-10.6Zm0,11h10.2a3.046,3.046,0,0,1,1.861.688,2.368,2.368,0,0,1,.888,1.861v3.319a2.011,2.011,0,0,1-.363,1.255,3.262,3.262,0,0,1-.81.848,4.778,4.778,0,0,1-1.05.485,2.967,2.967,0,0,1-.93.162h-9.791Z" transform="translate(162.056 -294.547)" fill="#fff"/>
  </g>
  <g id="그룹_3" data-name="그룹 3" transform="translate(-274 -492.623)">
    <rect id="사각형_12" data-name="사각형 12" width="81.61" height="7.81" transform="translate(274 580.457)" fill="#fff"/>
    <path id="패스_152" data-name="패스 152" d="M400.946,806.839h-8.312v7.511H343.267v-7.511h-8.312v33.045h65.991Zm-8.312,25.336H343.267V821.96h49.367Z" transform="translate(-53.146 -268.139)" fill="#fff"/>
    <path id="패스_153" data-name="패스 153" d="M352.673,829.755a6.35,6.35,0,0,0-4.506,1.8,5.99,5.99,0,0,0-1.9,4.506,5.633,5.633,0,0,0,1.9,4.407,5.7,5.7,0,0,0,4.506,1.9,6.148,6.148,0,0,0,4.508-1.9,5.9,5.9,0,0,0,1.8-4.407,6.288,6.288,0,0,0-1.8-4.506A6.922,6.922,0,0,0,352.673,829.755Z" transform="translate(-37.819 -237.081)" fill="#fff"/>
    <path id="패스_154" data-name="패스 154" d="M398.291,811.6a5.663,5.663,0,0,0-4.308,1.7,6.393,6.393,0,0,0-1.8,4.409,5.664,5.664,0,0,0,1.8,4.3,5.381,5.381,0,0,0,4.308,1.8,6.1,6.1,0,0,0,4.506-1.8,5.96,5.96,0,0,0,1.7-4.3,6.76,6.76,0,0,0-1.7-4.409A6.457,6.457,0,0,0,398.291,811.6Z" transform="translate(24.412 -261.685)" fill="#fff"/>
    <path id="패스_155" data-name="패스 155" d="M414.869,828.071a22.993,22.993,0,0,0-6.508-3.7,26.134,26.134,0,0,0-7.911-1.2,25.839,25.839,0,0,0-8.01,1.2,21.163,21.163,0,0,0-6.409,3.7,16.581,16.581,0,0,0-4.305,5.707,15.379,15.379,0,0,0-1.7,7.311,17.691,17.691,0,0,0,6.008,13.018,19.023,19.023,0,0,0,6.409,3.606,25.021,25.021,0,0,0,15.922,0,18.1,18.1,0,0,0,10.914-9.315,17.378,17.378,0,0,0,1.6-7.308,18.115,18.115,0,0,0-1.6-7.311A24.249,24.249,0,0,0,414.869,828.071Zm-3,17.222a10.682,10.682,0,0,1-2.6,3.408,13.972,13.972,0,0,1-13.717,2.2,10.871,10.871,0,0,1-3.806-2.2,10.043,10.043,0,0,1-2.8-3.408,9.588,9.588,0,0,1-.9-4.2,10.242,10.242,0,0,1,.9-4.2,11.043,11.043,0,0,1,2.8-3.406,12.913,12.913,0,0,1,3.806-2.3,15.126,15.126,0,0,1,9.713,0,15.6,15.6,0,0,1,4,2.3,11.847,11.847,0,0,1,2.6,3.406,10.358,10.358,0,0,1,1,4.2A9.634,9.634,0,0,1,411.866,845.293Z" transform="translate(7.933 -246.013)" fill="#fff"/>
    <rect id="사각형_13" data-name="사각형 13" width="8.312" height="47.565" transform="translate(434.018 533.893)" fill="#fff"/>
    <path id="패스_156" data-name="패스 156" d="M400.113,840.789a17.519,17.519,0,0,0,6.51-3.7,18.9,18.9,0,0,0,4.4-5.608,17.062,17.062,0,0,0,1.6-7.311,17.282,17.282,0,0,0-1.6-7.209,22.79,22.79,0,0,0-4.4-5.806,25.676,25.676,0,0,0-6.51-3.707,29.7,29.7,0,0,0-7.911-1.2,29.225,29.225,0,0,0-8.01,1.2,23.371,23.371,0,0,0-6.409,3.707,16.017,16.017,0,0,0-4.305,5.806,16.327,16.327,0,0,0,0,14.52,13.907,13.907,0,0,0,4.305,5.608,16.339,16.339,0,0,0,6.409,3.7,23.277,23.277,0,0,0,15.922,0Zm-16.522-8.91a10.125,10.125,0,0,1,0-15.321,12.735,12.735,0,0,1,8.611-2.8,13.193,13.193,0,0,1,8.712,2.8,10.318,10.318,0,0,1,0,15.321,13.193,13.193,0,0,1-8.712,2.8A12.735,12.735,0,0,1,383.591,831.879Z" transform="translate(-3.245 -268.946)" fill="#fff"/>
    <path id="패스_157" data-name="패스 157" d="M452,816.021a25.775,25.775,0,0,0-7.911-5.408,27.236,27.236,0,0,0-9.914-1.9,25.546,25.546,0,0,0-9.812,1.9,23.58,23.58,0,0,0-13.018,13.517,26.986,26.986,0,0,0-1.9,10.316,26.621,26.621,0,0,0,1.9,10.311,21.183,21.183,0,0,0,5.106,8.112,20.3,20.3,0,0,0,7.911,5.408,23.825,23.825,0,0,0,9.812,1.9,25.318,25.318,0,0,0,9.914-1.9A22.744,22.744,0,0,0,452,852.869a23.842,23.842,0,0,0,5.106-8.112,28.636,28.636,0,0,0,1.9-10.311,29.058,29.058,0,0,0-1.9-10.316A25.938,25.938,0,0,0,452,816.021Zm-2.4,25.633a18.024,18.024,0,0,1-3.3,5.608,14.875,14.875,0,0,1-5.208,3.8,15.5,15.5,0,0,1-6.91,1.4,14.492,14.492,0,0,1-6.807-1.4,12.58,12.58,0,0,1-5.21-3.8,14.717,14.717,0,0,1-3.2-5.608,20.563,20.563,0,0,1-1.1-7.207,21.732,21.732,0,0,1,1.1-7.212,17.366,17.366,0,0,1,3.2-5.606,15.265,15.265,0,0,1,12.017-5.109,17,17,0,0,1,6.91,1.3,19.953,19.953,0,0,1,5.208,3.806,22.275,22.275,0,0,1,3.3,5.606,24.571,24.571,0,0,1,1,7.212A23.2,23.2,0,0,1,449.6,841.654Z" transform="translate(47.807 -265.603)" fill="#fff"/>
    <rect id="사각형_14" data-name="사각형 14" width="8.312" height="72.898" transform="translate(525.642 535.797)" fill="#fff"/>
    <path id="패스_158" data-name="패스 158" d="M458.74,826.439h-8.312V849.77h71.8v-7.81H458.74Z" transform="translate(103.355 -241.576)" fill="#fff"/>
    <path id="패스_159" data-name="패스 159" d="M494.471,844.307l5.807-5.807-26.835-32.043L447.707,838.5l5.808,5.807,20.027-25.734Z" transform="translate(99.667 -268.657)" fill="#fff"/>
    <path id="패스_160" data-name="패스 160" d="M487.078,812.2a5.6,5.6,0,0,0-4.407,1.8,6.215,6.215,0,0,0-1.8,4.407,5.457,5.457,0,0,0,1.8,4.206,5.359,5.359,0,0,0,4.407,1.9,5.623,5.623,0,0,0,4.4-1.9,5.726,5.726,0,0,0,1.7-4.206,6.552,6.552,0,0,0-1.7-4.407A5.891,5.891,0,0,0,487.078,812.2Z" transform="translate(144.611 -260.879)" fill="#fff"/>
    <rect id="사각형_15" data-name="사각형 15" width="8.312" height="48.566" transform="translate(611.46 533.893)" fill="#fff"/>
    <path id="패스_161" data-name="패스 161" d="M530.634,841.318l5.909-5.509A149.289,149.289,0,0,1,524.726,825.2c-3.905-3.707-7.81-7.311-11.816-10.816h21.23v-7.711H489.479v7.711h21.228l-23.631,21.53,5.806,5.408,18.927-17.726Z" transform="translate(153.024 -268.37)" fill="#fff"/>
    <path id="패스_162" data-name="패스 162" d="M530.384,813.192a5.885,5.885,0,0,0-4.407-1.8,5.584,5.584,0,0,0-4.4,1.8,5.974,5.974,0,0,0-1.8,4.305,5.661,5.661,0,0,0,1.8,4.305,5.59,5.59,0,0,0,4.4,1.8,5.891,5.891,0,0,0,4.407-1.8,5.965,5.965,0,0,0,1.7-4.305A6.311,6.311,0,0,0,530.384,813.192Z" transform="translate(197.335 -261.974)" fill="#fff"/>
    <path id="패스_163" data-name="패스 163" d="M530.767,828.071a24.5,24.5,0,0,0-6.51-3.7,26.112,26.112,0,0,0-7.911-1.2,24.968,24.968,0,0,0-8.01,1.2,20.029,20.029,0,0,0-6.409,3.7,18.3,18.3,0,0,0-4.4,5.707,16.581,16.581,0,0,0-1.6,7.311,15.964,15.964,0,0,0,1.6,7.308,16.237,16.237,0,0,0,4.4,5.709,18.113,18.113,0,0,0,6.409,3.606,20.432,20.432,0,0,0,8.01,1.3,21.178,21.178,0,0,0,7.911-1.3,21.7,21.7,0,0,0,6.51-3.606,22.891,22.891,0,0,0,4.407-5.709,19.045,19.045,0,0,0,1.5-7.308,19.891,19.891,0,0,0-1.5-7.311A27.342,27.342,0,0,0,530.767,828.071Zm-3.005,17.222a14.636,14.636,0,0,1-2.6,3.408,14.126,14.126,0,0,1-4.006,2.2,13.155,13.155,0,0,1-4.807.9,12.925,12.925,0,0,1-4.906-.9,11.367,11.367,0,0,1-3.905-2.2,11.033,11.033,0,0,1-2.7-3.408,8.41,8.41,0,0,1-1-4.2,8.948,8.948,0,0,1,1-4.2,12.276,12.276,0,0,1,2.7-3.406,13.521,13.521,0,0,1,3.905-2.3,15.249,15.249,0,0,1,4.906-.8,15.575,15.575,0,0,1,4.807.8,17.54,17.54,0,0,1,4.006,2.3,16.969,16.969,0,0,1,2.6,3.406,10.36,10.36,0,0,1,1,4.2A9.634,9.634,0,0,1,527.761,845.293Z" transform="translate(165.009 -246.013)" fill="#fff"/>
    <rect id="사각형_16" data-name="사각형 16" width="8.312" height="46.563" transform="translate(703.085 533.893)" fill="#fff"/>
  </g>
</svg>
