<svg id="그룹_756" data-name="그룹 756" xmlns="http://www.w3.org/2000/svg" width="392.394" height="68.159" viewBox="0 0 392.394 68.159">
  <rect id="사각형_12" data-name="사각형 12" width="70.315" height="6.729" transform="translate(0 40.119)"/>
  <path id="패스_152" data-name="패스 152" d="M391.813,806.839h-7.162v6.472H342.117v-6.472h-7.162v28.472h56.858Zm-7.162,21.83H342.117v-8.8h42.535Z" transform="translate(-328.227 -802.698)"/>
  <path id="패스_153" data-name="패스 153" d="M351.786,829.755a5.471,5.471,0,0,0-3.882,1.552,5.161,5.161,0,0,0-1.64,3.882,4.854,4.854,0,0,0,1.64,3.8,4.911,4.911,0,0,0,3.882,1.64,5.3,5.3,0,0,0,3.884-1.64,5.084,5.084,0,0,0,1.552-3.8,5.418,5.418,0,0,0-1.552-3.882A5.964,5.964,0,0,0,351.786,829.755Z" transform="translate(-316.586 -779.109)"/>
  <path id="패스_154" data-name="패스 154" d="M397.445,811.6a4.879,4.879,0,0,0-3.712,1.465,5.508,5.508,0,0,0-1.553,3.8,4.88,4.88,0,0,0,1.553,3.708,4.636,4.636,0,0,0,3.712,1.553,5.259,5.259,0,0,0,3.882-1.553,5.134,5.134,0,0,0,1.467-3.708,5.824,5.824,0,0,0-1.467-3.8A5.563,5.563,0,0,0,397.445,811.6Z" transform="translate(-269.322 -797.796)"/>
  <path id="패스_155" data-name="패스 155" d="M410.046,827.392a19.815,19.815,0,0,0-5.607-3.192,22.522,22.522,0,0,0-6.816-1.035,22.268,22.268,0,0,0-6.9,1.035,18.237,18.237,0,0,0-5.522,3.192,14.284,14.284,0,0,0-3.71,4.917,13.25,13.25,0,0,0-1.467,6.3,15.243,15.243,0,0,0,5.177,11.216,16.393,16.393,0,0,0,5.522,3.107,21.56,21.56,0,0,0,13.718,0,15.6,15.6,0,0,0,9.4-8.026,14.972,14.972,0,0,0,1.38-6.3,15.607,15.607,0,0,0-1.38-6.3A20.886,20.886,0,0,0,410.046,827.392Zm-2.587,14.839a9.206,9.206,0,0,1-2.244,2.937,12.038,12.038,0,0,1-11.819,1.9,9.367,9.367,0,0,1-3.279-1.9,8.655,8.655,0,0,1-2.415-2.937,8.261,8.261,0,0,1-.777-3.622,8.826,8.826,0,0,1,.777-3.623,9.518,9.518,0,0,1,2.415-2.934,11.129,11.129,0,0,1,3.279-1.984,13.033,13.033,0,0,1,8.369,0,13.446,13.446,0,0,1,3.45,1.984,10.21,10.21,0,0,1,2.244,2.934,8.926,8.926,0,0,1,.862,3.623A8.3,8.3,0,0,1,407.459,842.231Z" transform="translate(-281.838 -785.893)"/>
  <rect id="사각형_13" data-name="사각형 13" width="7.162" height="40.982" transform="translate(137.872 0)"/>
  <path id="패스_156" data-name="패스 156" d="M396.191,836.008a15.094,15.094,0,0,0,5.609-3.19,16.288,16.288,0,0,0,3.795-4.832,14.7,14.7,0,0,0,1.38-6.3,14.89,14.89,0,0,0-1.38-6.212,19.633,19.633,0,0,0-3.795-5,22.121,22.121,0,0,0-5.609-3.194,25.584,25.584,0,0,0-6.817-1.035,25.174,25.174,0,0,0-6.9,1.035,20.135,20.135,0,0,0-5.522,3.194,13.8,13.8,0,0,0-3.71,5,14.067,14.067,0,0,0,0,12.511,11.983,11.983,0,0,0,3.71,4.832,14.077,14.077,0,0,0,5.522,3.19,20.056,20.056,0,0,0,13.718,0Zm-14.236-7.677a8.723,8.723,0,0,1,0-13.2,10.973,10.973,0,0,1,7.419-2.415,11.368,11.368,0,0,1,7.507,2.415,8.89,8.89,0,0,1,0,13.2,11.367,11.367,0,0,1-7.507,2.415A10.973,10.973,0,0,1,381.955,828.331Z" transform="translate(-290.327 -803.31)"/>
  <path id="패스_157" data-name="패스 157" d="M446.111,815.009a22.206,22.206,0,0,0-6.816-4.659,23.465,23.465,0,0,0-8.542-1.64,22.01,22.01,0,0,0-8.454,1.64A20.317,20.317,0,0,0,411.083,822a23.251,23.251,0,0,0-1.64,8.888,22.938,22.938,0,0,0,1.64,8.884,18.249,18.249,0,0,0,4.4,6.989,17.49,17.49,0,0,0,6.817,4.659,20.527,20.527,0,0,0,8.454,1.64,21.812,21.812,0,0,0,8.542-1.64,19.6,19.6,0,0,0,6.816-4.659,20.54,20.54,0,0,0,4.4-6.989,24.674,24.674,0,0,0,1.64-8.884,25.036,25.036,0,0,0-1.64-8.888A22.348,22.348,0,0,0,446.111,815.009Zm-2.072,22.085a15.528,15.528,0,0,1-2.845,4.832,12.816,12.816,0,0,1-4.487,3.277,13.353,13.353,0,0,1-5.954,1.209,12.486,12.486,0,0,1-5.865-1.209,10.841,10.841,0,0,1-4.489-3.277,12.678,12.678,0,0,1-2.76-4.832,17.717,17.717,0,0,1-.948-6.21,18.725,18.725,0,0,1,.948-6.214,14.961,14.961,0,0,1,2.76-4.83,13.153,13.153,0,0,1,10.354-4.4,14.651,14.651,0,0,1,5.954,1.122,17.186,17.186,0,0,1,4.487,3.28,19.192,19.192,0,0,1,2.845,4.83,21.172,21.172,0,0,1,.865,6.214A19.986,19.986,0,0,1,444.039,837.094Z" transform="translate(-251.553 -800.772)"/>
  <rect id="사각형_14" data-name="사각형 14" width="7.162" height="62.809" transform="translate(216.817 1.64)"/>
  <path id="패스_158" data-name="패스 158" d="M457.59,826.439h-7.162v20.1h61.86v-6.729h-54.7Z" transform="translate(-209.366 -782.523)"/>
  <path id="패스_159" data-name="패스 159" d="M488,839.069l5-5-23.121-27.609-22.174,27.609,5,5L469.967,816.9Z" transform="translate(-212.167 -803.091)"/>
  <path id="패스_160" data-name="패스 160" d="M486.218,812.2a4.827,4.827,0,0,0-3.8,1.552,5.356,5.356,0,0,0-1.553,3.8,4.7,4.7,0,0,0,1.553,3.624,4.617,4.617,0,0,0,3.8,1.638,4.845,4.845,0,0,0,3.795-1.638,4.933,4.933,0,0,0,1.467-3.624,5.646,5.646,0,0,0-1.467-3.8A5.076,5.076,0,0,0,486.218,812.2Z" transform="translate(-178.032 -797.184)"/>
  <rect id="사각형_15" data-name="사각형 15" width="7.162" height="41.845" transform="translate(290.758 0)"/>
  <path id="패스_161" data-name="패스 161" d="M524.606,836.523l5.092-4.747a128.634,128.634,0,0,1-10.181-9.144c-3.365-3.194-6.729-6.3-10.181-9.319h18.292v-6.644h-38.48v6.644h18.29l-20.36,18.55,5,4.66,16.308-15.273Z" transform="translate(-171.642 -802.873)"/>
  <path id="패스_162" data-name="패스 162" d="M528.915,812.943a5.07,5.07,0,0,0-3.8-1.554,4.811,4.811,0,0,0-3.795,1.554,5.147,5.147,0,0,0-1.553,3.71,4.877,4.877,0,0,0,1.553,3.71,4.816,4.816,0,0,0,3.795,1.553,5.075,5.075,0,0,0,3.8-1.553,5.139,5.139,0,0,0,1.467-3.71A5.438,5.438,0,0,0,528.915,812.943Z" transform="translate(-137.989 -798.015)"/>
  <path id="패스_163" data-name="패스 163" d="M525.944,827.392a21.114,21.114,0,0,0-5.609-3.192,22.5,22.5,0,0,0-6.817-1.035,21.518,21.518,0,0,0-6.9,1.035,17.26,17.26,0,0,0-5.522,3.192,15.764,15.764,0,0,0-3.795,4.917,14.285,14.285,0,0,0-1.38,6.3,13.755,13.755,0,0,0,1.38,6.3,13.991,13.991,0,0,0,3.795,4.919,15.608,15.608,0,0,0,5.522,3.107,17.607,17.607,0,0,0,6.9,1.12,18.25,18.25,0,0,0,6.817-1.12,18.7,18.7,0,0,0,5.609-3.107,19.722,19.722,0,0,0,3.8-4.919,16.409,16.409,0,0,0,1.293-6.3,17.137,17.137,0,0,0-1.293-6.3A23.55,23.55,0,0,0,525.944,827.392Zm-2.589,14.839a12.613,12.613,0,0,1-2.242,2.937,12.173,12.173,0,0,1-3.452,1.9,11.335,11.335,0,0,1-4.142.777,11.137,11.137,0,0,1-4.227-.777,9.8,9.8,0,0,1-3.365-1.9,9.508,9.508,0,0,1-2.328-2.937,7.246,7.246,0,0,1-.862-3.622,7.711,7.711,0,0,1,.862-3.623,10.58,10.58,0,0,1,2.328-2.934,11.653,11.653,0,0,1,3.365-1.984,13.14,13.14,0,0,1,4.227-.69,13.422,13.422,0,0,1,4.142.69,15.118,15.118,0,0,1,3.452,1.984,14.625,14.625,0,0,1,2.242,2.934,8.926,8.926,0,0,1,.865,3.623A8.3,8.3,0,0,1,523.355,842.231Z" transform="translate(-162.539 -785.893)"/>
  <rect id="사각형_16" data-name="사각형 16" width="7.162" height="40.119" transform="translate(369.702 0)"/>
</svg>
