<svg id="구성_요소_5_1" data-name="구성 요소 5 – 1" xmlns="http://www.w3.org/2000/svg" width="463" height="466" viewBox="0 0 463 466">
  <g id="그룹_728" data-name="그룹 728" transform="translate(5.39 65.792)">
    <path id="패스_25" data-name="패스 25" d="M40.972,278.937a3.818,3.818,0,0,0,1.513-.314c27.205-11.591,39.163-24.92,46.1-52h46.276a3.866,3.866,0,0,0,0-7.733h-6.252c.249.648.5,1.324.748,1.955a3.866,3.866,0,0,1-7.194,2.832c-.587-1.493-1.2-3.094-1.835-4.788H85.558a3.868,3.868,0,0,0-3.766,2.985c-5.464,23.283-13.514,37.356-42.337,49.639a3.866,3.866,0,0,0,1.517,7.423Z" transform="translate(-37.101 55.615)" fill="#222"/>
    <path id="패스_26" data-name="패스 26" d="M131.249,226.623h22.08c6.94,27.081,18.9,40.41,46.1,52a3.822,3.822,0,0,0,1.517.314,3.867,3.867,0,0,0,1.517-7.423c-28.827-12.283-36.877-26.357-42.341-49.639a3.864,3.864,0,0,0-3.762-2.985H135.707l-.632,4.418A3.865,3.865,0,0,1,131.249,226.623Z" transform="translate(247.535 55.615)" fill="#222"/>
    <path id="패스_27" data-name="패스 27" d="M112.844,226.128a3.792,3.792,0,0,1-1.412-.27,3.864,3.864,0,0,1-2.185-5.009c.249-.632.5-1.312.748-1.959h-6.453a3.866,3.866,0,1,0,0,7.733h94.37a3.865,3.865,0,0,1-3.826-3.315l-.636-4.418H179.5a35.43,35.43,0,0,1-3.19,5.617,3.858,3.858,0,0,1-3.146,1.621H152.55a3.858,3.858,0,0,1-3.146-1.621,35.435,35.435,0,0,1-3.191-5.617H118.276c-.632,1.694-1.247,3.3-1.835,4.784A3.861,3.861,0,0,1,112.844,226.128Z" transform="translate(152.081 55.615)" fill="#222"/>
    <path id="패스_28" data-name="패스 28" d="M73.579,216.047a3.867,3.867,0,0,0-5.222,1.617,36.107,36.107,0,0,0-1.525,31.048,3.871,3.871,0,0,0,3.577,2.4,3.784,3.784,0,0,0,1.468-.294,3.868,3.868,0,0,0,2.108-5.045A28.494,28.494,0,0,1,75.2,221.266,3.862,3.862,0,0,0,73.579,216.047Z" transform="translate(44.336 45.671)" fill="#222"/>
    <path id="패스_29" data-name="패스 29" d="M72.654,216.047a3.857,3.857,0,0,0-1.617,5.218,28.507,28.507,0,0,1,1.215,24.506,3.862,3.862,0,0,0,2.1,5.045,3.8,3.8,0,0,0,1.468.294,3.871,3.871,0,0,0,3.577-2.4,36.107,36.107,0,0,0-1.525-31.048A3.867,3.867,0,0,0,72.654,216.047Z" transform="translate(64.142 45.671)" fill="#222"/>
    <path id="패스_30" data-name="패스 30" d="M71.661,215.6a3.865,3.865,0,0,0-3.866,3.866v27.777a3.866,3.866,0,0,0,7.733,0V219.467A3.868,3.868,0,0,0,71.661,215.6Z" transform="translate(55.696 45.671)" fill="#222"/>
    <path id="패스_31" data-name="패스 31" d="M98.155,216.047a3.865,3.865,0,0,0-5.222,1.617,36.107,36.107,0,0,0-1.525,31.048,3.867,3.867,0,0,0,3.577,2.4,3.8,3.8,0,0,0,1.468-.294,3.862,3.862,0,0,0,2.1-5.045,28.508,28.508,0,0,1,1.215-24.506A3.857,3.857,0,0,0,98.155,216.047Z" transform="translate(118.636 45.671)" fill="#222"/>
    <path id="패스_32" data-name="패스 32" d="M97.227,216.047a3.864,3.864,0,0,0-1.617,5.218,28.494,28.494,0,0,1,1.215,24.506,3.868,3.868,0,0,0,2.108,5.045,3.785,3.785,0,0,0,1.469.294,3.871,3.871,0,0,0,3.577-2.4,36.108,36.108,0,0,0-1.529-31.048A3.866,3.866,0,0,0,97.227,216.047Z" transform="translate(138.441 45.671)" fill="#222"/>
    <path id="패스_33" data-name="패스 33" d="M96.236,215.6a3.868,3.868,0,0,0-3.866,3.866v27.777a3.866,3.866,0,0,0,7.733,0V219.467A3.865,3.865,0,0,0,96.236,215.6Z" transform="translate(129.993 45.671)" fill="#222"/>
    <path id="패스_34" data-name="패스 34" d="M154.047,253.688c0-15.667-4.55-29.619-11.736-36.451l1.183-14.681a3.86,3.86,0,0,0-3.85-4.176H124.3a3.86,3.86,0,0,0-3.85,4.176l1.183,14.681c-7.185,6.832-11.74,20.784-11.74,36.451,0,10.155,2,19.839,5.435,27.209h33.289C152.056,273.527,154.047,263.843,154.047,253.688Zm-30.3,26.714c-3.854-6.413-6.123-16.21-6.123-26.714,0-14.074,4.257-27.113,10.348-31.712a3.856,3.856,0,0,0,1.525-3.4l-1.006-12.468h6.96l-1.006,12.468a3.866,3.866,0,0,0,1.525,3.4c6.091,4.6,10.348,17.638,10.348,31.712,0,10.5-2.269,20.3-6.123,26.714Z" transform="translate(182.967 -6.393)" fill="#222"/>
    <path id="패스_35" data-name="패스 35" d="M117.58,226.128H138.2a3.858,3.858,0,0,0,3.146-1.621,35.433,35.433,0,0,0,3.19-5.617H111.243a35.427,35.427,0,0,0,3.191,5.617A3.858,3.858,0,0,0,117.58,226.128Z" transform="translate(187.052 55.615)" fill="#222"/>
    <path id="패스_36" data-name="패스 36" d="M130.539,220.217h27.27l-2.591,18.04h7.809l3.066-21.355a3.869,3.869,0,0,0-3.826-4.418H126.077a3.869,3.869,0,0,0-3.826,4.418l3.066,21.355h7.809Z" transform="translate(220.215 36.247)" fill="#222"/>
    <path id="패스_37" data-name="패스 37" d="M127.446,226.623h28.791a3.865,3.865,0,0,0,3.826-3.315l.632-4.418h-37.71l.636,4.418A3.865,3.865,0,0,0,127.446,226.623Z" transform="translate(222.548 55.615)" fill="#222"/>
    <path id="패스_38" data-name="패스 38" d="M134.676,244.553c1.014-.426,1.629-.648,1.686-.668a3.864,3.864,0,0,1,2.519,7.306c-.286.1-1.5.543-3.3,1.356.692,7.226,1.1,14.87,1.1,23.09,0,24.071-8.147,58.281-17.4,86.135.169.511.35,1.058.5,1.517,1.115,3.388,1.782,5.436,2.177,6.639.084.265.193.6.294.966l.145.422-.036.016c.394,1.746.422,4.084-2.358,5.013a4.269,4.269,0,0,1-1.307.213c-1.139,0-2.647-.507-3.609-2.792-.6,1.617-1.191,3.182-1.786,4.727h8.28c9.25-24.731,22.836-69.7,22.836-102.855,0-46.179-11.454-81.528-34.037-105.072-1.485-1.549-3.038-3.025-4.619-4.466-2.273,1.283-4.643,2.563-7.178,3.834C115.75,184.542,129.679,207.848,134.676,244.553Z" transform="translate(148.777 -103.987)" fill="#222"/>
    <path id="패스_39" data-name="패스 39" d="M81.558,374.086a3.789,3.789,0,0,1-3.424,2.47,4.246,4.246,0,0,1-1.308-.213c-2.78-.929-2.752-3.267-2.358-5.013l-.036-.016.145-.422c.1-.37.205-.7.294-.966.39-1.2,1.062-3.251,2.173-6.639.1-.318.237-.712.35-1.058-9.314-27.93-17.55-62.389-17.55-86.593,0-8.272.41-15.964,1.11-23.23-1.629-.72-2.732-1.118-3-1.211a3.865,3.865,0,0,1,2.515-7.31c.052.016.559.2,1.4.551,5-36.636,18.921-59.911,36.073-74.5-2.535-1.271-4.9-2.551-7.178-3.834-1.585,1.44-3.134,2.917-4.619,4.466-22.587,23.544-34.037,58.893-34.037,105.072,0,33.164,13.583,78.124,22.836,102.855h8.28C82.673,377.048,82.118,375.6,81.558,374.086Z" transform="translate(8.282 -103.987)" fill="#222"/>
    <path id="패스_40" data-name="패스 40" d="M134.64,167.072c18.531,0,42.78,3.529,63.676,18.008,2.7-1.283,5.262-2.575,7.664-3.874-18.829-14.339-43.178-21.866-71.341-21.866s-52.5,7.524-71.325,21.855c2.4,1.3,4.969,2.595,7.66,3.882C91.868,170.6,116.117,167.072,134.64,167.072Z" transform="translate(42.152 -124.425)" fill="#222"/>
    <path id="패스_41" data-name="패스 41" d="M64.632,225.858a3.867,3.867,0,0,0,2.185-5.013c-.25-.632-.5-1.308-.748-1.955h-8.28c.632,1.694,1.247,3.3,1.835,4.788A3.867,3.867,0,0,0,64.632,225.858Z" transform="translate(25.442 55.615)" fill="#222"/>
    <path id="패스_42" data-name="패스 42" d="M102.257,220.849a3.864,3.864,0,0,0,2.185,5.009,3.793,3.793,0,0,0,1.412.27,3.861,3.861,0,0,0,3.6-2.454c.587-1.489,1.2-3.09,1.835-4.784h-8.28C102.756,219.538,102.506,220.218,102.257,220.849Z" transform="translate(159.072 55.615)" fill="#222"/>
    <path id="패스_43" data-name="패스 43" d="M70.766,167.542a3.62,3.62,0,0,1,.688-.278,3.853,3.853,0,0,1,2.438.121c-1.211-.543-2.329-1.1-3.488-1.65-2.346,1.626-4.651,3.384-6.9,5.295.825.418,1.734.825,2.591,1.235,1.183-1.392,2.406-2.748,3.713-4.015A3.911,3.911,0,0,1,70.766,167.542Z" transform="translate(42.723 -105.085)" fill="#222"/>
    <path id="패스_44" data-name="패스 44" d="M77.977,170.771c-3.8-1.32-7.322-2.712-10.722-4.128,3.48,1.493,6.98,2.909,10.489,4.128,28.461,9.9,40.032,26.284,44.727,38.286l.093.245.052-.121C117.47,195.928,105.448,180.326,77.977,170.771Z" transform="translate(54.064 -102.343)" fill="#222"/>
    <path id="패스_45" data-name="패스 45" d="M60.063,159.329a3.865,3.865,0,0,0-6.313,4.462c.531.752,10.259,14.2,34.2,27.7q3.09-2.812,6.417-5.343C70.065,172.98,60.187,159.507,60.063,159.329Z" transform="translate(11.098 -129.384)" fill="#222"/>
    <path id="패스_46" data-name="패스 46" d="M75.8,168.653c-2.692-1.287-5.258-2.579-7.66-3.882q-3.325,2.535-6.417,5.343c2.273,1.283,4.643,2.563,7.177,3.834C71.147,172.037,73.452,170.279,75.8,168.653Z" transform="translate(37.33 -108.003)" fill="#222"/>
    <path id="패스_47" data-name="패스 47" d="M139.382,163.791a3.866,3.866,0,0,0-6.321-4.454c-.125.177-9.881,13.627-34.286,26.827q3.319,2.529,6.4,5.331C129.123,177.993,138.851,164.543,139.382,163.791Z" transform="translate(149.357 -129.384)" fill="#222"/>
    <path id="패스_48" data-name="패스 48" d="M96.147,167.113a3.877,3.877,0,0,1,1.4.153,3.632,3.632,0,0,1,.64.253,3.924,3.924,0,0,1,1,.728,55.532,55.532,0,0,1,3.85,4.168c.97-.463,1.988-.921,2.917-1.388-2.245-1.911-4.546-3.665-6.892-5.291C98.09,166.2,97.153,166.658,96.147,167.113Z" transform="translate(141.412 -105.082)" fill="#222"/>
    <path id="패스_49" data-name="패스 49" d="M125.425,173.4c4.647-1.617,8.928-3.327,13.007-5.069-.04-.044-.072-.093-.113-.137-4.329,1.931-8.735,3.677-13.128,5.206C85.9,187.067,82.006,213.617,82.006,223.591a30.564,30.564,0,0,0,.157,3.243l.254.225C81.849,222.661,79.222,189.469,125.425,173.4Z" transform="translate(98.66 -97.666)" fill="#222"/>
    <path id="패스_50" data-name="패스 50" d="M103.762,173.939c2.535-1.271,4.9-2.551,7.177-3.834q-3.084-2.806-6.4-5.331c-2.4,1.3-4.969,2.591-7.664,3.874C99.216,170.274,101.517,172.028,103.762,173.939Z" transform="translate(143.598 -107.993)" fill="#222"/>
    <path id="패스_51" data-name="패스 51" d="M85.65,179.342a10.5,10.5,0,0,0,6.691-2.394,10.552,10.552,0,0,0,13.385,0,10.554,10.554,0,0,0,17.248-8.163,3.866,3.866,0,0,0-7.733,0,2.824,2.824,0,1,1-5.649,0,3.866,3.866,0,0,0-7.733,0,2.826,2.826,0,1,1-5.653,0,3.866,3.866,0,0,0-7.733,0,2.824,2.824,0,1,1-5.649,0,3.866,3.866,0,0,0-7.733,0A10.569,10.569,0,0,0,85.65,179.342Z" transform="translate(77.76 -107.543)" fill="#222"/>
    <path id="패스_52" data-name="패스 52" d="M66.086,166.146c1.5.68,3.114,1.336,4.7,2-1.473-.636-2.949-1.243-4.406-1.919A2.716,2.716,0,0,0,66.086,166.146Z" transform="translate(50.529 -103.845)" fill="#222"/>
    <path id="패스_53" data-name="패스 53" d="M140.543,166.429a158.867,158.867,0,0,1-14.894,6.047c-27.471,9.555-39.489,25.158-44.634,38.41.04.109.072.213.113.322,5.077-13.321,17.059-29.1,44.755-38.732,5.818-2.024,11.128-4.18,16.013-6.4a3.882,3.882,0,0,0-1.348.346Z" transform="translate(95.664 -104.048)" fill="#222"/>
    <path id="패스_54" data-name="패스 54" d="M217.56,208.928c0,28.4-19.344,51.506-43.114,51.506a38.579,38.579,0,0,1-25.54-10.034c-1.135.913-2.241,1.883-3.3,2.925a3.861,3.861,0,0,1-5.419,0c-1.058-1.042-2.164-2.012-3.3-2.925a38.579,38.579,0,0,1-25.54,10.034c-23.77,0-43.109-23.106-43.109-51.506,0-14.669,5.162-28.444,14.242-38.225,4.325,1.931,8.731,3.677,13.124,5.206,39.118,13.611,43.23,39.509,43.23,49.788a31.4,31.4,0,0,1-.193,3.641c.084-.076.173-.153.257-.234.624-5.85,1.794-37.589-43.061-53.2a193.373,193.373,0,0,1-20.684-8.55c-9.35,11.04-14.649,25.874-14.649,41.569,0,32.665,22.808,59.235,50.842,59.235A46.384,46.384,0,0,0,142.9,255.4a46.374,46.374,0,0,0,31.547,12.762c28.034,0,50.842-26.57,50.842-59.235,0-15.622-5.238-30.392-14.508-41.416q-3.512,1.69-7.351,3.327C212.434,180.612,217.56,194.323,217.56,208.928Z" transform="translate(33.662 -100.178)" fill="#222"/>
    <path id="패스_55" data-name="패스 55" d="M127.893,232.971c.233-.209.475-.41.7-.628a53.493,53.493,0,0,1,3.524-21.138c-.04-.109-.072-.213-.113-.322l-.052.121-.093-.246c-4.7-12-16.266-28.384-44.727-38.285-3.508-1.219-7.009-2.635-10.489-4.128-1.589-.664-3.2-1.32-4.7-2a3.854,3.854,0,0,0-2.438-.121,3.628,3.628,0,0,0-.688.278,3.915,3.915,0,0,0-.958.708c-1.308,1.267-2.531,2.623-3.713,4.015a193.427,193.427,0,0,0,20.684,8.549C129.687,195.381,128.516,227.121,127.893,232.971Z" transform="translate(44.67 -104.045)" fill="#222"/>
    <path id="패스_56" data-name="패스 56" d="M143.846,166.492a3.672,3.672,0,0,0-.64-.254,3.88,3.88,0,0,0-1.4-.153c-4.884,2.217-10.195,4.373-16.013,6.4-27.7,9.636-39.678,25.411-44.755,38.732a53.241,53.241,0,0,1,3.508,21.537c.173.161.35.314.523.471a30.546,30.546,0,0,1-.157-3.243c0-9.974,3.895-36.523,43.186-50.195,4.394-1.529,8.8-3.275,13.128-5.206.04.044.072.092.113.137q3.838-1.642,7.351-3.327a55.567,55.567,0,0,0-3.85-4.168A3.925,3.925,0,0,0,143.846,166.492Z" transform="translate(95.749 -104.055)" fill="#222"/>
    <path id="패스_57" data-name="패스 57" d="M80.2,198.434c.189-.181.394-.338.583-.523a3.861,3.861,0,0,1,5.419,0c.334.326.692.607,1.03.921A53.242,53.242,0,0,0,83.727,177.3,53.49,53.49,0,0,0,80.2,198.434Z" transform="translate(93.065 -70.136)" fill="#222"/>
    <path id="패스_58" data-name="패스 58" d="M86.293,175.2a20.364,20.364,0,1,0,20.366,20.362A20.362,20.362,0,0,0,86.293,175.2Zm0,32.939A12.577,12.577,0,1,1,98.87,195.559,12.592,12.592,0,0,1,86.293,208.136Z" transform="translate(50.061 -76.482)" fill="#222"/>
    <path id="패스_59" data-name="패스 59" d="M85.857,195.559A20.364,20.364,0,1,0,106.219,175.2,20.363,20.363,0,0,0,85.857,195.559Zm33.22,0A12.577,12.577,0,1,1,106.5,182.982,12.592,12.592,0,0,1,119.077,195.559Z" transform="translate(110.303 -76.482)" fill="#222"/>
    <path id="패스_60" data-name="패스 60" d="M83.684,264.161c-6.731,20.378-10.654,32.271-12.935,39.2,1.372,4.116,2.768,8.079,4.164,11.857.064-.129.141-.209.2-.35l.008,0,.028-.089c.06-.149.117-.3.173-.467a3.353,3.353,0,0,0,.117-.439c.917-2.824,4.237-12.931,15.59-47.3,18.378-55.626-27.145-77.436-35.8-81.013-.354,2.583-.656,5.25-.917,7.97C64.984,198.263,99.125,217.43,83.684,264.161Z" transform="translate(14.927 -45.121)" fill="#222"/>
    <path id="패스_61" data-name="패스 61" d="M53.127,187.991a3.863,3.863,0,0,0,2.4,4.912c.27.093,1.372.491,3,1.211.261-2.72.563-5.387.917-7.97-.845-.35-1.352-.535-1.4-.551A3.857,3.857,0,0,0,53.127,187.991Z" transform="translate(10.711 -45.696)" fill="#222"/>
    <path id="패스_62" data-name="패스 62" d="M60.388,215.906c-1.11,3.388-1.782,5.435-2.173,6.638-.089.266-.193.6-.294.966l-.145.422.036.016c-.394,1.746-.422,4.084,2.358,5.013a4.245,4.245,0,0,0,1.308.213A3.79,3.79,0,0,0,64.9,226.7c-1.4-3.778-2.792-7.741-4.164-11.857C60.625,215.194,60.492,215.588,60.388,215.906Z" transform="translate(24.939 43.394)" fill="#222"/>
    <path id="패스_63" data-name="패스 63" d="M109.32,264.073c-15.256-46.175,18.117-65.507,29.088-70.48-.262-2.728-.559-5.4-.909-7.994-9.322,3.923-53.707,25.854-35.518,80.9,11.354,34.367,14.669,44.473,15.586,47.3a4.185,4.185,0,0,0,.121.439c.056.165.113.318.173.467l.024.089.008,0,.016.028c1.408-3.826,2.816-7.833,4.2-11.993C119.8,295.821,115.91,284.008,109.32,264.073Z" transform="translate(145.954 -45.034)" fill="#222"/>
    <path id="패스_64" data-name="패스 64" d="M106.294,229.52a4.268,4.268,0,0,0,1.308-.213c2.78-.929,2.752-3.267,2.358-5.013l.036-.016-.145-.422c-.1-.37-.209-.7-.294-.966-.394-1.2-1.062-3.251-2.177-6.638-.149-.459-.33-1.006-.5-1.517-1.38,4.16-2.788,8.167-4.2,11.994C103.647,229.013,105.155,229.52,106.294,229.52Z" transform="translate(161.178 43.05)" fill="#222"/>
    <path id="패스_65" data-name="패스 65" d="M111.758,192.9a3.864,3.864,0,0,0-2.519-7.306c-.056.02-.672.241-1.686.668.35,2.591.648,5.266.909,7.994C110.254,193.442,111.473,193,111.758,192.9Z" transform="translate(175.899 -45.695)" fill="#222"/>
    <path id="패스_66" data-name="패스 66" d="M153.538,207.87a26.1,26.1,0,0,0,11.679-2.728,3.864,3.864,0,0,0,0-6.928,18.635,18.635,0,0,1,0-33.413,3.867,3.867,0,0,0,0-6.932,26.365,26.365,0,1,0-11.679,50Zm0-45c.406,0,.813.012,1.215.04a26.426,26.426,0,0,0,0,37.187c-.4.024-.809.036-1.215.036a18.632,18.632,0,0,1,0-37.264Z" transform="translate(235.213 -137.117)" fill="#222"/>
    <path id="패스_67" data-name="패스 67" d="M58.784,163.692l-18.02,18.024a3.865,3.865,0,0,0,5.468,5.464l11.422-11.422v-9.334A3.866,3.866,0,0,1,58.784,163.692Z" transform="translate(-29.449 -111.265)" fill="#222"/>
    <path id="패스_68" data-name="패스 68" d="M46.883,175.758,58.309,187.18a3.863,3.863,0,1,0,5.464-5.464l-18.02-18.024a3.849,3.849,0,0,1,1.131,2.732Z" transform="translate(-10.946 -111.265)" fill="#222"/>
    <path id="패스_69" data-name="패스 69" d="M44.7,163.712a3.829,3.829,0,0,1,1.489-.3A3.832,3.832,0,0,0,44.7,163.712Z" transform="translate(-14.12 -112.117)" fill="#222"/>
    <path id="패스_70" data-name="패스 70" d="M45.072,163.41a3.829,3.829,0,0,1,1.489.3A3.817,3.817,0,0,0,45.072,163.41Z" transform="translate(-13.002 -112.117)" fill="#222"/>
    <path id="패스_71" data-name="패스 71" d="M40.763,185.343a3.866,3.866,0,1,0,5.468,5.468l11.422-11.422V168.453Z" transform="translate(-29.449 -96.871)" fill="#222"/>
    <path id="패스_72" data-name="패스 72" d="M57.459,190.81a3.865,3.865,0,0,0,5.464-5.468l-16.89-16.89v10.935Z" transform="translate(-10.096 -96.871)" fill="#222"/>
    <path id="패스_73" data-name="패스 73" d="M40.763,189.823a3.866,3.866,0,0,0,5.468,5.468l11.422-11.426V172.933Z" transform="translate(-29.449 -83.326)" fill="#222"/>
    <path id="패스_74" data-name="패스 74" d="M57.459,195.29a3.865,3.865,0,0,0,5.464-5.468l-16.89-16.89v10.931Z" transform="translate(-10.096 -83.326)" fill="#222"/>
    <path id="패스_75" data-name="패스 75" d="M44.111,178.552v47.583a3.866,3.866,0,1,0,7.733,0V178.552l-3.866-3.862Z" transform="translate(-15.907 -78.015)" fill="#222"/>
    <path id="패스_76" data-name="패스 76" d="M45.639,163.485a3.809,3.809,0,0,0-1.247.833h0A3.837,3.837,0,0,1,45.639,163.485Z" transform="translate(-15.058 -111.89)" fill="#222"/>
    <path id="패스_77" data-name="패스 77" d="M45.246,180.031a3.865,3.865,0,0,1,5.464,0l1.135,1.135v-7.089l-3.866-3.866-3.866,3.866v7.089Z" transform="translate(-15.907 -91.559)" fill="#222"/>
    <path id="패스_78" data-name="패스 78" d="M46.689,164.318a3.809,3.809,0,0,0-1.247-.833,3.8,3.8,0,0,1,1.243.833Z" transform="translate(-11.883 -111.89)" fill="#222"/>
    <path id="패스_79" data-name="패스 79" d="M50.709,175.555l1.135,1.131V169.6l-3.866-3.866L44.111,169.6v7.089l1.135-1.131A3.856,3.856,0,0,1,50.709,175.555Z" transform="translate(-15.907 -105.103)" fill="#222"/>
    <path id="패스_80" data-name="패스 80" d="M51.844,176.61v-9.334a3.85,3.85,0,0,0-1.131-2.732h0a3.846,3.846,0,0,0-4.22-.833,3.841,3.841,0,0,0-1.243.833h0a3.866,3.866,0,0,0-1.131,2.732v9.334l3.866-3.866Z" transform="translate(-15.907 -112.117)" fill="#222"/>
    <path id="패스_81" data-name="패스 81" d="M51.844,181.09V170.155l-1.135-1.131a3.856,3.856,0,0,0-5.464,0l-1.135,1.131V181.09l3.866-3.866Z" transform="translate(-15.907 -98.573)" fill="#222"/>
    <path id="패스_82" data-name="패스 82" d="M47.977,172.37a3.861,3.861,0,0,0-2.732,1.131l-1.135,1.135v10.931l3.866-3.862,3.866,3.862V174.635L50.709,173.5A3.861,3.861,0,0,0,47.977,172.37Z" transform="translate(-15.907 -85.029)" fill="#222"/>
    <path id="패스_83" data-name="패스 83" d="M151.4,186.309l-18.02,18.02a3.866,3.866,0,0,0,5.468,5.468l11.422-11.426v-9.33A3.866,3.866,0,0,1,151.4,186.309Z" transform="translate(250.55 -42.887)" fill="#222"/>
    <path id="패스_84" data-name="패스 84" d="M137.317,186.329a3.824,3.824,0,0,1,1.489-.3A3.829,3.829,0,0,0,137.317,186.329Z" transform="translate(265.881 -43.74)" fill="#222"/>
    <path id="패스_85" data-name="패스 85" d="M139.176,186.329a3.83,3.83,0,0,0-1.489-.3A3.825,3.825,0,0,1,139.176,186.329Z" transform="translate(266.999 -43.74)" fill="#222"/>
    <path id="패스_86" data-name="패스 86" d="M139.5,198.371,150.924,209.8a3.865,3.865,0,0,0,5.464-5.468l-18.02-18.02a3.849,3.849,0,0,1,1.13,2.732Z" transform="translate(269.055 -42.887)" fill="#222"/>
    <path id="패스_87" data-name="패스 87" d="M150.074,213.427a3.865,3.865,0,0,0,5.464-5.468l-16.89-16.89V202Z" transform="translate(269.905 -28.493)" fill="#222"/>
    <path id="패스_88" data-name="패스 88" d="M133.381,207.96a3.866,3.866,0,0,0,5.468,5.468L150.27,202V191.07Z" transform="translate(250.55 -28.493)" fill="#222"/>
    <path id="패스_89" data-name="패스 89" d="M150.074,217.907a3.865,3.865,0,1,0,5.464-5.468l-16.89-16.89v10.931Z" transform="translate(269.905 -14.949)" fill="#222"/>
    <path id="패스_90" data-name="패스 90" d="M133.381,212.44a3.866,3.866,0,1,0,5.468,5.468l11.422-11.426V195.55Z" transform="translate(250.55 -14.949)" fill="#222"/>
    <path id="패스_91" data-name="패스 91" d="M138.254,186.1a3.809,3.809,0,0,0-1.247.833l0,0A3.823,3.823,0,0,1,138.254,186.1Z" transform="translate(264.943 -43.513)" fill="#222"/>
    <path id="패스_92" data-name="패스 92" d="M139.3,186.935a3.813,3.813,0,0,0-1.247-.833,3.782,3.782,0,0,1,1.243.829Z" transform="translate(268.118 -43.513)" fill="#222"/>
    <path id="패스_93" data-name="패스 93" d="M136.726,201.172v47.583a3.866,3.866,0,1,0,7.733,0V201.172l-3.866-3.866Z" transform="translate(264.094 -9.64)" fill="#222"/>
    <path id="패스_94" data-name="패스 94" d="M136.726,196.692v7.093l1.135-1.135a3.863,3.863,0,0,1,5.464,0l1.134,1.135v-7.093l-3.866-3.866Z" transform="translate(264.094 -23.184)" fill="#222"/>
    <path id="패스_95" data-name="패스 95" d="M136.726,192.212v7.093l1.135-1.135a3.866,3.866,0,0,1,5.464,0l1.134,1.135v-7.093l-3.866-3.866Z" transform="translate(264.094 -36.729)" fill="#222"/>
    <path id="패스_96" data-name="패스 96" d="M139.1,186.329a3.825,3.825,0,0,0-1.243.829l0,0a3.866,3.866,0,0,0-1.131,2.732v9.33l3.866-3.866,3.866,3.866v-9.33a3.849,3.849,0,0,0-1.13-2.732l0,0a3.784,3.784,0,0,0-1.243-.829,3.821,3.821,0,0,0-2.977,0Z" transform="translate(264.094 -43.74)" fill="#222"/>
    <path id="패스_97" data-name="패스 97" d="M140.592,190.507a3.861,3.861,0,0,0-2.732,1.131l-1.135,1.135V203.7l3.866-3.866,3.866,3.866V192.772l-1.134-1.135A3.86,3.86,0,0,0,140.592,190.507Z" transform="translate(264.094 -30.195)" fill="#222"/>
    <path id="패스_98" data-name="패스 98" d="M137.861,196.118l-1.135,1.135v10.931l3.866-3.866,3.866,3.866V197.253l-1.134-1.135A3.863,3.863,0,0,0,137.861,196.118Z" transform="translate(264.094 -16.652)" fill="#222"/>
    <path id="패스_99" data-name="패스 99" d="M41.432,206.228h5.918v-7.733H41.432a3.866,3.866,0,0,0,0,7.733Z" transform="translate(-35.695 -6.045)" fill="#222"/>
    <path id="패스_100" data-name="패스 100" d="M47.838,206.228a3.866,3.866,0,0,0,0-7.733H41.92v7.733Z" transform="translate(-22.531 -6.045)" fill="#222"/>
    <path id="패스_101" data-name="패스 101" d="M40,206.335a3.866,3.866,0,0,0,7.733,0v-5.918H40Z" transform="translate(-28.342 -0.234)" fill="#222"/>
    <path id="패스_102" data-name="패스 102" d="M47.731,199.925a3.866,3.866,0,0,0-7.733,0v5.922h7.733Z" transform="translate(-28.342 -13.398)" fill="#222"/>
    <rect id="사각형_7" data-name="사각형 7" width="7.732" height="7.732" transform="translate(11.655 192.45)" fill="#222"/>
    <path id="패스_103" data-name="패스 103" d="M124.335,189.822a3.866,3.866,0,0,0,0,7.733h3.146v-7.733Z" transform="translate(214.944 -32.266)" fill="#222"/>
    <path id="패스_104" data-name="패스 104" d="M127.284,197.555a3.866,3.866,0,0,0,0-7.733h-3.15v7.733Z" transform="translate(226.025 -32.266)" fill="#222"/>
    <path id="패스_105" data-name="패스 105" d="M126.078,198.756a3.865,3.865,0,0,0,3.866-3.866v-3.146h-7.733v3.146A3.865,3.865,0,0,0,126.078,198.756Z" transform="translate(220.214 -26.455)" fill="#222"/>
    <path id="패스_106" data-name="패스 106" d="M129.945,191.944a3.866,3.866,0,1,0-7.733,0v3.15h7.733Z" transform="translate(220.214 -37.539)" fill="#222"/>
    <rect id="사각형_8" data-name="사각형 8" width="7.731" height="7.732" transform="translate(342.428 157.555)" fill="#222"/>
    <path id="패스_107" data-name="패스 107" d="M105.7,160.826a3.866,3.866,0,1,0,0-7.733H99.781v7.733Z" transform="translate(152.399 -143.308)" fill="#222"/>
    <path id="패스_108" data-name="패스 108" d="M99.289,160.826h5.922v-7.733H99.289a3.866,3.866,0,0,0,0,7.733Z" transform="translate(139.235 -143.308)" fill="#222"/>
    <path id="패스_109" data-name="패스 109" d="M97.859,160.937a3.866,3.866,0,0,0,7.733,0v-5.922H97.859Z" transform="translate(146.588 -137.497)" fill="#222"/>
    <path id="패스_110" data-name="패스 110" d="M105.592,154.527a3.866,3.866,0,0,0-7.733,0v5.918h7.733Z" transform="translate(146.588 -150.661)" fill="#222"/>
    <rect id="사각형_9" data-name="사각형 9" width="7.731" height="7.732" transform="translate(244.447 9.786)" fill="#222"/>
    <path id="패스_111" data-name="패스 111" d="M118.874,168.466h1.919v-7.733h-1.919a3.866,3.866,0,1,0,0,7.733Z" transform="translate(198.434 -120.21)" fill="#222"/>
    <path id="패스_112" data-name="패스 112" d="M120.287,168.466a3.866,3.866,0,0,0,0-7.733h-1.919v7.733Z" transform="translate(208.592 -120.21)" fill="#222"/>
    <path id="패스_113" data-name="패스 113" d="M116.446,164.574a3.866,3.866,0,0,0,7.733,0v-1.919h-7.733Z" transform="translate(202.782 -114.4)" fill="#222"/>
    <path id="패스_114" data-name="패스 114" d="M124.179,163.161a3.866,3.866,0,0,0-7.733,0v1.919h7.733Z" transform="translate(202.782 -124.558)" fill="#222"/>
    <rect id="사각형_10" data-name="사각형 10" width="7.732" height="7.732" transform="translate(319.228 40.524)" fill="#222"/>
    <path id="패스_115" data-name="패스 115" d="M49.965,208.574a3.864,3.864,0,1,0,0,7.729h1.919v-7.729Z" transform="translate(-9.897 24.426)" fill="#222"/>
    <path id="패스_116" data-name="패스 116" d="M49.459,208.574V216.3h1.919a3.864,3.864,0,1,0,0-7.729Z" transform="translate(0.261 24.426)" fill="#222"/>
    <path id="패스_117" data-name="패스 117" d="M47.537,212.418a3.866,3.866,0,1,0,7.733,0v-1.923H47.537Z" transform="translate(-5.549 30.234)" fill="#222"/>
    <path id="패스_118" data-name="패스 118" d="M55.27,211a3.866,3.866,0,0,0-7.733,0v1.923H55.27Z" transform="translate(-5.549 20.076)" fill="#222"/>
    <rect id="사각형_11" data-name="사각형 11" width="7.732" height="7.732" transform="translate(41.988 232.998)" fill="#222"/>
    <path id="패스_119" data-name="패스 119" d="M125.042,193.084h14.025A10.537,10.537,0,0,0,149.218,206.4h35.944a10.525,10.525,0,1,0,0-21.05H171.141a10.538,10.538,0,0,0-10.151-13.321H125.042a10.525,10.525,0,1,0,0,21.05Zm0-13.317H160.99a2.794,2.794,0,0,1,0,5.588,3.864,3.864,0,1,0,0,7.729h24.172a2.794,2.794,0,1,1,0,5.588H149.218a2.794,2.794,0,0,1,0-5.588,3.864,3.864,0,1,0,0-7.729H125.042a2.794,2.794,0,0,1,0-5.588Z" transform="translate(196.95 -86.044)" fill="#222"/>
    <path id="패스_120" data-name="패스 120" d="M74.674,179.04a4.9,4.9,0,1,0,4.9,4.9A4.909,4.909,0,0,0,74.674,179.04Z" transform="translate(61.679 -64.863)" fill="#222"/>
    <path id="패스_121" data-name="패스 121" d="M76.957,178.285a7.938,7.938,0,1,0,7.938,7.938A7.941,7.941,0,0,0,76.957,178.285Zm0,12.838a4.9,4.9,0,1,1,4.9-4.9A4.906,4.906,0,0,1,76.957,191.123Z" transform="translate(59.397 -67.146)" fill="#222"/>
    <path id="패스_122" data-name="패스 122" d="M94.6,188.84a4.9,4.9,0,1,0-4.9-4.9A4.9,4.9,0,0,0,94.6,188.84Z" transform="translate(121.921 -64.863)" fill="#222"/>
    <path id="패스_123" data-name="패스 123" d="M96.953,194.161a7.938,7.938,0,1,0-7.938-7.938A7.935,7.935,0,0,0,96.953,194.161Zm-.282-12.838a4.9,4.9,0,1,1-4.9,4.9A4.907,4.907,0,0,1,96.671,181.322Z" transform="translate(119.85 -67.146)" fill="#222"/>
    <path id="패스_124" data-name="패스 124" d="M113.981,194.065a3.866,3.866,0,0,0-2.4-3.577A42.21,42.21,0,0,1,99.658,183c.028.217.052.386.064.459a3.873,3.873,0,0,1-3.174,4.446,3.944,3.944,0,0,1-.648.052c-.076,0-.145-.032-.217-.036a4.008,4.008,0,0,1-.539.008c-.028,0-.056,0-.084,0-.072,0-.141.036-.213.036a3.821,3.821,0,0,1-.6-.052c-.1-.008-.193.012-.29,0a3.863,3.863,0,0,1-3.211-3.806,4.107,4.107,0,0,1,.056-.66c.016-.089.048-.346.089-.676A42.18,42.18,0,0,1,78.7,190.489a3.864,3.864,0,0,0,0,7.153,42.01,42.01,0,0,1,10.428,6.184c1.094-.966,2.16-1.992,3.186-3.086a3.859,3.859,0,0,1,5.645,0c1.026,1.094,2.092,2.12,3.186,3.086a42.008,42.008,0,0,1,10.428-6.184A3.86,3.86,0,0,0,113.981,194.065Zm-18.837,4.687a50.463,50.463,0,0,0-6.449-4.687,50.455,50.455,0,0,0,6.449-4.687,49.753,49.753,0,0,0,6.445,4.687A50.134,50.134,0,0,0,95.144,198.752Z" transform="translate(81.418 -53.605)" fill="#222"/>
    <path id="패스_125" data-name="패스 125" d="M81.365,184.1c.072,0,.141-.032.213-.036a3.7,3.7,0,0,1-.817-.016A3.821,3.821,0,0,0,81.365,184.1Z" transform="translate(94.899 -49.738)" fill="#222"/>
    <path id="패스_126" data-name="패스 126" d="M84.978,184.094a3.863,3.863,0,0,1-3.211,3.806,3.493,3.493,0,0,1-.648.012c.072,0,.141.036.217.036a3.935,3.935,0,0,0,.648-.052,3.873,3.873,0,0,0,3.174-4.446c-.012-.072-.036-.241-.064-.459l-.253-.225c.04.374.076.644.081.668A3.69,3.69,0,0,1,84.978,184.094Z" transform="translate(95.981 -53.598)" fill="#222"/>
    <path id="패스_127" data-name="패스 127" d="M85.5,186.927a3.876,3.876,0,0,0-2.824,1.227c-1.026,1.094-2.092,2.12-3.186,3.086a44.058,44.058,0,0,1,3.3,2.925,3.862,3.862,0,0,0,5.419,0c1.058-1.042,2.165-2.012,3.3-2.925-1.094-.966-2.16-1.991-3.186-3.086A3.867,3.867,0,0,0,85.5,186.927Z" transform="translate(91.059 -41.019)" fill="#222"/>
    <path id="패스_128" data-name="패스 128" d="M81.049,184.092a4.044,4.044,0,0,0,.539-.008c-.1-.008-.193-.04-.29-.052-.113.016-.217.052-.334.06C80.993,184.088,81.021,184.1,81.049,184.092Z" transform="translate(95.513 -49.771)" fill="#222"/>
    <path id="패스_129" data-name="패스 129" d="M79.892,184.275a3.863,3.863,0,0,0,3.211,3.806c.1.016.189,0,.29,0l-.056,0a3.866,3.866,0,0,1-3.154-4.466c.016-.113.064-.435.113-.909-.084.08-.173.157-.257.233-.04.33-.072.587-.089.676A4.1,4.1,0,0,0,79.892,184.275Z" transform="translate(92.269 -53.78)" fill="#222"/>
    <path id="패스_130" data-name="패스 130" d="M83.161,188.553l.056,0a3.711,3.711,0,0,0,.817.016c.117-.008.221-.044.334-.06a3.819,3.819,0,0,1-3.3-3.114,27.831,27.831,0,0,1-.249-2.848c-.229.217-.471.419-.7.628-.048.475-.1.8-.113.909A3.866,3.866,0,0,0,83.161,188.553Z" transform="translate(92.444 -54.251)" fill="#222"/>
    <path id="패스_131" data-name="패스 131" d="M81.048,188.213c.1.012.189.044.29.052a3.491,3.491,0,0,0,.648-.012,3.863,3.863,0,0,0,3.211-3.806,3.684,3.684,0,0,0-.056-.66c0-.024-.04-.294-.081-.668-.173-.157-.35-.31-.523-.471-.085,1.5-.221,2.39-.229,2.45A3.829,3.829,0,0,1,81.048,188.213Z" transform="translate(95.764 -53.952)" fill="#222"/>
    <path id="패스_132" data-name="패스 132" d="M80.75,183.254c-.189.185-.394.342-.583.523a27.819,27.819,0,0,0,.249,2.848,3.819,3.819,0,0,0,3.3,3.114,3.829,3.829,0,0,0,3.259-3.114c.008-.06.145-.95.229-2.45-.338-.314-.7-.6-1.03-.921A3.861,3.861,0,0,0,80.75,183.254Z" transform="translate(93.1 -55.479)" fill="#222"/>
    <path id="패스_133" data-name="패스 133" d="M119.944,218.767H78.959a3.866,3.866,0,1,0,0,7.733h40.985a3.866,3.866,0,0,0,0-7.733Z" transform="translate(77.76 55.243)" fill="#222"/>
    <path id="패스_134" data-name="패스 134" d="M77.761,212.216V200.439a3.864,3.864,0,1,0-7.729,0v11.776a3.864,3.864,0,1,0,7.729,0Z" transform="translate(62.459 -11.856)" fill="#222"/>
    <path id="패스_135" data-name="패스 135" d="M93.893,196.573a3.868,3.868,0,0,0-3.866,3.866v11.776a3.866,3.866,0,1,0,7.733,0V200.439A3.87,3.87,0,0,0,93.893,196.573Z" transform="translate(122.91 -11.856)" fill="#222"/>
    <path id="패스_136" data-name="패스 136" d="M87.228,216.082a3.864,3.864,0,0,0,3.862-3.866V200.439a3.864,3.864,0,1,0-7.729,0v11.776A3.865,3.865,0,0,0,87.228,216.082Z" transform="translate(102.76 -11.856)" fill="#222"/>
    <path id="패스_137" data-name="패스 137" d="M80.559,216.082a3.865,3.865,0,0,0,3.866-3.866V200.439a3.864,3.864,0,1,0-7.729,0v11.776A3.864,3.864,0,0,0,80.559,216.082Z" transform="translate(82.609 -11.856)" fill="#222"/>
    <path id="패스_138" data-name="패스 138" d="M83.362,225.557a3.864,3.864,0,1,0,7.729,0v-11.78a3.864,3.864,0,0,0-7.729,0Z" transform="translate(102.76 28.481)" fill="#222"/>
    <path id="패스_139" data-name="패스 139" d="M76.7,225.557a3.864,3.864,0,1,0,7.729,0v-11.78a3.864,3.864,0,0,0-7.729,0Z" transform="translate(82.609 28.481)" fill="#222"/>
    <path id="패스_140" data-name="패스 140" d="M90.556,203.441a3.865,3.865,0,0,0-3.866,3.866v11.78a3.866,3.866,0,1,0,7.733,0v-11.78A3.868,3.868,0,0,0,90.556,203.441Z" transform="translate(112.821 8.908)" fill="#222"/>
    <path id="패스_141" data-name="패스 141" d="M87.754,219.087v-11.78a3.864,3.864,0,1,0-7.729,0v11.78a3.864,3.864,0,1,0,7.729,0Z" transform="translate(92.671 8.908)" fill="#222"/>
    <path id="패스_142" data-name="패스 142" d="M81.093,207.307a3.866,3.866,0,0,0-7.733,0v11.78a3.866,3.866,0,1,0,7.733,0Z" transform="translate(72.521 8.908)" fill="#222"/>
  </g>
  <rect id="사각형_5526" data-name="사각형 5526" width="463" height="466" fill="none"/>
</svg>
