<svg data-name="구성 요소 5 – 1" xmlns="http://www.w3.org/2000/svg" width="463" height="466"><g data-name="그룹 728" fill="#222"><path data-name="패스 25" d="M9.261 400.344a3.818 3.818 0 0 0 1.513-.314c27.205-11.591 39.163-24.92 46.1-52h46.276a3.866 3.866 0 0 0 0-7.733h-6.252c.249.648.5 1.324.748 1.955a3.866 3.866 0 0 1-7.194 2.832c-.587-1.493-1.2-3.094-1.835-4.788h-34.77a3.868 3.868 0 0 0-3.766 2.985c-5.464 23.283-13.514 37.356-42.337 49.639a3.866 3.866 0 0 0 1.517 7.423Z"/><path data-name="패스 26" d="M384.174 348.03h22.08c6.94 27.081 18.9 40.41 46.1 52a3.822 3.822 0 0 0 1.517.314 3.867 3.867 0 0 0 1.517-7.423c-28.827-12.283-36.877-26.357-42.341-49.639a3.864 3.864 0 0 0-3.762-2.985h-20.653l-.632 4.418a3.865 3.865 0 0 1-3.826 3.315Z"/><path data-name="패스 27" d="M270.315 347.535a3.792 3.792 0 0 1-1.412-.27 3.864 3.864 0 0 1-2.185-5.009c.249-.632.5-1.312.748-1.959h-6.453a3.866 3.866 0 1 0 0 7.733h94.37a3.865 3.865 0 0 1-3.826-3.315l-.636-4.418h-13.95a35.43 35.43 0 0 1-3.19 5.617 3.858 3.858 0 0 1-3.146 1.621h-20.614a3.858 3.858 0 0 1-3.146-1.621 35.435 35.435 0 0 1-3.191-5.617h-27.937c-.632 1.694-1.247 3.3-1.835 4.784a3.861 3.861 0 0 1-3.597 2.454Z"/><path data-name="패스 28" d="M123.305 327.51a3.867 3.867 0 0 0-5.222 1.617 36.107 36.107 0 0 0-1.525 31.048 3.871 3.871 0 0 0 3.577 2.4 3.784 3.784 0 0 0 1.468-.294 3.868 3.868 0 0 0 2.108-5.045 28.494 28.494 0 0 1 1.215-24.507 3.862 3.862 0 0 0-1.621-5.219Z"/><path data-name="패스 29" d="M142.186 327.51a3.857 3.857 0 0 0-1.617 5.218 28.507 28.507 0 0 1 1.215 24.506 3.862 3.862 0 0 0 2.1 5.045 3.8 3.8 0 0 0 1.468.294 3.871 3.871 0 0 0 3.577-2.4 36.107 36.107 0 0 0-1.525-31.048 3.867 3.867 0 0 0-5.218-1.615Z"/><path data-name="패스 30" d="M132.747 327.063a3.865 3.865 0 0 0-3.866 3.866v27.777a3.866 3.866 0 0 0 7.733 0V330.93a3.868 3.868 0 0 0-3.867-3.867Z"/><path data-name="패스 31" d="M222.181 327.51a3.865 3.865 0 0 0-5.222 1.617 36.107 36.107 0 0 0-1.525 31.048 3.867 3.867 0 0 0 3.577 2.4 3.8 3.8 0 0 0 1.468-.294 3.862 3.862 0 0 0 2.1-5.045 28.508 28.508 0 0 1 1.215-24.506 3.857 3.857 0 0 0-1.613-5.22Z"/><path data-name="패스 32" d="M241.058 327.51a3.864 3.864 0 0 0-1.617 5.218 28.494 28.494 0 0 1 1.215 24.506 3.868 3.868 0 0 0 2.108 5.045 3.785 3.785 0 0 0 1.469.294 3.871 3.871 0 0 0 3.577-2.4 36.108 36.108 0 0 0-1.529-31.048 3.866 3.866 0 0 0-5.223-1.615Z"/><path data-name="패스 33" d="M231.619 327.063a3.868 3.868 0 0 0-3.866 3.866v27.777a3.866 3.866 0 0 0 7.733 0V330.93a3.865 3.865 0 0 0-3.867-3.867Z"/><path data-name="패스 34" d="M342.404 313.087c0-15.667-4.55-29.619-11.736-36.451l1.183-14.681a3.86 3.86 0 0 0-3.85-4.176h-15.344a3.86 3.86 0 0 0-3.85 4.176l1.183 14.681c-7.185 6.832-11.74 20.784-11.74 36.451 0 10.155 2 19.839 5.435 27.209h33.289c3.439-7.37 5.43-17.054 5.43-27.209Zm-30.3 26.714c-3.854-6.413-6.123-16.21-6.123-26.714 0-14.074 4.257-27.113 10.348-31.712a3.856 3.856 0 0 0 1.525-3.4l-1.006-12.468h6.96l-1.006 12.468a3.866 3.866 0 0 0 1.525 3.4c6.091 4.6 10.348 17.638 10.348 31.712 0 10.5-2.269 20.3-6.123 26.714Z"/><path data-name="패스 35" d="M310.022 347.535h20.62a3.858 3.858 0 0 0 3.146-1.621 35.433 35.433 0 0 0 3.19-5.617h-33.293a35.427 35.427 0 0 0 3.191 5.617 3.858 3.858 0 0 0 3.146 1.621Z"/><path data-name="패스 36" d="M356.144 322.256h27.27l-2.591 18.04h7.809l3.066-21.355a3.869 3.869 0 0 0-3.826-4.418h-36.19a3.869 3.869 0 0 0-3.826 4.418l3.066 21.355h7.809Z"/><path data-name="패스 37" d="M355.384 348.03h28.791a3.865 3.865 0 0 0 3.826-3.315l.632-4.418h-37.71l.636 4.418a3.865 3.865 0 0 0 3.825 3.315Z"/><path data-name="패스 38" d="M288.843 206.358a35.835 35.835 0 0 1 1.686-.668 3.864 3.864 0 0 1 2.519 7.306c-.286.1-1.5.543-3.3 1.356a241.09 241.09 0 0 1 1.1 23.09c0 24.071-8.147 58.281-17.4 86.135.169.511.35 1.058.5 1.517 1.115 3.388 1.782 5.436 2.177 6.639.084.265.193.6.294.966l.145.422-.036.016c.394 1.746.422 4.084-2.358 5.013a4.269 4.269 0 0 1-1.307.213c-1.139 0-2.647-.507-3.609-2.792-.6 1.617-1.191 3.182-1.786 4.727h8.28c9.25-24.731 22.836-69.7 22.836-102.855 0-46.179-11.454-81.528-34.037-105.072-1.485-1.549-3.038-3.025-4.619-4.466a164.66 164.66 0 0 1-7.178 3.834c17.167 14.608 31.096 37.914 36.093 74.619Z"/><path data-name="패스 39" d="M95.23 335.891a3.789 3.789 0 0 1-3.424 2.47 4.246 4.246 0 0 1-1.308-.213c-2.78-.929-2.752-3.267-2.358-5.013l-.036-.016.145-.422c.1-.37.205-.7.294-.966.39-1.2 1.062-3.251 2.173-6.639.1-.318.237-.712.35-1.058-9.314-27.93-17.55-62.389-17.55-86.593 0-8.272.41-15.964 1.11-23.23a42.659 42.659 0 0 0-3-1.211 3.865 3.865 0 0 1 2.515-7.31c.052.016.559.2 1.4.551 5-36.636 18.921-59.911 36.073-74.5a167.609 167.609 0 0 1-7.178-3.834 93.082 93.082 0 0 0-4.619 4.466C77.23 155.917 65.78 191.266 65.78 237.445c0 33.164 13.583 78.124 22.836 102.855h8.28c-.551-1.447-1.106-2.895-1.666-4.409Z"/><path data-name="패스 40" d="M182.182 108.439c18.531 0 42.78 3.529 63.676 18.008 2.7-1.283 5.262-2.575 7.664-3.874-18.829-14.339-43.178-21.866-71.341-21.866s-52.5 7.524-71.325 21.855c2.4 1.3 4.969 2.595 7.66 3.882 20.894-14.477 45.143-18.005 63.666-18.005Z"/><path data-name="패스 41" d="M95.464 347.265a3.867 3.867 0 0 0 2.185-5.013c-.25-.632-.5-1.308-.748-1.955h-8.28c.632 1.694 1.247 3.3 1.835 4.788a3.867 3.867 0 0 0 5.008 2.18Z"/><path data-name="패스 42" d="M266.719 342.256a3.864 3.864 0 0 0 2.185 5.009 3.793 3.793 0 0 0 1.412.27 3.861 3.861 0 0 0 3.6-2.454c.587-1.489 1.2-3.09 1.835-4.784h-8.28c-.253.648-.503 1.328-.752 1.959Z"/><path data-name="패스 43" d="M118.879 128.249a3.62 3.62 0 0 1 .688-.278 3.853 3.853 0 0 1 2.438.121c-1.211-.543-2.329-1.1-3.488-1.65a88.476 88.476 0 0 0-6.9 5.295c.825.418 1.734.825 2.591 1.235 1.183-1.392 2.406-2.748 3.713-4.015a3.911 3.911 0 0 1 .958-.708Z"/><path data-name="패스 44" d="M137.431 134.22c-3.8-1.32-7.322-2.712-10.722-4.128 3.48 1.493 6.98 2.909 10.489 4.128 28.461 9.9 40.032 26.284 44.727 38.286l.093.245.052-.121c-5.146-13.253-17.168-28.855-44.639-38.41Z"/><path data-name="패스 45" d="M76.551 95.737a3.865 3.865 0 0 0-6.313 4.462c.531.752 10.259 14.2 34.2 27.7q3.09-2.812 6.417-5.343c-24.302-13.168-34.18-26.641-34.304-26.819Z"/><path data-name="패스 46" d="M118.52 126.442a169.048 169.048 0 0 1-7.66-3.882q-3.325 2.535-6.417 5.343a165.19 165.19 0 0 0 7.177 3.834 87.728 87.728 0 0 1 6.9-5.295Z"/><path data-name="패스 47" d="M294.129 100.199a3.866 3.866 0 0 0-6.321-4.454c-.125.177-9.881 13.627-34.286 26.827q3.319 2.529 6.4 5.331c23.948-13.502 33.676-26.952 34.207-27.704Z"/><path data-name="패스 48" d="M242.949 127.823a3.877 3.877 0 0 1 1.4.153 3.632 3.632 0 0 1 .64.253 3.924 3.924 0 0 1 1 .728 55.532 55.532 0 0 1 3.85 4.168c.97-.463 1.988-.921 2.917-1.388a87.557 87.557 0 0 0-6.892-5.291c-.972.464-1.909.922-2.915 1.377Z"/><path data-name="패스 49" d="M229.475 141.526c4.647-1.617 8.928-3.327 13.007-5.069-.04-.044-.072-.093-.113-.137a167.414 167.414 0 0 1-13.128 5.206c-39.291 13.667-43.185 40.217-43.185 50.191a30.564 30.564 0 0 0 .157 3.243l.254.225c-.568-4.398-3.195-37.59 43.008-53.659Z"/><path data-name="패스 50" d="M252.75 131.738c2.535-1.271 4.9-2.551 7.177-3.834q-3.084-2.806-6.4-5.331c-2.4 1.3-4.969 2.591-7.664 3.874a88.422 88.422 0 0 1 6.887 5.291Z"/><path data-name="패스 51" d="M168.8 137.591a10.5 10.5 0 0 0 6.691-2.394 10.552 10.552 0 0 0 13.385 0 10.554 10.554 0 0 0 17.248-8.163 3.866 3.866 0 0 0-7.733 0 2.825 2.825 0 1 1-5.649 0 3.866 3.866 0 0 0-7.733 0 2.826 2.826 0 1 1-5.653 0 3.866 3.866 0 0 0-7.733 0 2.825 2.825 0 1 1-5.649 0 3.866 3.866 0 0 0-7.733 0 10.569 10.569 0 0 0 10.559 10.557Z"/><path data-name="패스 52" d="M122.005 128.093c1.5.68 3.114 1.336 4.7 2-1.473-.636-2.949-1.243-4.406-1.919a2.716 2.716 0 0 0-.294-.081Z"/><path data-name="패스 53" d="M241.597 128.173a158.867 158.867 0 0 1-14.894 6.047c-27.471 9.555-39.489 25.158-44.634 38.41.04.109.072.213.113.322 5.077-13.321 17.059-29.1 44.755-38.732a187.518 187.518 0 0 0 16.013-6.4 3.882 3.882 0 0 0-1.348.346Z"/><path data-name="패스 54" d="M256.612 174.542c0 28.4-19.344 51.506-43.114 51.506a38.579 38.579 0 0 1-25.54-10.034 44.136 44.136 0 0 0-3.3 2.925 3.861 3.861 0 0 1-5.419 0 43.742 43.742 0 0 0-3.3-2.925 38.579 38.579 0 0 1-25.54 10.034c-23.77 0-43.109-23.106-43.109-51.506 0-14.669 5.162-28.444 14.242-38.225a166.711 166.711 0 0 0 13.124 5.206c39.118 13.611 43.23 39.509 43.23 49.788a31.4 31.4 0 0 1-.193 3.641c.084-.076.173-.153.257-.234.624-5.85 1.794-37.589-43.061-53.2a193.373 193.373 0 0 1-20.684-8.55c-9.35 11.04-14.649 25.874-14.649 41.569 0 32.665 22.808 59.235 50.842 59.235a46.384 46.384 0 0 0 31.554-12.758 46.374 46.374 0 0 0 31.547 12.762c28.034 0 50.842-26.57 50.842-59.235 0-15.622-5.238-30.392-14.508-41.416q-3.512 1.69-7.351 3.327c9.004 9.774 14.13 23.485 14.13 38.09Z"/><path data-name="패스 55" d="M177.953 194.718c.233-.209.475-.41.7-.628a53.493 53.493 0 0 1 3.524-21.138c-.04-.109-.072-.213-.113-.322l-.052.121-.093-.246c-4.7-12-16.266-28.384-44.727-38.285-3.508-1.219-7.009-2.635-10.489-4.128-1.589-.664-3.2-1.32-4.7-2a3.854 3.854 0 0 0-2.438-.121 3.628 3.628 0 0 0-.688.278 3.915 3.915 0 0 0-.958.708c-1.308 1.267-2.531 2.623-3.713 4.015a193.427 193.427 0 0 0 20.684 8.549c44.857 15.607 43.686 47.347 43.063 53.197Z"/><path data-name="패스 56" d="M244.985 128.229a3.672 3.672 0 0 0-.64-.254 3.88 3.88 0 0 0-1.4-.153 189.379 189.379 0 0 1-16.013 6.4c-27.7 9.636-39.678 25.411-44.755 38.732a53.241 53.241 0 0 1 3.508 21.537c.173.161.35.314.523.471a30.546 30.546 0 0 1-.157-3.243c0-9.974 3.895-36.523 43.186-50.195 4.394-1.529 8.8-3.275 13.128-5.206.04.044.072.092.113.137q3.838-1.642 7.351-3.327a55.567 55.567 0 0 0-3.85-4.168 3.925 3.925 0 0 0-.994-.731Z"/><path data-name="패스 57" d="M178.655 194.09c.189-.181.394-.338.583-.523a3.861 3.861 0 0 1 5.419 0c.334.326.692.607 1.03.921a53.242 53.242 0 0 0-3.505-21.532 53.49 53.49 0 0 0-3.527 21.134Z"/><path data-name="패스 58" d="M141.744 164.51a20.364 20.364 0 1 0 20.366 20.362 20.362 20.362 0 0 0-20.366-20.362Zm0 32.939a12.577 12.577 0 1 1 12.577-12.58 12.592 12.592 0 0 1-12.577 12.577Z"/><path data-name="패스 59" d="M201.55 184.869a20.364 20.364 0 1 0 20.362-20.359 20.363 20.363 0 0 0-20.362 20.359Zm33.22 0a12.577 12.577 0 1 1-12.577-12.577 12.592 12.592 0 0 1 12.577 12.577Z"/><path data-name="패스 60" d="M104.001 284.832a45878.69 45878.69 0 0 0-12.935 39.2 390.88 390.88 0 0 0 4.164 11.857c.064-.129.141-.209.2-.35h.008l.028-.089c.06-.149.117-.3.173-.467a3.353 3.353 0 0 0 .117-.439c.917-2.824 4.237-12.931 15.59-47.3 18.378-55.626-27.145-77.436-35.8-81.013-.354 2.583-.656 5.25-.917 7.97 10.672 4.733 44.813 23.9 29.372 70.631Z"/><path data-name="패스 61" d="M69.228 208.087a3.863 3.863 0 0 0 2.4 4.912c.27.093 1.372.491 3 1.211.261-2.72.563-5.387.917-7.97a32.503 32.503 0 0 0-1.4-.551 3.857 3.857 0 0 0-4.917 2.398Z"/><path data-name="패스 62" d="M90.717 325.092c-1.11 3.388-1.782 5.435-2.173 6.638-.089.266-.193.6-.294.966l-.145.422.036.016c-.394 1.746-.422 4.084 2.358 5.013a4.245 4.245 0 0 0 1.308.213 3.79 3.79 0 0 0 3.422-2.474 380.224 380.224 0 0 1-4.164-11.857c-.111.351-.244.745-.348 1.063Z"/><path data-name="패스 63" d="M260.664 284.831c-15.256-46.175 18.117-65.507 29.088-70.48a210.34 210.34 0 0 0-.909-7.994c-9.322 3.923-53.707 25.854-35.518 80.9 11.354 34.367 14.669 44.473 15.586 47.3a4.185 4.185 0 0 0 .121.439c.056.165.113.318.173.467l.024.089h.008l.016.028a404.445 404.445 0 0 0 4.2-11.993c-2.309-7.008-6.199-18.821-12.789-38.756Z"/><path data-name="패스 64" d="M272.862 338.362a4.268 4.268 0 0 0 1.308-.213c2.78-.929 2.752-3.267 2.358-5.013l.036-.016-.145-.422c-.1-.37-.209-.7-.294-.966-.394-1.2-1.062-3.251-2.177-6.638-.149-.459-.33-1.006-.5-1.517a383.711 383.711 0 0 1-4.2 11.994c.967 2.284 2.475 2.791 3.614 2.791Z"/><path data-name="패스 65" d="M293.047 212.997a3.864 3.864 0 0 0-2.519-7.306c-.056.02-.672.241-1.686.668.35 2.591.648 5.266.909 7.994 1.792-.814 3.011-1.256 3.296-1.356Z"/><path data-name="패스 66" d="M394.141 136.545a26.1 26.1 0 0 0 11.679-2.728 3.864 3.864 0 0 0 0-6.928 18.635 18.635 0 0 1 0-33.413 3.867 3.867 0 0 0 0-6.932 26.365 26.365 0 1 0-11.679 50Zm0-45c.406 0 .813.012 1.215.04a26.426 26.426 0 0 0 0 37.187c-.4.024-.809.036-1.215.036a18.632 18.632 0 0 1 0-37.264Z"/><path data-name="패스 67" d="m34.725 118.219-18.02 18.024a3.865 3.865 0 0 0 5.468 5.464l11.422-11.422v-9.334a3.866 3.866 0 0 1 1.13-2.732Z"/><path data-name="패스 68" d="m41.327 130.285 11.426 11.422a3.864 3.864 0 1 0 5.464-5.464l-18.02-18.024a3.849 3.849 0 0 1 1.131 2.732Z"/><path data-name="패스 69" d="M35.97 117.387a3.829 3.829 0 0 1 1.489-.3 3.832 3.832 0 0 0-1.489.3Z"/><path data-name="패스 70" d="M37.46 117.085a3.829 3.829 0 0 1 1.489.3 3.817 3.817 0 0 0-1.489-.3Z"/><path data-name="패스 71" d="M16.704 154.264a3.866 3.866 0 1 0 5.468 5.468l11.422-11.422v-10.936Z"/><path data-name="패스 72" d="M52.753 159.731a3.865 3.865 0 0 0 5.464-5.468l-16.89-16.89v10.935Z"/><path data-name="패스 73" d="M16.704 172.289a3.866 3.866 0 0 0 5.468 5.468l11.422-11.426v-10.932Z"/><path data-name="패스 74" d="M52.753 177.756a3.865 3.865 0 0 0 5.464-5.468l-16.89-16.89v10.931Z"/><path data-name="패스 75" d="M33.594 166.329v47.583a3.866 3.866 0 1 0 7.733 0v-47.583l-3.866-3.862Z"/><path data-name="패스 76" d="M35.971 117.387a3.809 3.809 0 0 0-1.247.833 3.837 3.837 0 0 1 1.247-.833Z"/><path data-name="패스 77" d="M34.729 154.264a3.865 3.865 0 0 1 5.464 0l1.135 1.135v-7.089l-3.866-3.866-3.866 3.866v7.089Z"/><path data-name="패스 78" d="M40.196 118.22a3.809 3.809 0 0 0-1.247-.833 3.8 3.8 0 0 1 1.243.833Z"/><path data-name="패스 79" d="m40.192 136.244 1.135 1.131v-7.086l-3.866-3.866-3.867 3.866v7.089l1.135-1.131a3.856 3.856 0 0 1 5.463-.003Z"/><path data-name="패스 80" d="M41.327 130.285v-9.334a3.85 3.85 0 0 0-1.131-2.732 3.846 3.846 0 0 0-4.22-.833 3.841 3.841 0 0 0-1.243.833 3.866 3.866 0 0 0-1.131 2.732v9.334l3.866-3.866Z"/><path data-name="패스 81" d="M41.327 148.309v-10.935l-1.135-1.131a3.856 3.856 0 0 0-5.464 0l-1.135 1.131v10.935l3.866-3.866Z"/><path data-name="패스 82" d="M37.46 153.133a3.861 3.861 0 0 0-2.732 1.131l-1.135 1.135v10.931l3.866-3.862 3.866 3.862v-10.932l-1.133-1.135a3.861 3.861 0 0 0-2.732-1.13Z"/><path data-name="패스 83" d="m407.34 209.214-18.02 18.02a3.866 3.866 0 0 0 5.468 5.468l11.422-11.426v-9.33a3.866 3.866 0 0 1 1.13-2.732Z"/><path data-name="패스 84" d="M408.588 208.381a3.824 3.824 0 0 1 1.489-.3 3.829 3.829 0 0 0-1.489.3Z"/><path data-name="패스 85" d="M411.565 208.381a3.83 3.83 0 0 0-1.489-.3 3.825 3.825 0 0 1 1.489.3Z"/><path data-name="패스 86" d="m413.945 221.276 11.424 11.429a3.865 3.865 0 0 0 5.464-5.468l-18.02-18.02a3.849 3.849 0 0 1 1.13 2.732Z"/><path data-name="패스 87" d="M425.369 250.726a3.865 3.865 0 0 0 5.464-5.468l-16.89-16.89v10.931Z"/><path data-name="패스 88" d="M389.321 245.259a3.866 3.866 0 0 0 5.468 5.468l11.421-11.428v-10.93Z"/><path data-name="패스 89" d="M425.369 268.75a3.865 3.865 0 1 0 5.464-5.468l-16.89-16.89v10.931Z"/><path data-name="패스 90" d="M389.321 263.283a3.866 3.866 0 1 0 5.468 5.468l11.422-11.426v-10.932Z"/><path data-name="패스 91" d="M408.587 208.379a3.809 3.809 0 0 0-1.247.833 3.823 3.823 0 0 1 1.247-.833Z"/><path data-name="패스 92" d="M412.808 209.214a3.813 3.813 0 0 0-1.247-.833 3.782 3.782 0 0 1 1.243.829Z"/><path data-name="패스 93" d="M406.21 257.324v47.583a3.866 3.866 0 1 0 7.733 0v-47.583l-3.866-3.866Z"/><path data-name="패스 94" d="M406.21 239.3v7.093l1.135-1.135a3.863 3.863 0 0 1 5.464 0l1.134 1.135V239.3l-3.866-3.866Z"/><path data-name="패스 95" d="M406.21 221.275v7.093l1.135-1.135a3.866 3.866 0 0 1 5.464 0l1.134 1.135v-7.093l-3.866-3.866Z"/><path data-name="패스 96" d="M408.584 208.381a3.825 3.825 0 0 0-1.243.829 3.866 3.866 0 0 0-1.131 2.732v9.33l3.866-3.866 3.866 3.866v-9.33a3.849 3.849 0 0 0-1.13-2.732 3.784 3.784 0 0 0-1.243-.829 3.821 3.821 0 0 0-2.977 0Z"/><path data-name="패스 97" d="M410.076 226.104a3.861 3.861 0 0 0-2.732 1.131l-1.135 1.135v10.927l3.866-3.866 3.866 3.866v-10.928l-1.134-1.135a3.86 3.86 0 0 0-2.731-1.13Z"/><path data-name="패스 98" d="m407.345 245.258-1.135 1.135v10.931l3.866-3.866 3.866 3.866v-10.931l-1.134-1.135a3.863 3.863 0 0 0-5.463 0Z"/><path data-name="패스 99" d="M11.127 265.975h5.918v-7.733h-5.918a3.866 3.866 0 0 0 0 7.733Z"/><path data-name="패스 100" d="M30.697 265.975a3.866 3.866 0 0 0 0-7.733h-5.918v7.733Z"/><path data-name="패스 101" d="M17.048 271.893a3.866 3.866 0 0 0 7.733 0v-5.918h-7.733Z"/><path data-name="패스 102" d="M24.779 252.319a3.866 3.866 0 0 0-7.733 0v5.922h7.733Z"/><path data-name="사각형 7" d="M17.045 258.242h7.732v7.732h-7.732z"/><path data-name="패스 103" d="M344.669 223.348a3.866 3.866 0 0 0 0 7.733h3.146v-7.733Z"/><path data-name="패스 104" d="M358.699 231.081a3.866 3.866 0 0 0 0-7.733h-3.15v7.733Z"/><path data-name="패스 105" d="M351.682 238.093a3.865 3.865 0 0 0 3.866-3.866v-3.146h-7.733v3.146a3.865 3.865 0 0 0 3.867 3.866Z"/><path data-name="패스 106" d="M355.549 220.197a3.866 3.866 0 1 0-7.733 0v3.15h7.733Z"/><path data-name="사각형 8" d="M347.818 223.347h7.731v7.732h-7.731z"/><path data-name="패스 107" d="M263.489 83.31a3.866 3.866 0 1 0 0-7.733h-5.919v7.733Z"/><path data-name="패스 108" d="M243.914 83.31h5.922v-7.733h-5.922a3.866 3.866 0 0 0 0 7.733Z"/><path data-name="패스 109" d="M249.837 89.232a3.866 3.866 0 0 0 7.733 0V83.31h-7.733Z"/><path data-name="패스 110" d="M257.57 69.658a3.866 3.866 0 0 0-7.733 0v5.918h7.733Z"/><path data-name="사각형 9" d="M249.837 75.578h7.731v7.732h-7.731z"/><path data-name="패스 111" d="M322.698 114.048h1.919v-7.733h-1.919a3.866 3.866 0 1 0 0 7.733Z"/><path data-name="패스 112" d="M334.269 114.048a3.866 3.866 0 0 0 0-7.733h-1.919v7.733Z"/><path data-name="패스 113" d="M324.618 115.966a3.866 3.866 0 0 0 7.733 0v-1.919h-7.733Z"/><path data-name="패스 114" d="M332.351 104.395a3.866 3.866 0 0 0-7.733 0v1.919h7.733Z"/><path data-name="사각형 10" d="M324.618 106.316h7.732v7.732h-7.732z"/><path data-name="패스 115" d="M45.458 298.792a3.865 3.865 0 1 0 0 7.729h1.919v-7.729Z"/><path data-name="패스 116" d="M55.11 298.792v7.726h1.919a3.865 3.865 0 1 0 0-7.729Z"/><path data-name="패스 117" d="M47.378 308.444a3.866 3.866 0 1 0 7.733 0v-1.923h-7.733Z"/><path data-name="패스 118" d="M55.111 296.868a3.866 3.866 0 0 0-7.733 0v1.923h7.733Z"/><path data-name="사각형 11" d="M47.378 298.79h7.732v7.732h-7.732z"/><path data-name="패스 119" d="M327.382 172.832h14.025a10.537 10.537 0 0 0 10.151 13.316h35.944a10.525 10.525 0 1 0 0-21.05h-14.021a10.538 10.538 0 0 0-10.151-13.321h-35.948a10.525 10.525 0 1 0 0 21.05Zm0-13.317h35.948a2.794 2.794 0 0 1 0 5.588 3.865 3.865 0 1 0 0 7.729h24.172a2.794 2.794 0 1 1 0 5.588h-35.944a2.794 2.794 0 0 1 0-5.588 3.865 3.865 0 1 0 0-7.729h-24.176a2.794 2.794 0 0 1 0-5.588Z"/><path data-name="패스 120" d="M141.743 179.969a4.9 4.9 0 1 0 4.9 4.9 4.909 4.909 0 0 0-4.9-4.9Z"/><path data-name="패스 121" d="M141.744 176.931a7.938 7.938 0 1 0 7.938 7.938 7.941 7.941 0 0 0-7.938-7.938Zm0 12.838a4.9 4.9 0 1 1 4.9-4.9 4.906 4.906 0 0 1-4.9 4.9Z"/><path data-name="패스 122" d="M221.911 189.769a4.9 4.9 0 1 0-4.9-4.9 4.9 4.9 0 0 0 4.9 4.9Z"/><path data-name="패스 123" d="M222.193 192.807a7.938 7.938 0 1 0-7.938-7.938 7.935 7.935 0 0 0 7.938 7.938Zm-.282-12.838a4.9 4.9 0 1 1-4.9 4.9 4.907 4.907 0 0 1 4.9-4.901Z"/><path data-name="패스 124" d="M200.789 206.252a3.866 3.866 0 0 0-2.4-3.577 42.21 42.21 0 0 1-11.923-7.488c.028.217.052.386.064.459a3.873 3.873 0 0 1-3.174 4.446 3.944 3.944 0 0 1-.648.052c-.076 0-.145-.032-.217-.036a4.008 4.008 0 0 1-.539.008h-.084c-.072 0-.141.036-.213.036a3.821 3.821 0 0 1-.6-.052c-.1-.008-.193.012-.29 0a3.863 3.863 0 0 1-3.211-3.806 4.107 4.107 0 0 1 .056-.66c.016-.089.048-.346.089-.676a42.18 42.18 0 0 1-12.191 7.718 3.864 3.864 0 0 0 0 7.153 42.01 42.01 0 0 1 10.428 6.184 47.119 47.119 0 0 0 3.186-3.086 3.859 3.859 0 0 1 5.645 0 47.119 47.119 0 0 0 3.186 3.086 42.008 42.008 0 0 1 10.428-6.184 3.86 3.86 0 0 0 2.408-3.577Zm-18.837 4.687a50.463 50.463 0 0 0-6.449-4.687 50.455 50.455 0 0 0 6.449-4.687 49.753 49.753 0 0 0 6.445 4.687 50.134 50.134 0 0 0-6.445 4.687Z"/><path data-name="패스 125" d="M181.654 200.154c.072 0 .141-.032.213-.036a3.7 3.7 0 0 1-.817-.016 3.821 3.821 0 0 0 .604.052Z"/><path data-name="패스 126" d="M186.349 196.288a3.863 3.863 0 0 1-3.211 3.806 3.493 3.493 0 0 1-.648.012c.072 0 .141.036.217.036a3.935 3.935 0 0 0 .648-.052 3.873 3.873 0 0 0 3.174-4.446 15.654 15.654 0 0 1-.064-.459l-.253-.225c.04.374.076.644.081.668a3.69 3.69 0 0 1 .056.66Z"/><path data-name="패스 127" d="M181.949 211.7a3.876 3.876 0 0 0-2.824 1.227 47.119 47.119 0 0 1-3.186 3.086 44.058 44.058 0 0 1 3.3 2.925 3.862 3.862 0 0 0 5.419 0 43.938 43.938 0 0 1 3.3-2.925 46.877 46.877 0 0 1-3.186-3.086 3.867 3.867 0 0 0-2.823-1.227Z"/><path data-name="패스 128" d="M181.952 200.113a4.044 4.044 0 0 0 .539-.008c-.1-.008-.193-.04-.29-.052-.113.016-.217.052-.334.06.029-.004.057.008.085 0Z"/><path data-name="패스 129" d="M177.551 196.287a3.863 3.863 0 0 0 3.211 3.806c.1.016.189 0 .29 0h-.056a3.866 3.866 0 0 1-3.154-4.466c.016-.113.064-.435.113-.909-.084.08-.173.157-.257.233-.04.33-.072.587-.089.676a4.1 4.1 0 0 0-.058.66Z"/><path data-name="패스 130" d="M180.995 200.094h.056a3.711 3.711 0 0 0 .817.016c.117-.008.221-.044.334-.06a3.819 3.819 0 0 1-3.3-3.114 27.831 27.831 0 0 1-.249-2.848c-.229.217-.471.419-.7.628-.048.475-.1.8-.113.909a3.866 3.866 0 0 0 3.155 4.469Z"/><path data-name="패스 131" d="M182.202 200.053c.1.012.189.044.29.052a3.491 3.491 0 0 0 .648-.012 3.863 3.863 0 0 0 3.211-3.806 3.684 3.684 0 0 0-.056-.66c0-.024-.04-.294-.081-.668-.173-.157-.35-.31-.523-.471-.085 1.5-.221 2.39-.229 2.45a3.829 3.829 0 0 1-3.26 3.115Z"/><path data-name="패스 132" d="M179.24 193.567c-.189.185-.394.342-.583.523a27.819 27.819 0 0 0 .249 2.848 3.819 3.819 0 0 0 3.3 3.114 3.829 3.829 0 0 0 3.259-3.114c.008-.06.145-.95.229-2.45-.338-.314-.7-.6-1.03-.921a3.861 3.861 0 0 0-5.424 0Z"/><path data-name="패스 133" d="M203.094 339.802h-40.985a3.866 3.866 0 1 0 0 7.733h40.985a3.866 3.866 0 0 0 0-7.733Z"/><path data-name="패스 134" d="M145.61 266.152v-11.777a3.865 3.865 0 1 0-7.729 0v11.776a3.865 3.865 0 1 0 7.729 0Z"/><path data-name="패스 135" d="M222.193 250.509a3.868 3.868 0 0 0-3.866 3.866v11.776a3.866 3.866 0 1 0 7.733 0v-11.776a3.87 3.87 0 0 0-3.867-3.866Z"/><path data-name="패스 136" d="M195.378 270.018a3.864 3.864 0 0 0 3.862-3.866v-11.777a3.865 3.865 0 1 0-7.729 0v11.776a3.865 3.865 0 0 0 3.867 3.867Z"/><path data-name="패스 137" d="M168.558 270.018a3.865 3.865 0 0 0 3.866-3.866v-11.777a3.865 3.865 0 1 0-7.729 0v11.776a3.864 3.864 0 0 0 3.863 3.867Z"/><path data-name="패스 138" d="M191.512 319.83a3.865 3.865 0 1 0 7.729 0v-11.78a3.865 3.865 0 0 0-7.729 0Z"/><path data-name="패스 139" d="M164.699 319.83a3.865 3.865 0 1 0 7.729 0v-11.78a3.865 3.865 0 0 0-7.729 0Z"/><path data-name="패스 140" d="M208.767 278.141a3.865 3.865 0 0 0-3.866 3.866v11.78a3.866 3.866 0 1 0 7.733 0v-11.78a3.868 3.868 0 0 0-3.867-3.866Z"/><path data-name="패스 141" d="M185.815 293.787v-11.78a3.865 3.865 0 1 0-7.729 0v11.78a3.865 3.865 0 1 0 7.729 0Z"/><path data-name="패스 142" d="M159.004 282.007a3.866 3.866 0 0 0-7.733 0v11.78a3.866 3.866 0 1 0 7.733 0Z"/></g><path data-name="사각형 5526" fill="none" d="M0 0h463v466H0z"/></svg>