<svg data-name="구성 요소 4 – 1" xmlns="http://www.w3.org/2000/svg" width="149.253" height="40"><path data-name="패스 4" d="M64.259 14.981h.545c.083 0 .132-.033.132-.124v-2.355h.562l2.289 2.479a.119.119 0 0 0 .173 0l.421-.314a.118.118 0 0 0 .05-.1.28.28 0 0 0-.05-.1l-2.148-2.305 1.826-2.124a.136.136 0 0 0 .041-.1.13.13 0 0 0-.05-.091l-.413-.314a.12.12 0 0 0-.174 0l-1.892 2.239h-.636V9.657a.119.119 0 0 0-.132-.124h-.545a.113.113 0 0 0-.124.124v5.2c.001.091.042.124.125.124Z" fill="#fff"/><path data-name="패스 5" d="M72.436 14.683a1.228 1.228 0 0 0 .454.231 2.507 2.507 0 0 0 .57.066h1.363a2.5 2.5 0 0 0 .57-.066 1.17 1.17 0 0 0 .455-.231 1.093 1.093 0 0 0 .305-.43 1.53 1.53 0 0 0 .116-.636v-2.718a1.338 1.338 0 0 0-.38-1.016 1.534 1.534 0 0 0-1.066-.347H73.46a1.5 1.5 0 0 0-1.058.347 1.308 1.308 0 0 0-.38 1.016v2.718a1.549 1.549 0 0 0 .107.636 1.189 1.189 0 0 0 .307.43Zm.388-3.784a.566.566 0 0 1 .182-.487.7.7 0 0 1 .454-.157h1.363a.734.734 0 0 1 .454.157.592.592 0 0 1 .19.487v2.718a.6.6 0 0 1-.19.5.7.7 0 0 1-.454.149H73.46a.665.665 0 0 1-.438-.157.543.543 0 0 1-.2-.487Z" fill="#fff"/><path data-name="패스 6" d="M80.282 14.981h.545c.083 0 .132-.033.132-.124v-4.04a.667.667 0 0 1 .066-.281.608.608 0 0 1 .173-.19.5.5 0 0 1 .322-.091h1.479a.644.644 0 0 1 .4.14.439.439 0 0 1 .165.347v.645c0 .033-.009.074-.009.115a.679.679 0 0 1-.066.182.415.415 0 0 1-.165.149.558.558 0 0 1-.305.074h-1.14a.508.508 0 0 0-.231.058.384.384 0 0 0-.14.141.269.269 0 0 0-.033.19.324.324 0 0 0 .1.2l2.115 2.487a.1.1 0 0 0 .156.033l.438-.273a.169.169 0 0 0 .074-.091.184.184 0 0 0-.033-.107l-1.644-1.916h.339a1.571 1.571 0 0 0 .6-.107 1.375 1.375 0 0 0 .413-.29 1.077 1.077 0 0 0 .248-.4 1.378 1.378 0 0 0 .083-.446v-.645a1.122 1.122 0 0 0-.107-.463 1.406 1.406 0 0 0-.281-.388 1.841 1.841 0 0 0-.43-.256 1.716 1.716 0 0 0-.545-.091h-1.48a1.559 1.559 0 0 0-.636.124 1.471 1.471 0 0 0-.421.331 1.2 1.2 0 0 0-.24.421 1.524 1.524 0 0 0-.066.4v4.04c0 .092.041.122.124.122Z" fill="#fff"/><path data-name="패스 7" d="M88.608 14.683a1.241 1.241 0 0 0 .455.231 2.581 2.581 0 0 0 .579.066h2.28a.11.11 0 0 0 .124-.124v-.463a.119.119 0 0 0-.124-.132h-2.28a.54.54 0 0 1-.223-.041.567.567 0 0 1-.207-.116.469.469 0 0 1-.157-.2.725.725 0 0 1-.05-.289v-1.116h2.677a.116.116 0 0 0 .124-.132v-.463a.12.12 0 0 0-.124-.132h-2.677v-.875a.724.724 0 0 1 .05-.289.466.466 0 0 1 .157-.2.718.718 0 0 1 .207-.116.7.7 0 0 1 .223-.041h2.2a.115.115 0 0 0 .132-.124v-.471a.119.119 0 0 0-.132-.124h-2.2a1.5 1.5 0 0 0-1.058.347 1.308 1.308 0 0 0-.38 1.016v2.718a1.549 1.549 0 0 0 .107.636 1.082 1.082 0 0 0 .297.434Z" fill="#fff"/><path data-name="패스 8" d="m95.719 14.906.546.075a.093.093 0 0 0 .091-.025.139.139 0 0 0 .049-.09l.281-1.769h2.561l.289 1.769a.105.105 0 0 0 .041.09.1.1 0 0 0 .1.025l.545-.075a.127.127 0 0 0 .091-.058.23.23 0 0 0 .025-.107l-.562-3.487c-.008-.033-.017-.1-.033-.2s-.058-.206-.091-.339c-.049-.124-.09-.256-.157-.4a3.189 3.189 0 0 0-.256-.389 1.67 1.67 0 0 0-.372-.289 1.185 1.185 0 0 0-.5-.107h-.8a1.132 1.132 0 0 0-.5.107 1.5 1.5 0 0 0-.372.289 1.95 1.95 0 0 0-.247.389 1.871 1.871 0 0 0-.157.4 1.775 1.775 0 0 0-.091.339 1.412 1.412 0 0 0-.041.2l-.562 3.487a.126.126 0 0 0 .025.107.1.1 0 0 0 .097.058Zm1.247-3.528a2.362 2.362 0 0 1 .066-.33 2.813 2.813 0 0 1 .124-.364.925.925 0 0 1 .174-.305.291.291 0 0 1 .24-.124h.8a.313.313 0 0 1 .24.124 1.085 1.085 0 0 1 .174.305 2.745 2.745 0 0 1 .124.364c.033.132.05.24.066.33l.157 1H96.81Z" fill="#fff"/><path data-name="패스 9" d="M104.177 14.981h.545c.083 0 .132-.033.132-.124v-4.6c.05 0 .1.008.141.008a.818.818 0 0 1 .082.041.405.405 0 0 1 .05.066.409.409 0 0 0 .05.107l1.6 4.023a.613.613 0 0 0 .347.38 1.431 1.431 0 0 0 .611.1h.438a.332.332 0 0 0 .265-.1.355.355 0 0 0 .1-.256V9.66a.119.119 0 0 0-.132-.124h-.545a.113.113 0 0 0-.124.124v4.6a.229.229 0 0 1-.182-.058.374.374 0 0 1-.14-.182l-1.6-4.024a.754.754 0 0 0-.314-.371 1.433 1.433 0 0 0-.57-.091h-.479a.46.46 0 0 0-.281.124.42.42 0 0 0-.115.273v4.924c-.003.096.038.126.121.126Z" fill="#fff"/><path data-name="패스 10" d="M118.25 14.981h.545c.082 0 .132-.033.132-.124v-1.876h2a2.093 2.093 0 0 0 .57-.075 1.09 1.09 0 0 0 .455-.239 1.039 1.039 0 0 0 .305-.413 1.588 1.588 0 0 0 .116-.636v-.719a1.364 1.364 0 0 0-.38-1.016 1.532 1.532 0 0 0-1.066-.347h-1.156a1.844 1.844 0 0 0-1.248.347 1.254 1.254 0 0 0-.4 1.008v3.966c.003.094.044.124.127.124Zm.678-4.09a.51.51 0 0 1 .231-.479 1.074 1.074 0 0 1 .612-.157h1.156a.739.739 0 0 1 .446.149.613.613 0 0 1 .2.5v.719a.57.57 0 0 1-.645.644h-2Z" fill="#fff"/><path data-name="패스 11" d="M127.642 14.981h1.206a1.953 1.953 0 0 0 .595-.083 1.425 1.425 0 0 0 .48-.264 1.317 1.317 0 0 0 .3-.463 1.776 1.776 0 0 0 .108-.628V9.66a.117.117 0 0 0-.124-.124h-.546a.116.116 0 0 0-.132.124v3.883a.738.738 0 0 1-.181.537.694.694 0 0 1-.5.182h-1.206a.648.648 0 0 1-.487-.182.678.678 0 0 1-.19-.537V9.66a.119.119 0 0 0-.132-.124h-.545a.113.113 0 0 0-.124.124v3.883a1.367 1.367 0 0 0 .405 1.082 1.558 1.558 0 0 0 1.073.356Z" fill="#fff"/><path data-name="패스 12" d="M134.613 14.981h2.412a1.553 1.553 0 0 0 1.041-.38 1.254 1.254 0 0 0 .4-.9v-.677a.882.882 0 0 0-.157-.5 1.68 1.68 0 0 0-.363-.364 1.233 1.233 0 0 0 .314-.38 1.272 1.272 0 0 0 .124-.57v-.479a1.132 1.132 0 0 0-.091-.421 1.15 1.15 0 0 0-.28-.4 1.936 1.936 0 0 0-.487-.281 2.489 2.489 0 0 0-.7-.1h-2.206a.46.46 0 0 0-.281.091.366.366 0 0 0-.115.256v4.742a.339.339 0 0 0 .115.256.381.381 0 0 0 .274.107Zm.4-4.726h1.8a1.265 1.265 0 0 1 .389.05 1.6 1.6 0 0 1 .24.124 1.3 1.3 0 0 1 .107.165.6.6 0 0 1 .025.14v.479a.585.585 0 0 1-.107.355.625.625 0 0 1-.289.206h-2.165Zm0 2.247h2.087a.619.619 0 0 1 .38.14.482.482 0 0 1 .181.38v.677a.411.411 0 0 1-.074.256.66.66 0 0 1-.165.174.962.962 0 0 1-.215.1.608.608 0 0 1-.19.034h-2Z" fill="#fff"/><path data-name="패스 13" d="M71.312 18.909h-1.7v1.529h-10.08v-1.534h-1.7v6.749H71.31Zm-1.7 5.174h-10.08v-2.086h10.082Z" fill="#fff"/><path data-name="사각형 2" fill="#fff" d="M56.239 27.438h16.668v1.595H56.239z"/><path data-name="패스 14" d="M64.583 29.933a1.3 1.3 0 0 0-.92.368 1.222 1.222 0 0 0-.389.92 1.149 1.149 0 0 0 .389.9 1.162 1.162 0 0 0 .92.389 1.254 1.254 0 0 0 .921-.389 1.2 1.2 0 0 0 .368-.9 1.283 1.283 0 0 0-.368-.92 1.414 1.414 0 0 0-.921-.368Z" fill="#fff"/><path data-name="패스 15" d="M82.049 27.008a4.311 4.311 0 0 0-1.309.757 3.382 3.382 0 0 0-.879 1.166 3.14 3.14 0 0 0-.348 1.493 3.613 3.613 0 0 0 1.227 2.659 3.885 3.885 0 0 0 1.309.736 5.1 5.1 0 0 0 3.252 0 4.191 4.191 0 0 0 1.329-.736 4.242 4.242 0 0 0 .9-1.166 3.551 3.551 0 0 0 .327-1.493 3.7 3.7 0 0 0-.327-1.493 4.942 4.942 0 0 0-.9-1.166 4.683 4.683 0 0 0-1.329-.757 5.336 5.336 0 0 0-1.616-.246 5.276 5.276 0 0 0-1.636.246Zm3.436 1.861a2.44 2.44 0 0 1 .532.7 2.118 2.118 0 0 1 .2.859 1.969 1.969 0 0 1-.2.859 2.181 2.181 0 0 1-.532.7 2.852 2.852 0 0 1-2.8.45 2.229 2.229 0 0 1-.777-.45 2.045 2.045 0 0 1-.572-.7 1.96 1.96 0 0 1-.184-.859 2.094 2.094 0 0 1 .184-.859 2.266 2.266 0 0 1 .572-.7 2.637 2.637 0 0 1 .777-.47 3.089 3.089 0 0 1 1.984 0 3.185 3.185 0 0 1 .816.467Z" fill="#fff"/><path data-name="패스 16" d="M86.606 23.695a1.249 1.249 0 0 0 .92-.368 1.218 1.218 0 0 0 .347-.879 1.378 1.378 0 0 0-.347-.9 1.317 1.317 0 0 0-.92-.347 1.155 1.155 0 0 0-.88.347 1.3 1.3 0 0 0-.368.9 1.158 1.158 0 0 0 .368.879 1.1 1.1 0 0 0 .88.368Z" fill="#fff"/><path data-name="사각형 3" fill="#fff" d="M88.921 17.928h1.698v9.715h-1.698z"/><path data-name="패스 17" d="M75.546 22.283a2.982 2.982 0 0 0 .348 1.493 2.833 2.833 0 0 0 .879 1.145 3.337 3.337 0 0 0 1.309.757 4.753 4.753 0 0 0 3.252 0 3.575 3.575 0 0 0 1.33-.757 3.854 3.854 0 0 0 .9-1.145 3.481 3.481 0 0 0 .327-1.493 3.531 3.531 0 0 0-.327-1.472 4.654 4.654 0 0 0-.9-1.186 5.25 5.25 0 0 0-1.33-.757 6.068 6.068 0 0 0-1.616-.245 5.971 5.971 0 0 0-1.636.245 4.786 4.786 0 0 0-1.309.757 3.266 3.266 0 0 0-.879 1.186 3.012 3.012 0 0 0-.348 1.472Zm2.413-1.554a2.6 2.6 0 0 1 1.759-.573 2.692 2.692 0 0 1 1.779.573 2.107 2.107 0 0 1 0 3.129 2.7 2.7 0 0 1-1.779.572 2.6 2.6 0 0 1-1.759-.572 2.068 2.068 0 0 1 0-3.129Z" fill="#fff"/><path data-name="사각형 4" fill="#fff" d="M107.634 18.316h1.698v14.888h-1.698z"/><path data-name="패스 18" d="M95.098 28.828a4.147 4.147 0 0 0 1.616 1.1 4.874 4.874 0 0 0 2 .388 5.181 5.181 0 0 0 2.025-.388 4.651 4.651 0 0 0 1.616-1.1 4.867 4.867 0 0 0 1.043-1.656 5.849 5.849 0 0 0 .389-2.106 5.937 5.937 0 0 0-.389-2.107 4.816 4.816 0 0 0-2.659-2.761 5.574 5.574 0 0 0-2.025-.389 5.226 5.226 0 0 0-2 .389 4.816 4.816 0 0 0-2.659 2.761 5.513 5.513 0 0 0-.389 2.107 5.438 5.438 0 0 0 .389 2.106 4.324 4.324 0 0 0 1.043 1.656Zm.511-5.236a3.551 3.551 0 0 1 .654-1.145 3.114 3.114 0 0 1 2.454-1.043 3.472 3.472 0 0 1 1.411.266 4.085 4.085 0 0 1 1.064.777 4.557 4.557 0 0 1 .674 1.145 5.021 5.021 0 0 1 .2 1.473 4.742 4.742 0 0 1-.2 1.472 3.686 3.686 0 0 1-.674 1.145 3.044 3.044 0 0 1-1.064.777 3.172 3.172 0 0 1-1.411.286 2.969 2.969 0 0 1-1.391-.286 2.575 2.575 0 0 1-1.064-.777 3.009 3.009 0 0 1-.654-1.145 4.2 4.2 0 0 1-.225-1.472 4.44 4.44 0 0 1 .226-1.473Z" fill="#fff"/><path data-name="패스 19" d="M129.292 21.486a1.143 1.143 0 0 0-.9.368 1.268 1.268 0 0 0-.368.9 1.114 1.114 0 0 0 .368.859 1.093 1.093 0 0 0 .9.389 1.147 1.147 0 0 0 .9-.389 1.169 1.169 0 0 0 .348-.859 1.337 1.337 0 0 0-.348-.9 1.2 1.2 0 0 0-.9-.368Z" fill="#fff"/><path data-name="사각형 5" fill="#fff" d="M125.161 17.928h1.698v9.919h-1.698z"/><path data-name="패스 20" d="M115.078 28.337h-1.7v4.765h14.663v-1.6h-12.963Z" fill="#fff"/><path data-name="패스 21" d="m117.349 21.2 4.274 5.256 1.186-1.186-5.481-6.544-5.256 6.544 1.186 1.186Z" fill="#fff"/><path data-name="패스 22" d="M139.436 26.766a5.1 5.1 0 0 0-1.636.246 4.08 4.08 0 0 0-1.309.757 3.731 3.731 0 0 0-.9 1.166 3.385 3.385 0 0 0-.327 1.493 3.261 3.261 0 0 0 .327 1.493 3.324 3.324 0 0 0 .9 1.166 3.7 3.7 0 0 0 1.309.736 4.163 4.163 0 0 0 1.636.266 4.316 4.316 0 0 0 1.616-.266 4.431 4.431 0 0 0 1.33-.736 4.694 4.694 0 0 0 .9-1.166 3.892 3.892 0 0 0 .306-1.493 4.061 4.061 0 0 0-.306-1.493 5.572 5.572 0 0 0-.9-1.166 4.988 4.988 0 0 0-1.33-.757 5.332 5.332 0 0 0-1.616-.246Zm2.332 2.8a2.118 2.118 0 0 1 .2.859 1.97 1.97 0 0 1-.2.859 2.976 2.976 0 0 1-.532.7 2.9 2.9 0 0 1-.818.45 2.7 2.7 0 0 1-.982.184 2.65 2.65 0 0 1-1-.184 2.33 2.33 0 0 1-.8-.45 2.246 2.246 0 0 1-.552-.7 1.719 1.719 0 0 1-.2-.859 1.83 1.83 0 0 1 .2-.859 2.52 2.52 0 0 1 .552-.7 2.761 2.761 0 0 1 .8-.47 3.127 3.127 0 0 1 1-.164 3.2 3.2 0 0 1 .982.164 3.582 3.582 0 0 1 .818.47 3.491 3.491 0 0 1 .533.7Z" fill="#fff"/><path data-name="패스 23" d="m132.196 25.903 3.866-3.62 3.844 3.62 1.207-1.125a30.307 30.307 0 0 1-2.413-2.168 89.69 89.69 0 0 0-2.413-2.208h4.336v-1.575h-9.121v1.575h4.336l-4.826 4.4Z" fill="#fff"/><path data-name="사각형 6" fill="#fff" d="M143.874 17.928h1.698v9.51h-1.698z"/><path data-name="패스 24" d="M148.005 23.593a1.2 1.2 0 0 0 .9-.368 1.217 1.217 0 0 0 .348-.879 1.291 1.291 0 0 0-.348-.88 1.2 1.2 0 0 0-.9-.368 1.142 1.142 0 0 0-.9.368 1.222 1.222 0 0 0-.368.88 1.155 1.155 0 0 0 .368.879 1.142 1.142 0 0 0 .9.368Z" fill="#fff"/><path data-name="패스 25" d="M.463 40a.457.457 0 0 0 .181-.038c3.253-1.386 4.682-2.98 5.512-6.217h5.533a.462.462 0 1 0 0-.925h-.748l.089.234a.462.462 0 0 1-.86.339c-.07-.178-.144-.37-.219-.572H5.794a.463.463 0 0 0-.45.357c-.653 2.784-1.616 4.466-5.062 5.935a.462.462 0 0 0 .181.888Z" fill="#fff"/><path data-name="패스 26" d="M45.289 33.746h2.64c.83 3.238 2.259 4.832 5.512 6.217a.457.457 0 0 0 .181.038.462.462 0 0 0 .181-.888c-3.447-1.469-4.409-3.151-5.062-5.935a.462.462 0 0 0-.45-.357h-2.47l-.076.528a.462.462 0 0 1-.456.397Z" fill="#fff"/><path data-name="패스 27" d="M31.675 33.686a.453.453 0 0 1-.169-.032.462.462 0 0 1-.261-.6c.03-.076.06-.157.089-.234h-.772a.462.462 0 1 0 0 .925h11.283a.462.462 0 0 1-.457-.4l-.076-.528h-1.667a4.236 4.236 0 0 1-.381.672.461.461 0 0 1-.376.194h-2.463a.461.461 0 0 1-.376-.194 4.236 4.236 0 0 1-.381-.672h-3.343c-.076.2-.149.394-.219.572a.462.462 0 0 1-.431.297Z" fill="#fff"/><path data-name="패스 28" d="M14.098 31.291a.462.462 0 0 0-.624.193 4.317 4.317 0 0 0-.182 3.712.463.463 0 0 0 .428.287.452.452 0 0 0 .176-.035.462.462 0 0 0 .252-.6 3.407 3.407 0 0 1 .145-2.93.462.462 0 0 0-.195-.627Z" fill="#fff"/><path data-name="패스 29" d="M16.356 31.291a.461.461 0 0 0-.193.624 3.408 3.408 0 0 1 .145 2.93.462.462 0 0 0 .252.6.454.454 0 0 0 .176.035.463.463 0 0 0 .428-.287 4.317 4.317 0 0 0-.182-3.712.462.462 0 0 0-.626-.19Z" fill="#fff"/><path data-name="패스 30" d="M15.227 31.237a.462.462 0 0 0-.462.462v3.321a.462.462 0 0 0 .925 0v-3.321a.462.462 0 0 0-.463-.462Z" fill="#fff"/><path data-name="패스 31" d="M25.92 31.291a.462.462 0 0 0-.624.193 4.317 4.317 0 0 0-.182 3.712.462.462 0 0 0 .428.287.454.454 0 0 0 .176-.035.462.462 0 0 0 .252-.6 3.408 3.408 0 0 1 .145-2.93.461.461 0 0 0-.195-.627Z" fill="#fff"/><path data-name="패스 32" d="M28.177 31.291a.462.462 0 0 0-.193.624 3.407 3.407 0 0 1 .145 2.93.462.462 0 0 0 .252.6.452.452 0 0 0 .176.035.463.463 0 0 0 .428-.287 4.317 4.317 0 0 0-.183-3.712.462.462 0 0 0-.625-.19Z" fill="#fff"/><path data-name="패스 33" d="M27.048 31.237a.462.462 0 0 0-.462.462v3.321a.462.462 0 0 0 .925 0v-3.321a.462.462 0 0 0-.463-.462Z" fill="#fff"/><path data-name="패스 34" d="M40.294 29.568a6.251 6.251 0 0 0-1.4-4.358l.141-1.755a.462.462 0 0 0-.46-.5H36.74a.462.462 0 0 0-.46.5l.141 1.755a6.251 6.251 0 0 0-1.4 4.358 7.894 7.894 0 0 0 .65 3.253h3.98a7.894 7.894 0 0 0 .643-3.253Zm-3.623 3.194a6.468 6.468 0 0 1-.732-3.194c0-1.683.509-3.242 1.237-3.792a.461.461 0 0 0 .182-.406l-.12-1.491h.832l-.12 1.491a.462.462 0 0 0 .182.406c.728.55 1.237 2.109 1.237 3.792a6.468 6.468 0 0 1-.732 3.194Z" fill="#fff"/><path data-name="패스 35" d="M36.422 33.686h2.465a.461.461 0 0 0 .376-.194 4.236 4.236 0 0 0 .381-.672h-3.98a4.235 4.235 0 0 0 .381.672.461.461 0 0 0 .377.194Z" fill="#fff"/><path data-name="패스 36" d="M41.937 30.664h3.26l-.31 2.157h.934l.367-2.553a.463.463 0 0 0-.457-.528h-4.327a.463.463 0 0 0-.457.528l.367 2.553h.934Z" fill="#fff"/><path data-name="패스 37" d="M41.846 33.746h3.442a.462.462 0 0 0 .457-.4l.076-.528h-4.509l.076.528a.462.462 0 0 0 .458.4Z" fill="#fff"/><path data-name="패스 38" d="M33.892 16.806c.121-.051.195-.077.2-.08a.462.462 0 0 1 .3.874c-.034.012-.18.065-.394.162.083.864.131 1.778.131 2.761a37.088 37.088 0 0 1-2.08 10.3l.06.181.26.794c.01.032.023.071.035.115l.017.051a.45.45 0 0 1-.282.6.51.51 0 0 1-.156.025.461.461 0 0 1-.431-.334c-.071.193-.142.38-.214.565h.99c1.106-2.957 2.73-8.333 2.73-12.3 0-5.521-1.37-9.748-4.07-12.563a11.12 11.12 0 0 0-.552-.534c-.272.153-.555.306-.858.458 2.05 1.746 3.714 4.537 4.314 8.925Z" fill="#fff"/><path data-name="패스 39" d="M10.742 32.294a.453.453 0 0 1-.409.3.507.507 0 0 1-.156-.025.45.45 0 0 1-.282-.6l.017-.051c.012-.044.025-.084.035-.115l.26-.794.042-.126a37.2 37.2 0 0 1-2.1-10.353c0-.989.049-1.909.133-2.777a5.174 5.174 0 0 0-.359-.145.462.462 0 0 1 .3-.874c.006 0 .067.024.168.066.6-4.38 2.262-7.163 4.313-8.908-.3-.152-.586-.3-.858-.458a10.7 10.7 0 0 0-.552.534c-2.7 2.815-4.07 7.041-4.07 12.563 0 3.965 1.624 9.341 2.73 12.3h.99l-.202-.537Z" fill="#fff"/><path data-name="패스 40" d="M21.138 5.099a13.368 13.368 0 0 1 7.613 2.153c.322-.153.629-.308.916-.463a13.833 13.833 0 0 0-8.53-2.614 13.835 13.835 0 0 0-8.528 2.613c.287.156.594.31.916.464a13.368 13.368 0 0 1 7.613-2.153Z" fill="#fff"/><path data-name="패스 41" d="M10.769 33.654a.462.462 0 0 0 .261-.6c-.03-.076-.06-.156-.089-.234h-.99c.076.2.149.394.219.572a.462.462 0 0 0 .599.262Z" fill="#fff"/><path data-name="패스 42" d="M31.245 33.055a.462.462 0 0 0 .261.6.453.453 0 0 0 .169.032.462.462 0 0 0 .43-.293c.07-.178.144-.369.219-.572h-.99c-.029.076-.059.158-.089.233Z" fill="#fff"/><path data-name="패스 43" d="M13.569 7.468a.433.433 0 0 1 .082-.033.461.461 0 0 1 .292.014 10.748 10.748 0 0 1-.417-.2c-.28.194-.556.4-.825.633.1.05.207.1.31.148.141-.166.288-.329.444-.48a.468.468 0 0 1 .114-.082Z" fill="#fff"/><path data-name="패스 44" d="M15.787 8.182a22.388 22.388 0 0 1-1.282-.494c.416.178.835.348 1.254.494 3.4 1.184 4.786 3.143 5.348 4.578l.011.029.006-.014c-.615-1.586-2.053-3.451-5.337-4.593Z" fill="#fff"/><path data-name="패스 45" d="M8.509 3.581a.462.462 0 0 0-.755.533 12.96 12.96 0 0 0 4.089 3.312q.369-.336.767-.639a12.87 12.87 0 0 1-4.101-3.206Z" fill="#fff"/><path data-name="패스 46" d="M13.523 7.251a19.962 19.962 0 0 1-.916-.464q-.4.3-.767.639c.272.153.555.306.858.458q.407-.343.825-.633Z" fill="#fff"/><path data-name="패스 47" d="M34.522 4.114a.463.463 0 1 0-.756-.533 12.7 12.7 0 0 1-4.1 3.208q.4.3.766.637a12.96 12.96 0 0 0 4.09-3.312Z" fill="#fff"/><path data-name="패스 48" d="M28.403 7.415a.463.463 0 0 1 .167.018.435.435 0 0 1 .076.03.469.469 0 0 1 .119.087 6.641 6.641 0 0 1 .46.5c.116-.055.238-.11.349-.166a10.506 10.506 0 0 0-.824-.633c-.115.056-.227.111-.347.164Z" fill="#fff"/><path data-name="패스 49" d="M26.795 9.054c.556-.193 1.067-.4 1.555-.606l-.013-.016c-.518.231-1.044.44-1.57.622-4.7 1.635-5.163 4.809-5.163 6a3.653 3.653 0 0 0 .019.388l.03.027c-.071-.527-.385-4.493 5.142-6.415Z" fill="#fff"/><path data-name="패스 50" d="M29.575 7.885c.3-.152.586-.3.858-.458q-.369-.336-.766-.637c-.287.155-.594.31-.916.463.28.194.556.403.824.632Z" fill="#fff"/><path data-name="패스 51" d="M19.538 8.585a1.256 1.256 0 0 0 .8-.286 1.262 1.262 0 0 0 1.6 0A1.262 1.262 0 0 0 24 7.323a.462.462 0 0 0-.925 0 .338.338 0 1 1-.675 0 .462.462 0 0 0-.925 0 .338.338 0 1 1-.676 0 .462.462 0 0 0-.925 0 .338.338 0 1 1-.675 0 .462.462 0 0 0-.925 0 1.264 1.264 0 0 0 1.264 1.262Z" fill="#fff"/><path data-name="패스 52" d="M13.943 7.449c.18.081.372.16.562.239-.176-.076-.353-.149-.527-.229a.328.328 0 0 0-.035-.01Z" fill="#fff"/><path data-name="패스 53" d="M28.241 7.459a18.991 18.991 0 0 1-1.781.723c-3.285 1.142-4.721 3.008-5.337 4.592l.013.038c.607-1.593 2.04-3.479 5.351-4.631.7-.242 1.331-.5 1.915-.765a.464.464 0 0 0-.161.041Z" fill="#fff"/><path data-name="패스 54" d="M30.037 13.002c0 3.4-2.313 6.158-5.155 6.158a4.613 4.613 0 0 1-3.054-1.2 4.98 4.98 0 0 0-.394.35.462.462 0 0 1-.648 0 5.271 5.271 0 0 0-.394-.35 4.613 4.613 0 0 1-3.054 1.2c-2.842 0-5.154-2.763-5.154-6.158a6.717 6.717 0 0 1 1.7-4.57c.517.231 1.044.44 1.569.622 4.677 1.627 5.169 4.724 5.169 5.953a3.754 3.754 0 0 1-.023.435l.031-.028c.075-.7.215-4.494-5.149-6.36a23.125 23.125 0 0 1-2.473-1.022 7.7 7.7 0 0 0-1.751 4.97c0 3.906 2.727 7.082 6.079 7.082a5.546 5.546 0 0 0 3.772-1.526 5.545 5.545 0 0 0 3.772 1.526c3.352 0 6.079-3.177 6.079-7.082a7.7 7.7 0 0 0-1.735-4.952q-.42.2-.879.4a6.721 6.721 0 0 1 1.692 4.552Z" fill="#fff"/><path data-name="패스 55" d="M20.633 15.415c.028-.025.057-.049.084-.075a6.4 6.4 0 0 1 .421-2.527l-.013-.038-.006.014-.011-.029c-.561-1.435-1.945-3.394-5.348-4.578a19.045 19.045 0 0 1-1.254-.494c-.19-.079-.382-.158-.562-.239a.461.461 0 0 0-.292-.014.433.433 0 0 0-.082.033.468.468 0 0 0-.114.085c-.156.152-.3.314-.444.48a23.125 23.125 0 0 0 2.473 1.022c5.362 1.865 5.222 5.66 5.148 6.36Z" fill="#fff"/><path data-name="패스 56" d="M28.647 7.465a.437.437 0 0 0-.076-.03.463.463 0 0 0-.167-.018c-.584.265-1.219.523-1.915.765-3.311 1.152-4.744 3.038-5.351 4.631a6.366 6.366 0 0 1 .419 2.575l.063.056a3.651 3.651 0 0 1-.019-.388c0-1.192.466-4.367 5.163-6a20.55 20.55 0 0 0 1.57-.622l.013.016q.459-.2.879-.4a6.645 6.645 0 0 0-.46-.5.469.469 0 0 0-.119-.085Z" fill="#fff"/><path data-name="패스 57" d="M20.716 15.339c.023-.022.047-.04.07-.063a.462.462 0 0 1 .648 0c.04.039.083.073.123.11a6.366 6.366 0 0 0-.419-2.575 6.4 6.4 0 0 0-.422 2.528Z" fill="#fff"/><path data-name="패스 58" d="M16.303 11.806a2.435 2.435 0 1 0 2.435 2.435 2.435 2.435 0 0 0-2.435-2.435Zm0 3.938a1.5 1.5 0 1 1 1.5-1.5 1.506 1.506 0 0 1-1.5 1.497Z" fill="#fff"/><path data-name="패스 59" d="M23.453 14.238a2.435 2.435 0 1 0 2.435-2.435 2.435 2.435 0 0 0-2.435 2.435Zm3.972 0a1.5 1.5 0 1 1-1.5-1.5 1.506 1.506 0 0 1 1.5 1.5Z" fill="#fff"/><path data-name="패스 60" d="M11.79 26.189c-.8 2.436-1.274 3.858-1.547 4.687.164.492.331.966.5 1.418.008-.015.017-.025.024-.042v-.011l.021-.056a.4.4 0 0 0 .014-.052c.11-.338.507-1.546 1.864-5.655a7.384 7.384 0 0 0-4.28-9.686c-.042.309-.078.628-.11.953 1.278.565 5.36 2.856 3.514 8.444Z" fill="#fff"/><path data-name="패스 61" d="M7.633 17.013a.462.462 0 0 0 .287.587c.032.011.164.059.359.145.031-.325.067-.644.11-.953a3.116 3.116 0 0 0-.168-.066.461.461 0 0 0-.588.287Z" fill="#fff"/><path data-name="패스 62" d="M10.202 31.003a430.589 430.589 0 0 0-.295.909l-.017.051a.45.45 0 0 0 .282.6.508.508 0 0 0 .156.025.453.453 0 0 0 .409-.3 52.886 52.886 0 0 1-.5-1.418Z" fill="#fff"/><path data-name="패스 63" d="M30.522 26.189c-1.824-5.521 2.166-7.832 3.478-8.427a24.22 24.22 0 0 0-.109-.956 7.376 7.376 0 0 0-4.247 9.672 2330.05 2330.05 0 0 1 1.864 5.655.5.5 0 0 0 .014.052c.007.02.013.038.021.056v.011c.168-.457.337-.937.5-1.434-.266-.834-.733-2.246-1.521-4.629Z" fill="#fff"/><path data-name="패스 64" d="M31.979 32.587a.51.51 0 0 0 .156-.025.45.45 0 0 0 .282-.6l-.017-.051c-.012-.044-.025-.084-.035-.115l-.26-.794-.06-.181c-.165.5-.333.977-.5 1.434a.461.461 0 0 0 .434.332Z" fill="#fff"/><path data-name="패스 65" d="M34.393 17.6a.462.462 0 0 0-.3-.874c-.007 0-.08.029-.2.08.042.31.077.63.109.956.211-.097.357-.15.391-.162Z" fill="#fff"/><path data-name="패스 66" d="M46.48 8.459a3.121 3.121 0 0 0 1.4-.326.462.462 0 0 0 0-.828 2.228 2.228 0 0 1 0-3.995.462.462 0 0 0 0-.829 3.152 3.152 0 1 0-1.4 5.978Zm0-5.38h.145a3.16 3.16 0 0 0 0 4.446h-.145a2.228 2.228 0 1 1 0-4.455Z" fill="#fff"/><path data-name="패스 67" d="M3.508 6.268 1.353 8.423a.462.462 0 0 0 .654.653L3.373 7.71V6.594a.462.462 0 0 1 .135-.326Z" fill="#fff"/><path data-name="패스 68" d="m4.297 7.711 1.366 1.366a.462.462 0 0 0 .653-.653L4.161 6.269a.46.46 0 0 1 .135.327Z" fill="#fff"/><path data-name="패스 69" d="M3.654 6.169a.458.458 0 0 1 .178-.036.458.458 0 0 0-.178.036Z" fill="#fff"/><path data-name="패스 70" d="M3.834 6.133a.458.458 0 0 1 .178.036.456.456 0 0 0-.178-.036Z" fill="#fff"/><path data-name="패스 71" d="M1.353 10.578a.462.462 0 1 0 .654.654l1.366-1.366V8.559Z" fill="#fff"/><path data-name="패스 72" d="M5.664 11.232a.462.462 0 0 0 .653-.654L4.298 8.559v1.307Z" fill="#fff"/><path data-name="패스 73" d="M1.353 12.733a.462.462 0 1 0 .654.654l1.366-1.366v-1.307Z" fill="#fff"/><path data-name="패스 74" d="M5.664 13.387a.462.462 0 1 0 .653-.654l-2.019-2.019v1.307Z" fill="#fff"/><path data-name="패스 75" d="M3.372 12.021v5.689a.462.462 0 1 0 .925 0v-5.689l-.462-.462Z" fill="#fff"/><path data-name="패스 76" d="M3.656 6.169a.456.456 0 0 0-.149.1.459.459 0 0 1 .149-.1Z" fill="#fff"/><path data-name="패스 77" d="M3.508 10.578a.462.462 0 0 1 .653 0l.136.136v-.848l-.462-.462-.462.462v.848Z" fill="#fff"/><path data-name="패스 78" d="M4.161 6.269a.455.455 0 0 0-.149-.1.454.454 0 0 1 .149.1Z" fill="#fff"/><path data-name="패스 79" d="m4.161 8.419.136.135v-.848l-.462-.462-.462.462v.848l.136-.135a.461.461 0 0 1 .652 0Z" fill="#fff"/><path data-name="패스 80" d="M4.297 7.711V6.595a.46.46 0 0 0-.135-.327.46.46 0 0 0-.5-.1.459.459 0 0 0-.149.1.462.462 0 0 0-.135.327v1.116l.462-.462Z" fill="#fff"/><path data-name="패스 81" d="M4.297 9.866V8.559l-.136-.135a.461.461 0 0 0-.653 0l-.136.135v1.307l.462-.462Z" fill="#fff"/><path data-name="패스 82" d="M3.834 10.443a.462.462 0 0 0-.327.135l-.136.136v1.307l.462-.462.462.462v-1.307l-.136-.136a.462.462 0 0 0-.325-.135Z" fill="#fff"/><path data-name="패스 83" d="m48.058 17.148-2.155 2.155a.462.462 0 0 0 .654.654l1.366-1.366v-1.116a.462.462 0 0 1 .135-.327Z" fill="#fff"/><path data-name="패스 84" d="M48.207 17.048a.457.457 0 0 1 .178-.036.458.458 0 0 0-.178.036Z" fill="#fff"/><path data-name="패스 85" d="M48.563 17.048a.458.458 0 0 0-.178-.036.458.458 0 0 1 .178.036Z" fill="#fff"/><path data-name="패스 86" d="m48.846 18.59 1.366 1.366a.462.462 0 1 0 .653-.654l-2.155-2.155a.46.46 0 0 1 .135.327Z" fill="#fff"/><path data-name="패스 87" d="M50.214 22.111a.462.462 0 0 0 .653-.654l-2.019-2.019v1.307Z" fill="#fff"/><path data-name="패스 88" d="M45.904 21.457a.462.462 0 0 0 .654.654l1.366-1.366v-1.307Z" fill="#fff"/><path data-name="패스 89" d="M50.214 24.266a.462.462 0 1 0 .653-.654l-2.019-2.019V22.9Z" fill="#fff"/><path data-name="패스 90" d="M45.904 23.612a.462.462 0 0 0 .654.654l1.366-1.366v-1.307Z" fill="#fff"/><path data-name="패스 91" d="M48.207 17.046a.456.456 0 0 0-.149.1.457.457 0 0 1 .149-.1Z" fill="#fff"/><path data-name="패스 92" d="M48.712 17.146a.456.456 0 0 0-.149-.1.452.452 0 0 1 .149.1Z" fill="#fff"/><path data-name="패스 93" d="M47.923 22.9v5.689a.462.462 0 1 0 .925 0V22.9l-.462-.462Z" fill="#fff"/><path data-name="패스 94" d="M47.923 20.745v.848l.136-.136a.462.462 0 0 1 .653 0l.136.136v-.848l-.462-.462Z" fill="#fff"/><path data-name="패스 95" d="M47.923 18.59v.848l.136-.136a.462.462 0 0 1 .653 0l.136.136v-.848l-.462-.462Z" fill="#fff"/><path data-name="패스 96" d="M48.207 17.048a.457.457 0 0 0-.149.1.462.462 0 0 0-.135.327v1.11l.462-.462.462.462v-1.116a.46.46 0 0 0-.135-.327.452.452 0 0 0-.149-.1.457.457 0 0 0-.356 0Z" fill="#fff"/><path data-name="패스 97" d="M48.385 19.167a.462.462 0 0 0-.327.135l-.136.136v1.307l.462-.462.462.462v-1.307l-.136-.136a.462.462 0 0 0-.325-.135Z" fill="#fff"/><path data-name="패스 98" d="m48.059 21.457-.136.136V22.9l.462-.462.462.462v-1.307l-.136-.136a.462.462 0 0 0-.652 0Z" fill="#fff"/><path data-name="패스 99" d="M.686 23.935h.708v-.925H.686a.462.462 0 0 0 0 .925Z" fill="#fff"/><path data-name="패스 100" d="M3.026 23.935a.462.462 0 0 0 0-.925h-.708v.925Z" fill="#fff"/><path data-name="패스 101" d="M1.396 24.642a.462.462 0 1 0 .925 0v-.708h-.925Z" fill="#fff"/><path data-name="패스 102" d="M2.319 22.302a.462.462 0 0 0-.925 0v.708h.925Z" fill="#fff"/><path data-name="사각형 7" fill="#fff" d="M1.394 23.01h.924v.924h-.924z"/><path data-name="패스 103" d="M40.565 18.838a.462.462 0 1 0 0 .925h.376v-.925Z" fill="#fff"/><path data-name="패스 104" d="M42.243 19.763a.462.462 0 0 0 0-.925h-.377v.925Z" fill="#fff"/><path data-name="패스 105" d="M41.403 20.6a.462.462 0 0 0 .462-.462v-.376h-.925v.376a.462.462 0 0 0 .463.462Z" fill="#fff"/><path data-name="패스 106" d="M41.866 18.461a.462.462 0 1 0-.925 0v.377h.925Z" fill="#fff"/><path data-name="사각형 8" fill="#fff" d="M40.942 18.838h.924v.924h-.924z"/><path data-name="패스 107" d="M30.859 2.095a.462.462 0 1 0 0-.925h-.708v.925Z" fill="#fff"/><path data-name="패스 108" d="M28.519 2.095h.711V1.17h-.708a.462.462 0 0 0 0 .925Z" fill="#fff"/><path data-name="패스 109" d="M29.227 2.802a.462.462 0 0 0 .925 0v-.708h-.925Z" fill="#fff"/><path data-name="패스 110" d="M30.152.462a.462.462 0 0 0-.925 0v.708h.925Z" fill="#fff"/><path data-name="사각형 9" fill="#fff" d="M29.227 1.17h.924v.924h-.924z"/><path data-name="패스 111" d="M37.938 5.77h.229v-.925h-.229a.462.462 0 1 0 0 .925Z" fill="#fff"/><path data-name="패스 112" d="M39.324 5.77a.462.462 0 1 0 0-.925h-.229v.925Z" fill="#fff"/><path data-name="패스 113" d="M38.168 5.999a.462.462 0 0 0 .925 0V5.77h-.925Z" fill="#fff"/><path data-name="패스 114" d="M39.093 4.615a.462.462 0 0 0-.925 0v.229h.925Z" fill="#fff"/><path data-name="사각형 10" fill="#fff" d="M38.168 4.845h.924v.924h-.924z"/><path data-name="패스 115" d="M4.79 27.858a.462.462 0 1 0 0 .924h.229v-.924Z" fill="#fff"/><path data-name="패스 116" d="M5.945 27.858v.924h.229a.462.462 0 1 0 0-.924Z" fill="#fff"/><path data-name="패스 117" d="M5.02 29.012a.462.462 0 1 0 .925 0v-.23H5.02Z" fill="#fff"/><path data-name="패스 118" d="M5.945 27.631a.462.462 0 0 0-.925 0v.23h.925Z" fill="#fff"/><path data-name="사각형 11" fill="#fff" d="M5.02 27.858h.924v.924H5.02z"/><path data-name="패스 119" d="M38.498 12.798h1.677a1.26 1.26 0 0 0 1.214 1.593h4.3a1.258 1.258 0 1 0 0-2.517h-1.676a1.26 1.26 0 0 0-1.214-1.593h-4.3a1.258 1.258 0 0 0 0 2.517Zm0-1.592h4.3a.334.334 0 0 1 0 .668.462.462 0 1 0 0 .924h2.89a.334.334 0 1 1 0 .668h-4.3a.334.334 0 0 1 0-.668.462.462 0 1 0 0-.924h-2.891a.334.334 0 0 1 0-.668Z" fill="#fff"/><path data-name="패스 120" d="M16.303 13.651a.586.586 0 1 0 .586.586.587.587 0 0 0-.586-.586Z" fill="#fff"/><path data-name="패스 121" d="M16.303 13.288a.949.949 0 1 0 .949.949.949.949 0 0 0-.949-.949Zm0 1.535a.586.586 0 1 1 .586-.586.587.587 0 0 1-.586.586Z" fill="#fff"/><path data-name="패스 122" d="M25.888 14.823a.586.586 0 1 0-.586-.586.586.586 0 0 0 .586.586Z" fill="#fff"/><path data-name="패스 123" d="M25.922 15.186a.949.949 0 1 0-.949-.949.949.949 0 0 0 .949.949Zm-.034-1.535a.586.586 0 1 1-.586.586.587.587 0 0 1 .586-.586Z" fill="#fff"/><path data-name="패스 124" d="M23.363 16.794a.462.462 0 0 0-.287-.428 5.047 5.047 0 0 1-1.425-.9c0 .026.006.046.008.055a.463.463 0 0 1-.38.532.471.471 0 0 1-.077.006h-.026a.481.481 0 0 1-.064 0h-.035a.457.457 0 0 1-.072-.006h-.035a.462.462 0 0 1-.384-.455.491.491 0 0 1 .007-.079c0-.011.006-.041.011-.081a5.043 5.043 0 0 1-1.457.924.462.462 0 0 0 0 .855 5.022 5.022 0 0 1 1.247.739 5.5 5.5 0 0 0 .381-.369.461.461 0 0 1 .675 0 5.5 5.5 0 0 0 .381.369 5.022 5.022 0 0 1 1.247-.739.462.462 0 0 0 .285-.423Zm-2.252.56a6.031 6.031 0 0 0-.771-.56 6.034 6.034 0 0 0 .771-.56 5.95 5.95 0 0 0 .771.56 5.992 5.992 0 0 0-.771.561Z" fill="#fff"/><path data-name="패스 125" d="M21.075 16.064h.025a.443.443 0 0 1-.1 0 .457.457 0 0 0 .075 0Z" fill="#fff"/><path data-name="패스 126" d="M21.636 15.603a.462.462 0 0 1-.384.455.418.418 0 0 1-.077 0h.026a.471.471 0 0 0 .077-.006.463.463 0 0 0 .38-.532c0-.009 0-.029-.008-.055l-.03-.027c0 .045.009.077.01.08a.441.441 0 0 1 .006.085Z" fill="#fff"/><path data-name="패스 127" d="M21.111 17.445a.463.463 0 0 0-.338.147 5.5 5.5 0 0 1-.381.369 5.27 5.27 0 0 1 .394.35.462.462 0 0 0 .648 0c.127-.125.259-.241.394-.35a5.5 5.5 0 0 1-.381-.369.462.462 0 0 0-.336-.147Z" fill="#fff"/><path data-name="패스 128" d="M21.11 16.06a.483.483 0 0 0 .064 0c-.012 0-.023 0-.035-.006s-.026.006-.04.007Z" fill="#fff"/><path data-name="패스 129" d="M20.584 15.603a.462.462 0 0 0 .384.455h.035-.011a.462.462 0 0 1-.377-.534c0-.013.008-.052.013-.109l-.031.028c0 .039-.009.07-.011.081a.491.491 0 0 0-.002.079Z" fill="#fff"/><path data-name="패스 130" d="M20.996 16.058h.007a.443.443 0 0 0 .1 0c.014 0 .026-.005.04-.007a.457.457 0 0 1-.394-.372 3.325 3.325 0 0 1-.03-.341c-.027.026-.056.05-.084.075l-.013.109a.462.462 0 0 0 .374.536Z" fill="#fff"/><path data-name="패스 131" d="M21.14 16.052c.012 0 .023.005.035.006a.418.418 0 0 0 .077 0 .462.462 0 0 0 .384-.455.441.441 0 0 0-.007-.079s0-.035-.01-.08l-.063-.056c-.01.179-.026.286-.027.293a.458.458 0 0 1-.389.371Z" fill="#fff"/><path data-name="패스 132" d="m20.786 15.277-.07.063a3.325 3.325 0 0 0 .03.341.392.392 0 0 0 .784 0c0-.007.017-.114.027-.293-.04-.038-.083-.071-.123-.11a.462.462 0 0 0-.648-.001Z" fill="#fff"/><path data-name="패스 133" d="M23.639 32.761h-4.9a.462.462 0 0 0 0 .925h4.9a.462.462 0 1 0 0-.925Z" fill="#fff"/><path data-name="패스 134" d="M16.765 23.955v-1.408a.462.462 0 1 0-.924 0v1.408a.462.462 0 1 0 .924 0Z" fill="#fff"/><path data-name="패스 135" d="M25.921 22.085a.462.462 0 0 0-.462.462v1.408a.462.462 0 1 0 .925 0v-1.408a.463.463 0 0 0-.463-.462Z" fill="#fff"/><path data-name="패스 136" d="M22.715 24.418a.462.462 0 0 0 .462-.462v-1.408a.462.462 0 1 0-.924 0v1.408a.462.462 0 0 0 .462.462Z" fill="#fff"/><path data-name="패스 137" d="M19.509 24.418a.462.462 0 0 0 .462-.462v-1.408a.462.462 0 1 0-.924 0v1.408a.462.462 0 0 0 .462.462Z" fill="#fff"/><path data-name="패스 138" d="M22.253 30.373a.462.462 0 1 0 .924 0v-1.408a.462.462 0 0 0-.924 0Z" fill="#fff"/><path data-name="패스 139" d="M19.05 30.373a.462.462 0 1 0 .924 0v-1.408a.462.462 0 0 0-.924 0Z" fill="#fff"/><path data-name="패스 140" d="M24.316 25.389a.462.462 0 0 0-.462.462v1.408a.462.462 0 1 0 .925 0v-1.411a.462.462 0 0 0-.463-.459Z" fill="#fff"/><path data-name="패스 141" d="M21.572 27.26v-1.412a.462.462 0 1 0-.924 0v1.408a.462.462 0 1 0 .924 0Z" fill="#fff"/><path data-name="패스 142" d="M18.367 25.848a.462.462 0 0 0-.925 0v1.408a.462.462 0 1 0 .925 0Z" fill="#fff"/></svg>