<svg id="구성_요소_4_1" data-name="구성 요소 4 – 1" xmlns="http://www.w3.org/2000/svg" width="149.253" height="40" viewBox="0 0 149.253 40">
  <path id="패스_4" data-name="패스 4" d="M170.552,175.89h.545c.083,0,.132-.033.132-.124v-2.355h.562l2.289,2.479a.119.119,0,0,0,.173,0l.421-.314a.118.118,0,0,0,.05-.1.28.28,0,0,0-.05-.1l-2.148-2.305,1.826-2.124a.136.136,0,0,0,.041-.1.13.13,0,0,0-.05-.091l-.413-.314a.12.12,0,0,0-.174,0l-1.892,2.239h-.636v-2.115a.119.119,0,0,0-.132-.124h-.545a.113.113,0,0,0-.124.124v5.2C170.428,175.857,170.469,175.89,170.552,175.89Z" transform="translate(-106.293 -160.909)" fill="#fff"/>
  <path id="패스_5" data-name="패스 5" d="M187.238,175.632a1.228,1.228,0,0,0,.454.231,2.507,2.507,0,0,0,.57.066h1.363a2.5,2.5,0,0,0,.57-.066,1.17,1.17,0,0,0,.455-.231,1.093,1.093,0,0,0,.305-.43,1.53,1.53,0,0,0,.116-.636v-2.718a1.338,1.338,0,0,0-.38-1.016,1.534,1.534,0,0,0-1.066-.347h-1.363a1.5,1.5,0,0,0-1.058.347,1.308,1.308,0,0,0-.38,1.016v2.718a1.549,1.549,0,0,0,.107.636A1.189,1.189,0,0,0,187.238,175.632Zm.388-3.784a.566.566,0,0,1,.182-.487.7.7,0,0,1,.454-.157h1.363a.734.734,0,0,1,.454.157.592.592,0,0,1,.19.487v2.718a.6.6,0,0,1-.19.5.7.7,0,0,1-.454.149h-1.363a.665.665,0,0,1-.438-.157.543.543,0,0,1-.2-.487Z" transform="translate(-114.802 -160.949)" fill="#fff"/>
  <path id="패스_6" data-name="패스 6" d="M203.861,175.93h.545c.083,0,.132-.033.132-.124v-4.04a.667.667,0,0,1,.066-.281.608.608,0,0,1,.173-.19.5.5,0,0,1,.322-.091h1.479a.644.644,0,0,1,.4.14.439.439,0,0,1,.165.347v.645c0,.033-.009.074-.009.115a.679.679,0,0,1-.066.182.415.415,0,0,1-.165.149.558.558,0,0,1-.305.074h-1.14a.508.508,0,0,0-.231.058.384.384,0,0,0-.14.141.269.269,0,0,0-.033.19.324.324,0,0,0,.1.2l2.115,2.487a.1.1,0,0,0,.156.033l.438-.273a.169.169,0,0,0,.074-.091.184.184,0,0,0-.033-.107l-1.644-1.916h.339a1.571,1.571,0,0,0,.6-.107,1.375,1.375,0,0,0,.413-.29,1.077,1.077,0,0,0,.248-.4,1.378,1.378,0,0,0,.083-.446v-.645a1.122,1.122,0,0,0-.107-.463,1.406,1.406,0,0,0-.281-.388,1.841,1.841,0,0,0-.43-.256,1.716,1.716,0,0,0-.545-.091H205.1a1.559,1.559,0,0,0-.636.124,1.471,1.471,0,0,0-.421.331,1.2,1.2,0,0,0-.24.421,1.524,1.524,0,0,0-.066.4v4.04C203.737,175.9,203.778,175.93,203.861,175.93Z" transform="translate(-123.579 -160.949)" fill="#fff"/>
  <path id="패스_7" data-name="패스 7" d="M220.866,175.632a1.241,1.241,0,0,0,.455.231,2.581,2.581,0,0,0,.579.066h2.28a.11.11,0,0,0,.124-.124v-.463a.119.119,0,0,0-.124-.132H221.9a.54.54,0,0,1-.223-.041.567.567,0,0,1-.207-.116.469.469,0,0,1-.157-.2.725.725,0,0,1-.05-.289v-1.116h2.677a.116.116,0,0,0,.124-.132v-.463a.12.12,0,0,0-.124-.132h-2.677v-.875a.724.724,0,0,1,.05-.289.466.466,0,0,1,.157-.2.718.718,0,0,1,.207-.116.7.7,0,0,1,.223-.041h2.2a.115.115,0,0,0,.132-.124v-.471a.119.119,0,0,0-.132-.124h-2.2a1.5,1.5,0,0,0-1.058.347,1.308,1.308,0,0,0-.38,1.016v2.718a1.549,1.549,0,0,0,.107.636A1.082,1.082,0,0,0,220.866,175.632Z" transform="translate(-132.258 -160.949)" fill="#fff"/>
  <path id="패스_8" data-name="패스 8" d="M235.958,175.855l.546.075a.093.093,0,0,0,.091-.025.139.139,0,0,0,.049-.09l.281-1.769h2.561l.289,1.769a.105.105,0,0,0,.041.09.1.1,0,0,0,.1.025l.545-.075a.127.127,0,0,0,.091-.058.23.23,0,0,0,.025-.107l-.562-3.487c-.008-.033-.017-.1-.033-.2s-.058-.206-.091-.339c-.049-.124-.09-.256-.157-.4a3.189,3.189,0,0,0-.256-.389,1.67,1.67,0,0,0-.372-.289,1.185,1.185,0,0,0-.5-.107h-.8a1.132,1.132,0,0,0-.5.107,1.5,1.5,0,0,0-.372.289,1.95,1.95,0,0,0-.247.389,1.871,1.871,0,0,0-.157.4,1.775,1.775,0,0,0-.091.339,1.412,1.412,0,0,0-.041.2l-.562,3.487a.126.126,0,0,0,.025.107A.1.1,0,0,0,235.958,175.855Zm1.247-3.528a2.362,2.362,0,0,1,.066-.33,2.813,2.813,0,0,1,.124-.364.925.925,0,0,1,.174-.305.291.291,0,0,1,.24-.124h.8a.313.313,0,0,1,.24.124,1.085,1.085,0,0,1,.174.305,2.745,2.745,0,0,1,.124.364c.033.132.05.24.066.33l.157,1h-2.321Z" transform="translate(-140.239 -160.949)" fill="#fff"/>
  <path id="패스_9" data-name="패스 9" d="M253.535,175.93h.545c.083,0,.132-.033.132-.124v-4.6c.05,0,.1.008.141.008a.818.818,0,0,1,.082.041.405.405,0,0,1,.05.066.409.409,0,0,0,.05.107l1.6,4.023a.613.613,0,0,0,.347.38,1.431,1.431,0,0,0,.611.1h.438a.332.332,0,0,0,.265-.1.355.355,0,0,0,.1-.256v-4.966a.119.119,0,0,0-.132-.124h-.545a.113.113,0,0,0-.124.124v4.6a.229.229,0,0,1-.182-.058.374.374,0,0,1-.14-.182l-1.6-4.024a.754.754,0,0,0-.314-.371,1.433,1.433,0,0,0-.57-.091h-.479a.46.46,0,0,0-.281.124.42.42,0,0,0-.115.273v4.924C253.411,175.9,253.452,175.93,253.535,175.93Z" transform="translate(-149.358 -160.949)" fill="#fff"/>
  <path id="패스_10" data-name="패스 10" d="M282.792,175.93h.545c.082,0,.132-.033.132-.124V173.93h2a2.093,2.093,0,0,0,.57-.075,1.09,1.09,0,0,0,.455-.239,1.039,1.039,0,0,0,.305-.413,1.588,1.588,0,0,0,.116-.636v-.719a1.364,1.364,0,0,0-.38-1.016,1.532,1.532,0,0,0-1.066-.347h-1.156a1.844,1.844,0,0,0-1.248.347,1.254,1.254,0,0,0-.4,1.008v3.966C282.668,175.9,282.709,175.93,282.792,175.93Zm.678-4.09a.51.51,0,0,1,.231-.479,1.074,1.074,0,0,1,.612-.157h1.156a.739.739,0,0,1,.446.149.613.613,0,0,1,.2.5v.719a.57.57,0,0,1-.645.644h-2Z" transform="translate(-164.542 -160.949)" fill="#fff"/>
  <path id="패스_11" data-name="패스 11" d="M300.854,175.93h1.206a1.953,1.953,0,0,0,.595-.083,1.425,1.425,0,0,0,.48-.264,1.317,1.317,0,0,0,.3-.463,1.776,1.776,0,0,0,.108-.628v-3.883a.117.117,0,0,0-.124-.124h-.546a.116.116,0,0,0-.132.124v3.883a.738.738,0,0,1-.181.537.694.694,0,0,1-.5.182h-1.206a.648.648,0,0,1-.487-.182.678.678,0,0,1-.19-.537v-3.883a.119.119,0,0,0-.132-.124H299.5a.113.113,0,0,0-.124.124v3.883a1.367,1.367,0,0,0,.405,1.082A1.558,1.558,0,0,0,300.854,175.93Z" transform="translate(-173.212 -160.949)" fill="#fff"/>
  <path id="패스_12" data-name="패스 12" d="M316.513,175.93h2.412a1.553,1.553,0,0,0,1.041-.38,1.254,1.254,0,0,0,.4-.9v-.677a.882.882,0,0,0-.157-.5,1.68,1.68,0,0,0-.363-.364,1.233,1.233,0,0,0,.314-.38,1.272,1.272,0,0,0,.124-.57v-.479a1.132,1.132,0,0,0-.091-.421,1.15,1.15,0,0,0-.28-.4,1.936,1.936,0,0,0-.487-.281,2.489,2.489,0,0,0-.7-.1h-2.206a.46.46,0,0,0-.281.091.366.366,0,0,0-.115.256v4.742a.339.339,0,0,0,.115.256A.381.381,0,0,0,316.513,175.93Zm.4-4.726h1.8a1.265,1.265,0,0,1,.389.05,1.6,1.6,0,0,1,.24.124,1.3,1.3,0,0,1,.107.165.6.6,0,0,1,.025.14v.479a.585.585,0,0,1-.107.355.625.625,0,0,1-.289.206h-2.165Zm0,2.247H319a.619.619,0,0,1,.38.14.482.482,0,0,1,.181.38v.677a.411.411,0,0,1-.074.256.66.66,0,0,1-.165.174.962.962,0,0,1-.215.1.608.608,0,0,1-.19.034h-2Z" transform="translate(-181.9 -160.949)" fill="#fff"/>
  <path id="패스_13" data-name="패스 13" d="M170.808,189.971h-1.7V191.5H159.028v-1.534h-1.7v6.749h13.478Zm-1.7,5.174H159.028v-2.086H169.11Z" transform="translate(-99.496 -171.062)" fill="#fff"/>
  <rect id="사각형_2" data-name="사각형 2" width="16.668" height="1.595" transform="translate(56.239 27.438)" fill="#fff"/>
  <path id="패스_14" data-name="패스 14" d="M169.948,212.887a1.3,1.3,0,0,0-.92.368,1.222,1.222,0,0,0-.389.92,1.149,1.149,0,0,0,.389.9,1.162,1.162,0,0,0,.92.389,1.254,1.254,0,0,0,.921-.389,1.2,1.2,0,0,0,.368-.9,1.283,1.283,0,0,0-.368-.92A1.414,1.414,0,0,0,169.948,212.887Z" transform="translate(-105.365 -182.954)" fill="#fff"/>
  <path id="패스_15" data-name="패스 15" d="M204.933,206.542a4.311,4.311,0,0,0-1.309.757,3.382,3.382,0,0,0-.879,1.166,3.14,3.14,0,0,0-.348,1.493,3.613,3.613,0,0,0,1.227,2.659,3.885,3.885,0,0,0,1.309.736,5.1,5.1,0,0,0,3.252,0,4.191,4.191,0,0,0,1.329-.736,4.242,4.242,0,0,0,.9-1.166,3.551,3.551,0,0,0,.327-1.493,3.7,3.7,0,0,0-.327-1.493,4.942,4.942,0,0,0-.9-1.166,4.683,4.683,0,0,0-1.329-.757,5.336,5.336,0,0,0-1.616-.246A5.276,5.276,0,0,0,204.933,206.542Zm3.436,1.861a2.44,2.44,0,0,1,.532.7,2.118,2.118,0,0,1,.2.859,1.969,1.969,0,0,1-.2.859,2.181,2.181,0,0,1-.532.7,2.852,2.852,0,0,1-2.8.45,2.229,2.229,0,0,1-.777-.45,2.045,2.045,0,0,1-.572-.7,1.96,1.96,0,0,1-.184-.859,2.094,2.094,0,0,1,.184-.859,2.266,2.266,0,0,1,.572-.7,2.637,2.637,0,0,1,.777-.47,3.089,3.089,0,0,1,1.984,0A3.185,3.185,0,0,1,208.369,208.4Z" transform="translate(-122.884 -179.534)" fill="#fff"/>
  <path id="패스_16" data-name="패스 16" d="M215.8,197.228a1.249,1.249,0,0,0,.92-.368,1.218,1.218,0,0,0,.347-.879,1.378,1.378,0,0,0-.347-.9,1.317,1.317,0,0,0-.92-.347,1.155,1.155,0,0,0-.88.347,1.3,1.3,0,0,0-.368.9,1.158,1.158,0,0,0,.368.879A1.1,1.1,0,0,0,215.8,197.228Z" transform="translate(-129.194 -173.533)" fill="#fff"/>
  <rect id="사각형_3" data-name="사각형 3" width="1.698" height="9.715" transform="translate(88.921 17.928)" fill="#fff"/>
  <path id="패스_17" data-name="패스 17" d="M194.149,193.036a2.982,2.982,0,0,0,.348,1.493,2.833,2.833,0,0,0,.879,1.145,3.337,3.337,0,0,0,1.309.757,4.753,4.753,0,0,0,3.252,0,3.575,3.575,0,0,0,1.33-.757,3.854,3.854,0,0,0,.9-1.145,3.481,3.481,0,0,0,.327-1.493,3.531,3.531,0,0,0-.327-1.472,4.654,4.654,0,0,0-.9-1.186,5.25,5.25,0,0,0-1.33-.757,6.068,6.068,0,0,0-1.616-.245,5.971,5.971,0,0,0-1.636.245,4.786,4.786,0,0,0-1.309.757,3.266,3.266,0,0,0-.879,1.186A3.012,3.012,0,0,0,194.149,193.036Zm2.413-1.554a2.6,2.6,0,0,1,1.759-.573,2.692,2.692,0,0,1,1.779.573,2.107,2.107,0,0,1,0,3.129,2.7,2.7,0,0,1-1.779.572,2.6,2.6,0,0,1-1.759-.572,2.068,2.068,0,0,1,0-3.129Z" transform="translate(-118.603 -170.753)" fill="#fff"/>
  <rect id="사각형_4" data-name="사각형 4" width="1.698" height="14.888" transform="translate(107.634 18.316)" fill="#fff"/>
  <path id="패스_18" data-name="패스 18" d="M233.25,200.86a4.147,4.147,0,0,0,1.616,1.1,4.874,4.874,0,0,0,2,.388,5.181,5.181,0,0,0,2.025-.388,4.651,4.651,0,0,0,1.616-1.1,4.867,4.867,0,0,0,1.043-1.656,5.849,5.849,0,0,0,.389-2.106,5.937,5.937,0,0,0-.389-2.107,4.816,4.816,0,0,0-2.659-2.761,5.574,5.574,0,0,0-2.025-.389,5.226,5.226,0,0,0-2,.389,4.816,4.816,0,0,0-2.659,2.761,5.513,5.513,0,0,0-.389,2.107,5.438,5.438,0,0,0,.389,2.106A4.324,4.324,0,0,0,233.25,200.86Zm.511-5.236a3.551,3.551,0,0,1,.654-1.145,3.114,3.114,0,0,1,2.454-1.043,3.472,3.472,0,0,1,1.411.266,4.085,4.085,0,0,1,1.064.777,4.557,4.557,0,0,1,.674,1.145,5.021,5.021,0,0,1,.2,1.473,4.742,4.742,0,0,1-.2,1.472,3.686,3.686,0,0,1-.674,1.145,3.044,3.044,0,0,1-1.064.777,3.172,3.172,0,0,1-1.411.286,2.969,2.969,0,0,1-1.391-.286,2.575,2.575,0,0,1-1.064-.777,3.009,3.009,0,0,1-.654-1.145,4.2,4.2,0,0,1-.225-1.472A4.44,4.44,0,0,1,233.761,195.624Z" transform="translate(-138.152 -172.032)" fill="#fff"/>
  <path id="패스_19" data-name="패스 19" d="M304.512,195.327a1.143,1.143,0,0,0-.9.368,1.268,1.268,0,0,0-.368.9,1.114,1.114,0,0,0,.368.859,1.093,1.093,0,0,0,.9.389,1.147,1.147,0,0,0,.9-.389,1.169,1.169,0,0,0,.348-.859,1.337,1.337,0,0,0-.348-.9A1.2,1.2,0,0,0,304.512,195.327Z" transform="translate(-175.22 -173.841)" fill="#fff"/>
  <rect id="사각형_5" data-name="사각형 5" width="1.698" height="9.919" transform="translate(125.161 17.928)" fill="#fff"/>
  <path id="패스_20" data-name="패스 20" d="M274.5,209.57h-1.7v4.765h14.663v-1.6H274.5Z" transform="translate(-159.422 -181.233)" fill="#fff"/>
  <path id="패스_21" data-name="패스 21" d="M275.359,192.063l4.274,5.256,1.186-1.186-5.481-6.544-5.256,6.544,1.186,1.186Z" transform="translate(-158.01 -170.863)" fill="#fff"/>
  <path id="패스_22" data-name="패스 22" d="M322.467,206.3a5.1,5.1,0,0,0-1.636.246,4.08,4.08,0,0,0-1.309.757,3.731,3.731,0,0,0-.9,1.166,3.385,3.385,0,0,0-.327,1.493,3.261,3.261,0,0,0,.327,1.493,3.324,3.324,0,0,0,.9,1.166,3.7,3.7,0,0,0,1.309.736,4.163,4.163,0,0,0,1.636.266,4.316,4.316,0,0,0,1.616-.266,4.431,4.431,0,0,0,1.33-.736,4.694,4.694,0,0,0,.9-1.166,3.892,3.892,0,0,0,.306-1.493,4.061,4.061,0,0,0-.306-1.493,5.572,5.572,0,0,0-.9-1.166,4.988,4.988,0,0,0-1.33-.757A5.332,5.332,0,0,0,322.467,206.3Zm2.332,2.8a2.118,2.118,0,0,1,.2.859,1.97,1.97,0,0,1-.2.859,2.976,2.976,0,0,1-.532.7,2.9,2.9,0,0,1-.818.45,2.7,2.7,0,0,1-.982.184,2.65,2.65,0,0,1-1-.184,2.33,2.33,0,0,1-.8-.45,2.246,2.246,0,0,1-.552-.7,1.719,1.719,0,0,1-.2-.859,1.83,1.83,0,0,1,.2-.859,2.52,2.52,0,0,1,.552-.7,2.761,2.761,0,0,1,.8-.47,3.127,3.127,0,0,1,1-.164,3.2,3.2,0,0,1,.982.164,3.582,3.582,0,0,1,.818.47A3.491,3.491,0,0,1,324.8,209.1Z" transform="translate(-183.031 -179.534)" fill="#fff"/>
  <path id="패스_23" data-name="패스 23" d="M310.638,196.876l3.866-3.62,3.844,3.62,1.207-1.125a30.307,30.307,0,0,1-2.413-2.168c-.8-.757-1.6-1.493-2.413-2.208h4.336V189.8h-9.121v1.575h4.336l-4.826,4.4Z" transform="translate(-178.442 -170.973)" fill="#fff"/>
  <rect id="사각형_6" data-name="사각형 6" width="1.698" height="9.51" transform="translate(143.874 17.928)" fill="#fff"/>
  <path id="패스_24" data-name="패스 24" d="M343.414,197.015a1.2,1.2,0,0,0,.9-.368,1.217,1.217,0,0,0,.348-.879,1.291,1.291,0,0,0-.348-.88,1.2,1.2,0,0,0-.9-.368,1.142,1.142,0,0,0-.9.368,1.222,1.222,0,0,0-.368.88,1.155,1.155,0,0,0,.368.879A1.142,1.142,0,0,0,343.414,197.015Z" transform="translate(-195.409 -173.422)" fill="#fff"/>
  <path id="패스_25" data-name="패스 25" d="M37.564,226.069a.457.457,0,0,0,.181-.038c3.253-1.386,4.682-2.98,5.512-6.217H48.79a.462.462,0,1,0,0-.925h-.748c.03.077.06.158.089.234a.462.462,0,0,1-.86.339c-.07-.178-.144-.37-.219-.572H42.895a.463.463,0,0,0-.45.357c-.653,2.784-1.616,4.466-5.062,5.935a.462.462,0,0,0,.181.888Z" transform="translate(-37.101 -186.069)" fill="#fff"/>
  <path id="패스_26" data-name="패스 26" d="M131.249,219.815h2.64c.83,3.238,2.259,4.832,5.512,6.217a.457.457,0,0,0,.181.038.462.462,0,0,0,.181-.888c-3.447-1.469-4.409-3.151-5.062-5.935a.462.462,0,0,0-.45-.357h-2.47l-.076.528A.462.462,0,0,1,131.249,219.815Z" transform="translate(-85.96 -186.069)" fill="#fff"/>
  <path id="패스_27" data-name="패스 27" d="M101.25,219.755a.453.453,0,0,1-.169-.032.462.462,0,0,1-.261-.6c.03-.076.06-.157.089-.234h-.772a.462.462,0,1,0,0,.925h11.283a.462.462,0,0,1-.457-.4l-.076-.528H109.22a4.236,4.236,0,0,1-.381.672.461.461,0,0,1-.376.194H106a.461.461,0,0,1-.376-.194,4.236,4.236,0,0,1-.381-.672H101.9c-.076.2-.149.394-.219.572A.462.462,0,0,1,101.25,219.755Z" transform="translate(-69.575 -186.069)" fill="#fff"/>
  <path id="패스_28" data-name="패스 28" d="M65.178,215.654a.462.462,0,0,0-.624.193,4.317,4.317,0,0,0-.182,3.712.463.463,0,0,0,.428.287.452.452,0,0,0,.176-.035.462.462,0,0,0,.252-.6,3.407,3.407,0,0,1,.145-2.93A.462.462,0,0,0,65.178,215.654Z" transform="translate(-51.08 -184.363)" fill="#fff"/>
  <path id="패스_29" data-name="패스 29" d="M70.836,215.654a.461.461,0,0,0-.193.624,3.408,3.408,0,0,1,.145,2.93.462.462,0,0,0,.252.6.454.454,0,0,0,.176.035.463.463,0,0,0,.428-.287,4.317,4.317,0,0,0-.182-3.712A.462.462,0,0,0,70.836,215.654Z" transform="translate(-54.48 -184.363)" fill="#fff"/>
  <path id="패스_30" data-name="패스 30" d="M68.257,215.6a.462.462,0,0,0-.462.462v3.321a.462.462,0,0,0,.925,0v-3.321A.462.462,0,0,0,68.257,215.6Z" transform="translate(-53.03 -184.363)" fill="#fff"/>
  <path id="패스_31" data-name="패스 31" d="M89.754,215.654a.462.462,0,0,0-.624.193,4.317,4.317,0,0,0-.182,3.712.462.462,0,0,0,.428.287.454.454,0,0,0,.176-.035.462.462,0,0,0,.252-.6,3.408,3.408,0,0,1,.145-2.93A.461.461,0,0,0,89.754,215.654Z" transform="translate(-63.834 -184.363)" fill="#fff"/>
  <path id="패스_32" data-name="패스 32" d="M95.411,215.654a.462.462,0,0,0-.193.624,3.407,3.407,0,0,1,.145,2.93.462.462,0,0,0,.252.6.452.452,0,0,0,.176.035.463.463,0,0,0,.428-.287,4.317,4.317,0,0,0-.183-3.712A.462.462,0,0,0,95.411,215.654Z" transform="translate(-67.234 -184.363)" fill="#fff"/>
  <path id="패스_33" data-name="패스 33" d="M92.832,215.6a.462.462,0,0,0-.462.462v3.321a.462.462,0,0,0,.925,0v-3.321A.462.462,0,0,0,92.832,215.6Z" transform="translate(-65.784 -184.363)" fill="#fff"/>
  <path id="패스_34" data-name="패스 34" d="M115.171,204.993a6.251,6.251,0,0,0-1.4-4.358l.141-1.755a.462.462,0,0,0-.46-.5h-1.835a.462.462,0,0,0-.46.5l.141,1.755a6.251,6.251,0,0,0-1.4,4.358,7.894,7.894,0,0,0,.65,3.253h3.98A7.894,7.894,0,0,0,115.171,204.993Zm-3.623,3.194a6.468,6.468,0,0,1-.732-3.194c0-1.683.509-3.242,1.237-3.792a.461.461,0,0,0,.182-.406l-.12-1.491h.832l-.12,1.491a.462.462,0,0,0,.182.406c.728.55,1.237,2.109,1.237,3.792a6.468,6.468,0,0,1-.732,3.194Z" transform="translate(-74.877 -175.425)" fill="#fff"/>
  <path id="패스_35" data-name="패스 35" d="M112,219.755h2.465a.461.461,0,0,0,.376-.194,4.236,4.236,0,0,0,.381-.672h-3.98a4.235,4.235,0,0,0,.381.672A.461.461,0,0,0,112,219.755Z" transform="translate(-75.578 -186.069)" fill="#fff"/>
  <path id="패스_36" data-name="패스 36" d="M123.208,213.409h3.26l-.31,2.157h.934l.367-2.553a.463.463,0,0,0-.457-.528h-4.327a.463.463,0,0,0-.457.528l.367,2.553h.934Z" transform="translate(-81.271 -182.745)" fill="#fff"/>
  <path id="패스_37" data-name="패스 37" d="M123.517,219.815h3.442a.462.462,0,0,0,.457-.4l.076-.528h-4.509l.076.528A.462.462,0,0,0,123.517,219.815Z" transform="translate(-81.671 -186.069)" fill="#fff"/>
  <path id="패스_38" data-name="패스 38" d="M102.9,175.479c.121-.051.195-.077.2-.08a.462.462,0,0,1,.3.874c-.034.012-.18.065-.394.162.083.864.131,1.778.131,2.761a37.088,37.088,0,0,1-2.08,10.3l.06.181c.133.405.213.65.26.794.01.032.023.071.035.115l.017.051,0,0a.45.45,0,0,1-.282.6.51.51,0,0,1-.156.025.461.461,0,0,1-.431-.334c-.071.193-.142.38-.214.565h.99c1.106-2.957,2.73-8.333,2.73-12.3,0-5.521-1.37-9.748-4.07-12.563-.177-.185-.363-.362-.552-.534-.272.153-.555.306-.858.458C100.636,168.3,102.3,171.091,102.9,175.479Z" transform="translate(-69.008 -158.673)" fill="#fff"/>
  <path id="패스_39" data-name="패스 39" d="M55.633,190.967a.453.453,0,0,1-.409.3.507.507,0,0,1-.156-.025.45.45,0,0,1-.282-.6l0,0,.017-.051c.012-.044.025-.084.035-.115.047-.144.127-.389.26-.794l.042-.126a37.2,37.2,0,0,1-2.1-10.353c0-.989.049-1.909.133-2.777-.195-.086-.327-.134-.359-.145a.462.462,0,0,1,.3-.874c.006,0,.067.024.168.066.6-4.38,2.262-7.163,4.313-8.908-.3-.152-.586-.3-.858-.458-.19.172-.375.349-.552.534-2.7,2.815-4.07,7.041-4.07,12.563,0,3.965,1.624,9.341,2.73,12.3h.99C55.766,191.321,55.7,191.147,55.633,190.967Z" transform="translate(-44.891 -158.673)" fill="#fff"/>
  <path id="패스_40" data-name="패스 40" d="M71.843,160.264a13.368,13.368,0,0,1,7.613,2.153c.322-.153.629-.308.916-.463a13.833,13.833,0,0,0-8.53-2.614,13.835,13.835,0,0,0-8.528,2.613c.287.156.594.31.916.464A13.368,13.368,0,0,1,71.843,160.264Z" transform="translate(-50.705 -155.165)" fill="#fff"/>
  <path id="패스_41" data-name="패스 41" d="M58.606,219.723a.462.462,0,0,0,.261-.6c-.03-.076-.06-.156-.089-.234h-.99c.076.2.149.394.219.572A.462.462,0,0,0,58.606,219.723Z" transform="translate(-47.837 -186.069)" fill="#fff"/>
  <path id="패스_42" data-name="패스 42" d="M102.02,219.124a.462.462,0,0,0,.261.6.453.453,0,0,0,.169.032.462.462,0,0,0,.43-.293c.07-.178.144-.369.219-.572h-.99C102.08,218.967,102.05,219.049,102.02,219.124Z" transform="translate(-70.775 -186.069)" fill="#fff"/>
  <path id="패스_43" data-name="패스 43" d="M64.372,165.952a.433.433,0,0,1,.082-.033.461.461,0,0,1,.292.014c-.145-.065-.279-.131-.417-.2-.28.194-.556.4-.825.633.1.05.207.1.31.148.141-.166.288-.329.444-.48A.468.468,0,0,1,64.372,165.952Z" transform="translate(-50.803 -158.484)" fill="#fff"/>
  <path id="패스_44" data-name="패스 44" d="M68.537,167.137c-.454-.158-.875-.324-1.282-.494.416.178.835.348,1.254.494,3.4,1.184,4.786,3.143,5.348,4.578l.011.029.006-.014C73.259,170.144,71.821,168.279,68.537,167.137Z" transform="translate(-52.75 -158.955)" fill="#fff"/>
  <path id="패스_45" data-name="패스 45" d="M53.883,157.894a.462.462,0,0,0-.755.533,12.96,12.96,0,0,0,4.089,3.312q.369-.336.767-.639A12.87,12.87,0,0,1,53.883,157.894Z" transform="translate(-45.374 -154.313)" fill="#fff"/>
  <path id="패스_46" data-name="패스 46" d="M63.4,165.235c-.322-.154-.629-.308-.916-.464q-.4.3-.767.639c.272.153.555.306.858.458Q62.982,165.525,63.4,165.235Z" transform="translate(-49.877 -157.984)" fill="#fff"/>
  <path id="패스_47" data-name="패스 47" d="M103.63,158.427a.462.462,0,1,0-.756-.533,12.7,12.7,0,0,1-4.1,3.208q.4.3.766.637A12.96,12.96,0,0,0,103.63,158.427Z" transform="translate(-69.108 -154.313)" fill="#fff"/>
  <path id="패스_48" data-name="패스 48" d="M96.147,165.9a.463.463,0,0,1,.167.018.435.435,0,0,1,.076.03.469.469,0,0,1,.119.087,6.641,6.641,0,0,1,.46.5c.116-.055.238-.11.349-.166-.268-.229-.544-.438-.824-.633C96.379,165.792,96.267,165.847,96.147,165.9Z" transform="translate(-67.744 -158.485)" fill="#fff"/>
  <path id="패스_49" data-name="패스 49" d="M87.2,168.812c.556-.193,1.067-.4,1.555-.606l-.013-.016c-.518.231-1.044.44-1.57.622-4.7,1.635-5.163,4.809-5.163,6a3.653,3.653,0,0,0,.019.388l.03.027C81.987,174.7,81.673,170.734,87.2,168.812Z" transform="translate(-60.405 -159.758)" fill="#fff"/>
  <path id="패스_50" data-name="패스 50" d="M97.694,165.87c.3-.152.586-.3.858-.458q-.369-.336-.766-.637c-.287.155-.594.31-.916.463C97.15,165.432,97.426,165.641,97.694,165.87Z" transform="translate(-68.119 -157.985)" fill="#fff"/>
  <path id="패스_51" data-name="패스 51" d="M76.355,166.647a1.256,1.256,0,0,0,.8-.286,1.262,1.262,0,0,0,1.6,0,1.262,1.262,0,0,0,2.062-.976.462.462,0,0,0-.925,0,.338.338,0,1,1-.675,0,.462.462,0,0,0-.925,0,.338.338,0,1,1-.676,0,.462.462,0,0,0-.925,0,.338.338,0,1,1-.675,0,.462.462,0,0,0-.925,0A1.264,1.264,0,0,0,76.355,166.647Z" transform="translate(-56.817 -158.062)" fill="#fff"/>
  <path id="패스_52" data-name="패스 52" d="M66.086,166.146c.18.081.372.16.562.239-.176-.076-.353-.149-.527-.229A.328.328,0,0,0,66.086,166.146Z" transform="translate(-52.143 -158.697)" fill="#fff"/>
  <path id="패스_53" data-name="패스 53" d="M88.132,166.121a18.991,18.991,0,0,1-1.781.723c-3.285,1.142-4.721,3.008-5.337,4.592l.013.038c.607-1.593,2.04-3.479,5.351-4.631.7-.242,1.331-.5,1.915-.765a.464.464,0,0,0-.161.041Z" transform="translate(-59.891 -158.662)" fill="#fff"/>
  <path id="패스_54" data-name="패스 54" d="M79.285,172.329c0,3.4-2.313,6.158-5.155,6.158a4.613,4.613,0,0,1-3.054-1.2c-.136.109-.268.225-.394.35a.462.462,0,0,1-.648,0,5.271,5.271,0,0,0-.394-.35,4.613,4.613,0,0,1-3.054,1.2c-2.842,0-5.154-2.763-5.154-6.158a6.717,6.717,0,0,1,1.7-4.57c.517.231,1.044.44,1.569.622,4.677,1.627,5.169,4.724,5.169,5.953a3.754,3.754,0,0,1-.023.435l.031-.028c.075-.7.215-4.494-5.149-6.36a23.125,23.125,0,0,1-2.473-1.022,7.7,7.7,0,0,0-1.751,4.97c0,3.906,2.727,7.082,6.079,7.082a5.546,5.546,0,0,0,3.772-1.526,5.545,5.545,0,0,0,3.772,1.526c3.352,0,6.079-3.177,6.079-7.082a7.7,7.7,0,0,0-1.735-4.952q-.42.2-.879.4A6.721,6.721,0,0,1,79.285,172.329Z" transform="translate(-49.248 -159.327)" fill="#fff"/>
  <path id="패스_55" data-name="패스 55" d="M71.77,174.078c.028-.025.057-.049.084-.075a6.4,6.4,0,0,1,.421-2.527l-.013-.038-.006.014-.011-.029c-.561-1.435-1.945-3.394-5.348-4.578-.419-.146-.838-.315-1.254-.494-.19-.079-.382-.158-.562-.239a.461.461,0,0,0-.292-.014.433.433,0,0,0-.082.033.468.468,0,0,0-.114.085c-.156.152-.3.314-.444.48a23.125,23.125,0,0,0,2.473,1.022C71.984,169.583,71.844,173.378,71.77,174.078Z" transform="translate(-51.137 -158.663)" fill="#fff"/>
  <path id="패스_56" data-name="패스 56" d="M88.552,166.126a.437.437,0,0,0-.076-.03.463.463,0,0,0-.167-.018c-.584.265-1.219.523-1.915.765-3.311,1.152-4.744,3.038-5.351,4.631a6.366,6.366,0,0,1,.419,2.575l.063.056a3.651,3.651,0,0,1-.019-.388c0-1.192.466-4.367,5.163-6,.525-.183,1.052-.392,1.57-.622l.013.016q.459-.2.879-.4a6.645,6.645,0,0,0-.46-.5A.469.469,0,0,0,88.552,166.126Z" transform="translate(-59.905 -158.661)" fill="#fff"/>
  <path id="패스_57" data-name="패스 57" d="M80.161,179.823c.023-.022.047-.04.07-.063a.462.462,0,0,1,.648,0c.04.039.083.073.123.11a6.366,6.366,0,0,0-.419-2.575A6.4,6.4,0,0,0,80.161,179.823Z" transform="translate(-59.445 -164.484)" fill="#fff"/>
  <path id="패스_58" data-name="패스 58" d="M68.366,175.2a2.435,2.435,0,1,0,2.435,2.435A2.435,2.435,0,0,0,68.366,175.2Zm0,3.938a1.5,1.5,0,1,1,1.5-1.5A1.506,1.506,0,0,1,68.366,179.135Z" transform="translate(-52.063 -163.394)" fill="#fff"/>
  <path id="패스_59" data-name="패스 59" d="M85.857,177.632a2.435,2.435,0,1,0,2.435-2.435A2.435,2.435,0,0,0,85.857,177.632Zm3.972,0a1.5,1.5,0,1,1-1.5-1.5A1.506,1.506,0,0,1,89.829,177.632Z" transform="translate(-62.404 -163.394)" fill="#fff"/>
  <path id="패스_60" data-name="패스 60" d="M57.822,194.967c-.8,2.436-1.274,3.858-1.547,4.687.164.492.331.966.5,1.418.008-.015.017-.025.024-.042h0l0-.011c.007-.018.014-.036.021-.056a.4.4,0,0,0,.014-.052c.11-.338.507-1.546,1.864-5.655a7.384,7.384,0,0,0-4.28-9.686c-.042.309-.078.628-.11.953C55.586,187.088,59.668,189.379,57.822,194.967Z" transform="translate(-46.032 -168.778)" fill="#fff"/>
  <path id="패스_61" data-name="패스 61" d="M52.941,185.692a.462.462,0,0,0,.287.587c.032.011.164.059.359.145.031-.325.067-.644.11-.953-.1-.042-.162-.064-.168-.066A.461.461,0,0,0,52.941,185.692Z" transform="translate(-45.308 -168.679)" fill="#fff"/>
  <path id="패스_62" data-name="패스 62" d="M57.952,214.975c-.133.405-.213.65-.26.794-.011.032-.023.071-.035.115l-.017.051,0,0a.45.45,0,0,0,.282.6.508.508,0,0,0,.156.025.453.453,0,0,0,.409-.3c-.167-.452-.334-.926-.5-1.418Z" transform="translate(-47.75 -183.972)" fill="#fff"/>
  <path id="패스_63" data-name="패스 63" d="M99.045,194.982c-1.824-5.521,2.166-7.832,3.478-8.427-.031-.326-.067-.646-.109-.956a7.376,7.376,0,0,0-4.247,9.672c1.357,4.109,1.754,5.317,1.864,5.655a.5.5,0,0,0,.014.052c.007.02.013.038.021.056l0,.011h0l0,0c.168-.457.337-.937.5-1.434C100.3,198.777,99.833,197.365,99.045,194.982Z" transform="translate(-68.523 -168.793)" fill="#fff"/>
  <path id="패스_64" data-name="패스 64" d="M103.116,216.5a.51.51,0,0,0,.156-.025.45.45,0,0,0,.282-.6l0,0-.017-.051c-.012-.044-.025-.084-.035-.115-.047-.144-.127-.389-.26-.794l-.06-.181c-.165.5-.333.977-.5,1.434A.461.461,0,0,0,103.116,216.5Z" transform="translate(-71.137 -183.913)" fill="#fff"/>
  <path id="패스_65" data-name="패스 65" d="M108.057,186.279a.462.462,0,0,0-.3-.874c-.007,0-.08.029-.2.08.042.31.077.63.109.956C107.877,186.344,108.023,186.291,108.057,186.279Z" transform="translate(-73.664 -168.679)" fill="#fff"/>
  <path id="패스_66" data-name="패스 66" d="M130.325,161.445a3.121,3.121,0,0,0,1.4-.326.462.462,0,0,0,0-.828,2.228,2.228,0,0,1,0-3.995.462.462,0,0,0,0-.829,3.152,3.152,0,1,0-1.4,5.978Zm0-5.38c.049,0,.1,0,.145,0a3.16,3.16,0,0,0,0,4.446c-.048,0-.1,0-.145,0a2.228,2.228,0,1,1,0-4.455Z" transform="translate(-83.845 -152.986)" fill="#fff"/>
  <path id="패스_67" data-name="패스 67" d="M41.922,163.692l-2.155,2.155a.462.462,0,0,0,.654.653l1.366-1.366v-1.116A.462.462,0,0,1,41.922,163.692Z" transform="translate(-38.414 -157.424)" fill="#fff"/>
  <path id="패스_68" data-name="패스 68" d="M45.887,165.135l1.366,1.366a.462.462,0,0,0,.653-.653l-2.155-2.155a.46.46,0,0,1,.135.327Z" transform="translate(-41.59 -157.424)" fill="#fff"/>
  <path id="패스_69" data-name="패스 69" d="M44.7,163.446a.458.458,0,0,1,.178-.036A.458.458,0,0,0,44.7,163.446Z" transform="translate(-41.046 -157.277)" fill="#fff"/>
  <path id="패스_70" data-name="패스 70" d="M45.072,163.41a.458.458,0,0,1,.178.036A.456.456,0,0,0,45.072,163.41Z" transform="translate(-41.238 -157.277)" fill="#fff"/>
  <path id="패스_71" data-name="패스 71" d="M39.767,170.472a.462.462,0,1,0,.654.654l1.366-1.366v-1.307Z" transform="translate(-38.414 -159.894)" fill="#fff"/>
  <path id="패스_72" data-name="패스 72" d="M47.4,171.126a.462.462,0,0,0,.653-.654l-2.019-2.019v1.307Z" transform="translate(-41.736 -159.894)" fill="#fff"/>
  <path id="패스_73" data-name="패스 73" d="M39.767,174.952a.462.462,0,1,0,.654.654l1.366-1.366v-1.307Z" transform="translate(-38.414 -162.219)" fill="#fff"/>
  <path id="패스_74" data-name="패스 74" d="M47.4,175.606a.462.462,0,1,0,.653-.654l-2.019-2.019v1.307Z" transform="translate(-41.736 -162.219)" fill="#fff"/>
  <path id="패스_75" data-name="패스 75" d="M44.111,175.152v5.689a.462.462,0,1,0,.925,0v-5.689l-.462-.462Z" transform="translate(-40.739 -163.131)" fill="#fff"/>
  <path id="패스_76" data-name="패스 76" d="M44.541,163.485a.456.456,0,0,0-.149.1h0A.459.459,0,0,1,44.541,163.485Z" transform="translate(-40.885 -157.316)" fill="#fff"/>
  <path id="패스_77" data-name="패스 77" d="M44.247,171.384a.462.462,0,0,1,.653,0l.136.136v-.848l-.462-.462-.462.462v.848Z" transform="translate(-40.739 -160.806)" fill="#fff"/>
  <path id="패스_78" data-name="패스 78" d="M45.591,163.585a.455.455,0,0,0-.149-.1.454.454,0,0,1,.149.1Z" transform="translate(-41.43 -157.316)" fill="#fff"/>
  <path id="패스_79" data-name="패스 79" d="M44.9,166.9l.136.135v-.848l-.462-.462-.462.462v.848l.136-.135A.461.461,0,0,1,44.9,166.9Z" transform="translate(-40.739 -158.481)" fill="#fff"/>
  <path id="패스_80" data-name="패스 80" d="M45.036,164.988v-1.116a.46.46,0,0,0-.135-.327h0a.46.46,0,0,0-.5-.1.459.459,0,0,0-.149.1h0a.462.462,0,0,0-.135.327v1.116l.462-.462Z" transform="translate(-40.739 -157.277)" fill="#fff"/>
  <path id="패스_81" data-name="패스 81" d="M45.036,169.468v-1.307l-.136-.135a.461.461,0,0,0-.653,0l-.136.135v1.307l.462-.462Z" transform="translate(-40.739 -159.602)" fill="#fff"/>
  <path id="패스_82" data-name="패스 82" d="M44.573,172.37a.462.462,0,0,0-.327.135l-.136.136v1.307l.462-.462.462.462v-1.307l-.136-.136A.462.462,0,0,0,44.573,172.37Z" transform="translate(-40.739 -161.927)" fill="#fff"/>
  <path id="패스_83" data-name="패스 83" d="M134.536,186.309l-2.155,2.155a.462.462,0,0,0,.654.654l1.366-1.366v-1.116A.462.462,0,0,1,134.536,186.309Z" transform="translate(-86.478 -169.161)" fill="#fff"/>
  <path id="패스_84" data-name="패스 84" d="M137.317,186.063a.457.457,0,0,1,.178-.036A.458.458,0,0,0,137.317,186.063Z" transform="translate(-89.11 -169.015)" fill="#fff"/>
  <path id="패스_85" data-name="패스 85" d="M137.865,186.063a.458.458,0,0,0-.178-.036A.458.458,0,0,1,137.865,186.063Z" transform="translate(-89.302 -169.015)" fill="#fff"/>
  <path id="패스_86" data-name="패스 86" d="M138.5,187.751l1.366,1.366a.462.462,0,1,0,.653-.654l-2.155-2.155a.46.46,0,0,1,.135.327Z" transform="translate(-89.654 -169.161)" fill="#fff"/>
  <path id="패스_87" data-name="패스 87" d="M140.014,193.743a.462.462,0,0,0,.653-.654l-2.019-2.019v1.307Z" transform="translate(-89.8 -171.632)" fill="#fff"/>
  <path id="패스_88" data-name="패스 88" d="M132.382,193.089a.462.462,0,0,0,.654.654l1.366-1.366V191.07Z" transform="translate(-86.478 -171.632)" fill="#fff"/>
  <path id="패스_89" data-name="패스 89" d="M140.014,198.223a.462.462,0,1,0,.653-.654l-2.019-2.019v1.307Z" transform="translate(-89.8 -173.957)" fill="#fff"/>
  <path id="패스_90" data-name="패스 90" d="M132.382,197.569a.462.462,0,0,0,.654.654l1.366-1.366V195.55Z" transform="translate(-86.478 -173.957)" fill="#fff"/>
  <path id="패스_91" data-name="패스 91" d="M137.156,186.1a.456.456,0,0,0-.149.1h0A.457.457,0,0,1,137.156,186.1Z" transform="translate(-88.949 -169.054)" fill="#fff"/>
  <path id="패스_92" data-name="패스 92" d="M138.206,186.2a.456.456,0,0,0-.149-.1.452.452,0,0,1,.149.1Z" transform="translate(-89.494 -169.054)" fill="#fff"/>
  <path id="패스_93" data-name="패스 93" d="M136.726,197.768v5.689a.462.462,0,1,0,.925,0v-5.689l-.462-.462Z" transform="translate(-88.803 -174.868)" fill="#fff"/>
  <path id="패스_94" data-name="패스 94" d="M136.726,193.288v.848l.136-.136a.462.462,0,0,1,.653,0l.136.136v-.848l-.462-.462Z" transform="translate(-88.803 -172.543)" fill="#fff"/>
  <path id="패스_95" data-name="패스 95" d="M136.726,188.808v.848l.136-.136a.462.462,0,0,1,.653,0l.136.136v-.848l-.462-.462Z" transform="translate(-88.803 -170.218)" fill="#fff"/>
  <path id="패스_96" data-name="패스 96" d="M137.01,186.063a.457.457,0,0,0-.149.1h0a.462.462,0,0,0-.135.327V187.6l.462-.462.462.462v-1.116a.46.46,0,0,0-.135-.327h0a.452.452,0,0,0-.149-.1.457.457,0,0,0-.356,0Z" transform="translate(-88.803 -169.015)" fill="#fff"/>
  <path id="패스_97" data-name="패스 97" d="M137.188,190.507a.462.462,0,0,0-.327.135l-.136.136v1.307l.462-.462.462.462v-1.307l-.136-.136A.462.462,0,0,0,137.188,190.507Z" transform="translate(-88.803 -171.34)" fill="#fff"/>
  <path id="패스_98" data-name="패스 98" d="M136.862,195.122l-.136.136v1.307l.462-.462.462.462v-1.307l-.136-.136A.462.462,0,0,0,136.862,195.122Z" transform="translate(-88.803 -173.665)" fill="#fff"/>
  <path id="패스_99" data-name="패스 99" d="M38.028,199.42h.708v-.925h-.708a.462.462,0,0,0,0,.925Z" transform="translate(-37.342 -175.485)" fill="#fff"/>
  <path id="패스_100" data-name="패스 100" d="M42.628,199.42a.462.462,0,0,0,0-.925H41.92v.925Z" transform="translate(-39.602 -175.485)" fill="#fff"/>
  <path id="패스_101" data-name="패스 101" d="M40,201.125a.462.462,0,1,0,.925,0v-.708H40Z" transform="translate(-38.604 -176.483)" fill="#fff"/>
  <path id="패스_102" data-name="패스 102" d="M40.923,196.525a.462.462,0,0,0-.925,0v.708h.925Z" transform="translate(-38.604 -174.223)" fill="#fff"/>
  <rect id="사각형_7" data-name="사각형 7" width="0.924" height="0.924" transform="translate(1.394 23.01)" fill="#fff"/>
  <path id="패스_103" data-name="패스 103" d="M120.931,189.822a.462.462,0,1,0,0,.925h.376v-.925Z" transform="translate(-80.366 -170.984)" fill="#fff"/>
  <path id="패스_104" data-name="패스 104" d="M124.511,190.747a.462.462,0,0,0,0-.925h-.377v.925Z" transform="translate(-82.268 -170.984)" fill="#fff"/>
  <path id="패스_105" data-name="패스 105" d="M122.674,192.582a.462.462,0,0,0,.462-.462v-.376h-.925v.376A.462.462,0,0,0,122.674,192.582Z" transform="translate(-81.271 -171.982)" fill="#fff"/>
  <path id="패스_106" data-name="패스 106" d="M123.137,188.54a.462.462,0,1,0-.925,0v.377h.925Z" transform="translate(-81.271 -170.079)" fill="#fff"/>
  <rect id="사각형_8" data-name="사각형 8" width="0.924" height="0.924" transform="translate(40.942 18.838)" fill="#fff"/>
  <path id="패스_107" data-name="패스 107" d="M100.489,154.018a.462.462,0,1,0,0-.925h-.708v.925Z" transform="translate(-69.63 -151.923)" fill="#fff"/>
  <path id="패스_108" data-name="패스 108" d="M95.889,154.018H96.6v-.925h-.708a.462.462,0,0,0,0,.925Z" transform="translate(-67.37 -151.923)" fill="#fff"/>
  <path id="패스_109" data-name="패스 109" d="M97.859,155.723a.462.462,0,0,0,.925,0v-.708h-.925Z" transform="translate(-68.632 -152.921)" fill="#fff"/>
  <path id="패스_110" data-name="패스 110" d="M98.784,151.123a.462.462,0,0,0-.925,0v.708h.925Z" transform="translate(-68.632 -150.661)" fill="#fff"/>
  <rect id="사각형_9" data-name="사각형 9" width="0.924" height="0.924" transform="translate(29.227 1.17)" fill="#fff"/>
  <path id="패스_111" data-name="패스 111" d="M115.47,161.658h.229v-.925h-.229a.462.462,0,1,0,0,.925Z" transform="translate(-77.532 -155.888)" fill="#fff"/>
  <path id="패스_112" data-name="패스 112" d="M118.6,161.658a.462.462,0,1,0,0-.925h-.229v.925Z" transform="translate(-79.276 -155.888)" fill="#fff"/>
  <path id="패스_113" data-name="패스 113" d="M116.446,162.884a.462.462,0,0,0,.925,0v-.229h-.925Z" transform="translate(-78.278 -156.885)" fill="#fff"/>
  <path id="패스_114" data-name="패스 114" d="M117.371,159.757a.462.462,0,0,0-.925,0v.229h.925Z" transform="translate(-78.278 -155.142)" fill="#fff"/>
  <rect id="사각형_10" data-name="사각형 10" width="0.924" height="0.924" transform="translate(38.168 4.845)" fill="#fff"/>
  <path id="패스_115" data-name="패스 115" d="M46.561,208.574a.462.462,0,1,0,0,.924h.229v-.924Z" transform="translate(-41.771 -180.716)" fill="#fff"/>
  <path id="패스_116" data-name="패스 116" d="M49.459,208.574v.924h.229a.462.462,0,1,0,0-.924Z" transform="translate(-43.514 -180.716)" fill="#fff"/>
  <path id="패스_117" data-name="패스 117" d="M47.537,210.725a.462.462,0,1,0,.925,0v-.23h-.925Z" transform="translate(-42.517 -181.713)" fill="#fff"/>
  <path id="패스_118" data-name="패스 118" d="M48.462,207.6a.462.462,0,0,0-.925,0v.23h.925Z" transform="translate(-42.517 -179.969)" fill="#fff"/>
  <rect id="사각형_11" data-name="사각형 11" width="0.924" height="0.924" transform="translate(5.02 27.858)" fill="#fff"/>
  <path id="패스_119" data-name="패스 119" d="M115.775,174.551h1.677a1.26,1.26,0,0,0,1.214,1.593h4.3a1.258,1.258,0,1,0,0-2.517h-1.676a1.26,1.26,0,0,0-1.214-1.593h-4.3a1.258,1.258,0,0,0,0,2.517Zm0-1.592h4.3a.334.334,0,0,1,0,.668.462.462,0,1,0,0,.924h2.89a.334.334,0,1,1,0,.668h-4.3a.334.334,0,0,1,0-.668.462.462,0,1,0,0-.924h-2.891a.334.334,0,0,1,0-.668Z" transform="translate(-77.277 -161.753)" fill="#fff"/>
  <path id="패스_120" data-name="패스 120" d="M70.36,179.04a.586.586,0,1,0,.586.586A.587.587,0,0,0,70.36,179.04Z" transform="translate(-54.057 -165.389)" fill="#fff"/>
  <path id="패스_121" data-name="패스 121" d="M69.968,178.285a.949.949,0,1,0,.949.949A.949.949,0,0,0,69.968,178.285Zm0,1.535a.586.586,0,1,1,.586-.586A.587.587,0,0,1,69.968,179.82Z" transform="translate(-53.665 -164.997)" fill="#fff"/>
  <path id="패스_122" data-name="패스 122" d="M90.286,180.212a.586.586,0,1,0-.586-.586A.586.586,0,0,0,90.286,180.212Z" transform="translate(-64.398 -165.389)" fill="#fff"/>
  <path id="패스_123" data-name="패스 123" d="M89.964,180.183a.949.949,0,1,0-.949-.949A.949.949,0,0,0,89.964,180.183Zm-.034-1.535a.586.586,0,1,1-.586.586A.587.587,0,0,1,89.93,178.648Z" transform="translate(-64.042 -164.997)" fill="#fff"/>
  <path id="패스_124" data-name="패스 124" d="M80.808,184.115a.462.462,0,0,0-.287-.428,5.047,5.047,0,0,1-1.425-.9c0,.026.006.046.008.055a.463.463,0,0,1-.38.532.471.471,0,0,1-.077.006c-.009,0-.017,0-.026,0a.481.481,0,0,1-.064,0h-.01c-.009,0-.017,0-.025,0a.457.457,0,0,1-.072-.006c-.012,0-.023,0-.035,0a.462.462,0,0,1-.384-.455.491.491,0,0,1,.007-.079c0-.011.006-.041.011-.081a5.043,5.043,0,0,1-1.457.924.462.462,0,0,0,0,.855,5.022,5.022,0,0,1,1.247.739c.131-.115.258-.238.381-.369a.461.461,0,0,1,.675,0c.123.131.25.254.381.369a5.022,5.022,0,0,1,1.247-.739A.462.462,0,0,0,80.808,184.115Zm-2.252.56a6.031,6.031,0,0,0-.771-.56,6.034,6.034,0,0,0,.771-.56,5.95,5.95,0,0,0,.771.56A5.992,5.992,0,0,0,78.556,184.676Z" transform="translate(-57.445 -167.321)" fill="#fff"/>
  <path id="패스_125" data-name="패스 125" d="M80.834,184.049c.009,0,.017,0,.025,0a.443.443,0,0,1-.1,0A.457.457,0,0,0,80.834,184.049Z" transform="translate(-59.759 -167.985)" fill="#fff"/>
  <path id="패스_126" data-name="패스 126" d="M81.581,182.925a.462.462,0,0,1-.384.455.418.418,0,0,1-.077,0c.009,0,.017,0,.026,0a.471.471,0,0,0,.077-.006.463.463,0,0,0,.38-.532c0-.009,0-.029-.008-.055l-.03-.027c0,.045.009.077.01.08A.441.441,0,0,1,81.581,182.925Z" transform="translate(-59.945 -167.322)" fill="#fff"/>
  <path id="패스_127" data-name="패스 127" d="M80.211,186.927a.463.463,0,0,0-.338.147c-.123.131-.25.254-.381.369a5.27,5.27,0,0,1,.394.35.462.462,0,0,0,.648,0c.127-.125.259-.241.394-.35-.131-.115-.258-.238-.381-.369A.462.462,0,0,0,80.211,186.927Z" transform="translate(-59.1 -169.482)" fill="#fff"/>
  <path id="패스_128" data-name="패스 128" d="M80.975,184.039a.483.483,0,0,0,.064,0c-.012,0-.023,0-.035-.006s-.026.006-.04.007Z" transform="translate(-59.865 -167.979)" fill="#fff"/>
  <path id="패스_129" data-name="패스 129" d="M79.892,182.894a.462.462,0,0,0,.384.455c.012,0,.023,0,.035,0H80.3a.462.462,0,0,1-.377-.534c0-.013.008-.052.013-.109l-.031.028c0,.039-.009.07-.011.081A.491.491,0,0,0,79.892,182.894Z" transform="translate(-59.308 -167.291)" fill="#fff"/>
  <path id="패스_130" data-name="패스 130" d="M80.334,183.268h.007a.443.443,0,0,0,.1,0c.014,0,.026-.005.04-.007a.457.457,0,0,1-.394-.372,3.325,3.325,0,0,1-.03-.341c-.027.026-.056.05-.084.075-.006.057-.012.1-.013.109A.462.462,0,0,0,80.334,183.268Z" transform="translate(-59.338 -167.21)" fill="#fff"/>
  <path id="패스_131" data-name="패스 131" d="M81.048,183.314c.012,0,.023.005.035.006a.418.418,0,0,0,.077,0,.462.462,0,0,0,.384-.455.441.441,0,0,0-.007-.079s0-.035-.01-.08l-.063-.056c-.01.179-.026.286-.027.293A.458.458,0,0,1,81.048,183.314Z" transform="translate(-59.908 -167.262)" fill="#fff"/>
  <path id="패스_132" data-name="패스 132" d="M80.237,182.277c-.023.022-.047.041-.07.063a3.325,3.325,0,0,0,.03.341.392.392,0,0,0,.784,0c0-.007.017-.114.027-.293-.04-.038-.083-.071-.123-.11A.462.462,0,0,0,80.237,182.277Z" transform="translate(-59.451 -167)" fill="#fff"/>
  <path id="패스_133" data-name="패스 133" d="M80.456,218.767h-4.9a.462.462,0,0,0,0,.925h4.9a.462.462,0,1,0,0-.925Z" transform="translate(-56.817 -186.006)" fill="#fff"/>
  <path id="패스_134" data-name="패스 134" d="M70.956,198.443v-1.408a.462.462,0,1,0-.924,0v1.408a.462.462,0,1,0,.924,0Z" transform="translate(-54.191 -174.488)" fill="#fff"/>
  <path id="패스_135" data-name="패스 135" d="M90.489,196.573a.462.462,0,0,0-.462.462v1.408a.462.462,0,1,0,.925,0v-1.408A.463.463,0,0,0,90.489,196.573Z" transform="translate(-64.568 -174.488)" fill="#fff"/>
  <path id="패스_136" data-name="패스 136" d="M83.824,198.906a.462.462,0,0,0,.462-.462v-1.408a.462.462,0,1,0-.924,0v1.408A.462.462,0,0,0,83.824,198.906Z" transform="translate(-61.109 -174.488)" fill="#fff"/>
  <path id="패스_137" data-name="패스 137" d="M77.159,198.906a.462.462,0,0,0,.462-.462v-1.408a.462.462,0,1,0-.924,0v1.408A.462.462,0,0,0,77.159,198.906Z" transform="translate(-57.65 -174.488)" fill="#fff"/>
  <path id="패스_138" data-name="패스 138" d="M83.362,211.785a.462.462,0,1,0,.924,0v-1.408a.462.462,0,0,0-.924,0Z" transform="translate(-61.109 -181.412)" fill="#fff"/>
  <path id="패스_139" data-name="패스 139" d="M76.7,211.785a.462.462,0,1,0,.924,0v-1.408a.462.462,0,0,0-.924,0Z" transform="translate(-57.65 -181.412)" fill="#fff"/>
  <path id="패스_140" data-name="패스 140" d="M87.152,203.441a.462.462,0,0,0-.462.462v1.408a.462.462,0,1,0,.925,0V203.9A.462.462,0,0,0,87.152,203.441Z" transform="translate(-62.836 -178.052)" fill="#fff"/>
  <path id="패스_141" data-name="패스 141" d="M80.949,205.312V203.9a.462.462,0,1,0-.924,0v1.408a.462.462,0,1,0,.924,0Z" transform="translate(-59.377 -178.052)" fill="#fff"/>
  <path id="패스_142" data-name="패스 142" d="M74.285,203.9a.462.462,0,0,0-.925,0v1.408a.462.462,0,1,0,.925,0Z" transform="translate(-55.918 -178.052)" fill="#fff"/>
</svg>
