<svg xmlns="http://www.w3.org/2000/svg" width="12.569" height="12.568"><path data-name="Icon ionic-ios-call" d="M12.21 9.841a10.557 10.557 0 0 0-2.205-1.476c-.661-.317-.9-.311-1.371.026-.389.281-.641.543-1.09.445a6.5 6.5 0 0 1-2.189-1.62 6.453 6.453 0 0 1-1.624-2.188c-.095-.452.167-.7.445-1.09.337-.468.347-.71.026-1.371A10.348 10.348 0 0 0 2.727.363c-.481-.481-.589-.376-.854-.281a4.86 4.86 0 0 0-.782.416 2.359 2.359 0 0 0-.939.991c-.187.4-.4 1.152.7 3.108a17.344 17.344 0 0 0 3.049 4.067 17.412 17.412 0 0 0 4.067 3.049c1.957 1.1 2.706.883 3.108.7a2.319 2.319 0 0 0 .991-.939 4.86 4.86 0 0 0 .416-.782c.099-.262.207-.37-.273-.851Z" fill="#fff"/></svg>