<svg data-name="구성 요소 12 – 1" xmlns="http://www.w3.org/2000/svg" width="290.283" height="214.689"><path data-name="패스 25" d="M2.484 214.69a2.451 2.451 0 0 0 .971-.2c17.458-7.438 25.132-15.992 29.585-33.37h29.7a2.481 2.481 0 1 0 0-4.962h-4.016c.16.416.32.849.48 1.255a2.481 2.481 0 0 1-4.616 1.818 180.16 180.16 0 0 1-1.177-3.072H31.099a2.482 2.482 0 0 0-2.417 1.916c-3.506 14.941-8.672 23.972-27.169 31.855a2.481 2.481 0 0 0 .973 4.764Z" fill="#e2e2d3"/><path data-name="패스 26" d="M243.074 181.118h14.169c4.454 17.378 12.127 25.932 29.585 33.37a2.454 2.454 0 0 0 .973.2 2.481 2.481 0 0 0 .973-4.764c-18.5-7.882-23.665-16.914-27.171-31.855a2.48 2.48 0 0 0-2.414-1.916h-13.254l-.405 2.835a2.48 2.48 0 0 1-2.456 2.13Z" fill="#e2e2d3"/><path data-name="패스 27" d="M170.008 180.801a2.433 2.433 0 0 1-.906-.173 2.48 2.48 0 0 1-1.4-3.214c.16-.405.32-.842.48-1.257h-4.141a2.481 2.481 0 1 0 0 4.962H224.6a2.48 2.48 0 0 1-2.455-2.127l-.408-2.835h-8.955a22.735 22.735 0 0 1-2.047 3.6 2.476 2.476 0 0 1-2.019 1.04h-13.228a2.476 2.476 0 0 1-2.019-1.04 22.73 22.73 0 0 1-2.047-3.6h-17.928c-.405 1.087-.8 2.114-1.177 3.07a2.478 2.478 0 0 1-2.309 1.574Z" fill="#e2e2d3"/><path data-name="패스 28" d="M75.669 167.951a2.482 2.482 0 0 0-3.351 1.038 23.171 23.171 0 0 0-.979 19.924 2.484 2.484 0 0 0 2.3 1.539 2.426 2.426 0 0 0 .942-.189 2.482 2.482 0 0 0 1.353-3.238 18.285 18.285 0 0 1 .78-15.726 2.478 2.478 0 0 0-1.045-3.348Z" fill="#e2e2d3"/><path data-name="패스 29" d="M87.785 167.951a2.475 2.475 0 0 0-1.038 3.349 18.294 18.294 0 0 1 .78 15.726 2.478 2.478 0 0 0 1.35 3.238 2.436 2.436 0 0 0 .942.189 2.484 2.484 0 0 0 2.3-1.539 23.171 23.171 0 0 0-.978-19.924 2.482 2.482 0 0 0-3.356-1.039Z" fill="#e2e2d3"/><path data-name="패스 30" d="M81.728 167.663a2.48 2.48 0 0 0-2.481 2.481v17.825a2.481 2.481 0 0 0 4.962 0v-17.824a2.482 2.482 0 0 0-2.481-2.482Z" fill="#e2e2d3"/><path data-name="패스 31" d="M139.119 167.951a2.48 2.48 0 0 0-3.351 1.038 23.171 23.171 0 0 0-.979 19.924 2.481 2.481 0 0 0 2.3 1.539 2.436 2.436 0 0 0 .942-.189 2.478 2.478 0 0 0 1.35-3.238 18.294 18.294 0 0 1 .78-15.726 2.475 2.475 0 0 0-1.042-3.348Z" fill="#e2e2d3"/><path data-name="패스 32" d="M151.233 167.951a2.48 2.48 0 0 0-1.038 3.349 18.285 18.285 0 0 1 .78 15.726 2.482 2.482 0 0 0 1.353 3.238 2.427 2.427 0 0 0 .942.189 2.484 2.484 0 0 0 2.3-1.539 23.171 23.171 0 0 0-.981-19.924 2.481 2.481 0 0 0-3.356-1.039Z" fill="#e2e2d3"/><path data-name="패스 33" d="M145.176 167.663a2.482 2.482 0 0 0-2.481 2.481v17.825a2.481 2.481 0 0 0 4.962 0v-17.824a2.48 2.48 0 0 0-2.481-2.482Z" fill="#e2e2d3"/><path data-name="패스 34" d="M216.27 158.694c0-10.054-2.92-19.007-7.531-23.391l.759-9.421a2.478 2.478 0 0 0-2.471-2.68h-9.847a2.478 2.478 0 0 0-2.471 2.68l.759 9.421c-4.611 4.384-7.534 13.338-7.534 23.391a42.371 42.371 0 0 0 3.488 17.461h21.362a42.371 42.371 0 0 0 3.486-17.461Zm-19.444 17.143c-2.473-4.115-3.929-10.4-3.929-17.143 0-9.031 2.732-17.4 6.64-20.35a2.475 2.475 0 0 0 .979-2.179l-.645-8h4.467l-.645 8a2.481 2.481 0 0 0 .978 2.179c3.909 2.951 6.64 11.319 6.64 20.35 0 6.741-1.456 13.028-3.93 17.143Z" fill="#e2e2d3"/><path data-name="패스 35" d="M195.488 180.801h13.229a2.476 2.476 0 0 0 2.019-1.04 22.734 22.734 0 0 0 2.047-3.6h-21.361a22.73 22.73 0 0 0 2.047 3.6 2.476 2.476 0 0 0 2.019 1.04Z" fill="#e2e2d3"/><path data-name="패스 36" d="M225.087 164.579h17.5l-1.663 11.577h5.007l1.967-13.7a2.483 2.483 0 0 0-2.455-2.835h-23.22a2.483 2.483 0 0 0-2.455 2.835l1.967 13.7h5.011Z" fill="#e2e2d3"/><path data-name="패스 37" d="M224.598 181.118h18.476a2.48 2.48 0 0 0 2.455-2.127l.405-2.835h-24.2l.408 2.835a2.48 2.48 0 0 0 2.456 2.127Z" fill="#e2e2d3"/><path data-name="패스 38" d="M181.898 90.204c.651-.274 1.046-.416 1.082-.429a2.48 2.48 0 0 1 1.616 4.689 27.75 27.75 0 0 0-2.115.87c.444 4.637.7 9.542.7 14.817 0 15.447-5.228 37.4-11.166 55.274.108.328.225.679.32.973.715 2.174 1.144 3.488 1.4 4.26.054.17.124.382.188.62l.093.271-.023.01c.253 1.121.271 2.621-1.513 3.217a2.737 2.737 0 0 1-.839.137 2.474 2.474 0 0 1-2.316-1.792 215.69 215.69 0 0 1-1.146 3.034h5.313c5.936-15.87 14.654-44.725 14.654-66 0-29.634-7.35-52.318-21.842-67.427a61.143 61.143 0 0 0-2.964-2.866 105.397 105.397 0 0 1-4.606 2.461c11.019 9.37 19.957 24.327 23.164 47.881Z" fill="#e2e2d3"/><path data-name="패스 39" d="M57.652 173.328a2.432 2.432 0 0 1-2.2 1.585 2.722 2.722 0 0 1-.839-.137c-1.784-.6-1.766-2.1-1.513-3.217l-.023-.01.093-.271c.065-.238.132-.449.188-.62.25-.772.682-2.086 1.394-4.26l.225-.679C49 147.796 43.715 125.683 43.715 110.15c0-5.308.263-10.245.713-14.907a26.854 26.854 0 0 0-1.926-.777 2.481 2.481 0 0 1 1.614-4.691c.034.01.359.129.9.354 3.212-23.51 12.142-38.446 23.149-47.81a105.397 105.397 0 0 1-4.606-2.461 59.784 59.784 0 0 0-2.964 2.866c-14.494 15.109-21.842 37.793-21.842 67.427 0 21.282 8.716 50.134 14.654 66h5.317c-.356-.923-.713-1.855-1.072-2.823Z" fill="#e2e2d3"/><path data-name="패스 40" d="M113.451 27.366c11.892 0 27.453 2.264 40.863 11.556 1.73-.824 3.377-1.652 4.918-2.486-12.083-9.2-27.708-14.032-45.781-14.032s-33.69 4.828-45.771 14.024c1.541.837 3.189 1.665 4.916 2.491 13.407-9.287 28.969-11.553 40.855-11.553Z" fill="#e2e2d3"/><path data-name="패스 41" d="M57.802 180.628a2.481 2.481 0 0 0 1.4-3.217c-.16-.405-.32-.839-.48-1.255H53.41c.405 1.087.8 2.114 1.177 3.072a2.482 2.482 0 0 0 3.215 1.4Z" fill="#e2e2d3"/><path data-name="패스 42" d="M167.701 177.413a2.48 2.48 0 0 0 1.4 3.214 2.433 2.433 0 0 0 .906.173 2.478 2.478 0 0 0 2.308-1.575c.377-.955.772-1.983 1.177-3.07h-5.313c-.158.417-.318.853-.478 1.258Z" fill="#e2e2d3"/><path data-name="패스 43" d="M72.828 40.085a2.324 2.324 0 0 1 .442-.178 2.472 2.472 0 0 1 1.565.077c-.777-.349-1.495-.7-2.238-1.059a56.1 56.1 0 0 0-4.428 3.4c.529.268 1.113.529 1.663.793a36.565 36.565 0 0 1 2.383-2.577 2.511 2.511 0 0 1 .613-.456Z" fill="#e2e2d3"/><path data-name="패스 44" d="M84.733 43.912c-2.437-.847-4.7-1.74-6.881-2.649 2.233.958 4.479 1.867 6.731 2.649 18.264 6.354 25.689 16.867 28.7 24.569l.059.157.034-.077c-3.3-8.505-11.015-18.517-28.643-24.649Z" fill="#e2e2d3"/><path data-name="패스 45" d="M45.665 19.216a2.48 2.48 0 0 0-4.051 2.863c.341.483 6.584 9.114 21.948 17.778q1.983-1.8 4.118-3.429C52.083 27.976 45.745 19.33 45.665 19.216Z" fill="#e2e2d3"/><path data-name="패스 46" d="M72.597 38.921a108.312 108.312 0 0 1-4.916-2.492q-2.138 1.63-4.118 3.43c1.459.824 2.979 1.645 4.606 2.461a56.815 56.815 0 0 1 4.428-3.399Z" fill="#e2e2d3"/><path data-name="패스 47" d="M185.29 22.08a2.481 2.481 0 1 0-4.056-2.858c-.08.114-6.341 8.745-22 17.216q2.13 1.623 4.11 3.421c15.363-8.665 21.606-17.296 21.946-17.779Z" fill="#e2e2d3"/><path data-name="패스 48" d="M152.447 39.807a2.488 2.488 0 0 1 .9.1 2.337 2.337 0 0 1 .411.163 2.518 2.518 0 0 1 .64.467 35.645 35.645 0 0 1 2.471 2.675c.622-.3 1.275-.591 1.872-.891a57.43 57.43 0 0 0-4.423-3.4c-.624.297-1.226.594-1.871.886Z" fill="#e2e2d3"/><path data-name="패스 49" d="M143.8 48.598a129.364 129.364 0 0 0 8.347-3.253c-.026-.028-.046-.059-.072-.088a107.424 107.424 0 0 1-8.424 3.341c-25.214 8.773-27.713 25.811-27.713 32.211a19.6 19.6 0 0 0 .1 2.081l.163.145c-.365-2.823-2.051-24.123 27.599-34.437Z" fill="#e2e2d3"/><path data-name="패스 50" d="M158.737 42.319a105.977 105.977 0 0 0 4.606-2.461q-1.979-1.8-4.11-3.421a106.933 106.933 0 0 1-4.918 2.486 56.014 56.014 0 0 1 4.422 3.396Z" fill="#e2e2d3"/><path data-name="패스 51" d="M104.864 46.075a6.741 6.741 0 0 0 4.294-1.536 6.772 6.772 0 0 0 8.59 0 6.773 6.773 0 0 0 11.068-5.238 2.481 2.481 0 0 0-4.962 0 1.813 1.813 0 1 1-3.625 0 2.481 2.481 0 0 0-4.962 0 1.814 1.814 0 1 1-3.628 0 2.481 2.481 0 0 0-4.962 0 1.813 1.813 0 1 1-3.625 0 2.481 2.481 0 0 0-4.962 0 6.782 6.782 0 0 0 6.774 6.774Z" fill="#e2e2d3"/><path data-name="패스 52" d="M74.835 39.98c.966.436 2 .857 3.018 1.283-.945-.408-1.892-.8-2.827-1.232a1.76 1.76 0 0 0-.191-.051Z" fill="#e2e2d3"/><path data-name="패스 53" d="M151.58 40.028a101.932 101.932 0 0 1-9.558 3.88c-17.629 6.132-25.341 16.144-28.643 24.649.026.07.046.137.072.207 3.258-8.548 10.947-18.672 28.72-24.855a121.37 121.37 0 0 0 10.276-4.105 2.491 2.491 0 0 0-.865.222Z" fill="#e2e2d3"/><path data-name="패스 54" d="M161.215 69.786c0 18.225-12.413 33.053-27.667 33.053a24.757 24.757 0 0 1-16.389-6.439 28.29 28.29 0 0 0-2.117 1.877 2.478 2.478 0 0 1-3.478 0 28.273 28.273 0 0 0-2.117-1.877 24.757 24.757 0 0 1-16.389 6.439c-15.253 0-27.664-14.827-27.664-33.053a36.05 36.05 0 0 1 9.14-24.53 106.46 106.46 0 0 0 8.422 3.341c25.1 8.734 27.742 25.353 27.742 31.95a20.151 20.151 0 0 1-.124 2.337l.165-.15c.4-3.754 1.151-24.122-27.633-34.137a124.106 124.106 0 0 1-13.273-5.486 41.316 41.316 0 0 0-9.4 26.675c0 20.962 14.636 38.012 32.626 38.012a29.766 29.766 0 0 0 20.247-8.19 29.759 29.759 0 0 0 20.244 8.19c17.99 0 32.627-17.05 32.627-38.012a41.332 41.332 0 0 0-9.31-26.577q-2.254 1.084-4.717 2.135a36.072 36.072 0 0 1 9.065 24.442Z" fill="#e2e2d3"/><path data-name="패스 55" d="M110.737 82.735c.15-.134.3-.263.452-.4a34.327 34.327 0 0 1 2.262-13.565c-.026-.07-.046-.137-.072-.207l-.034.077-.059-.158c-3.013-7.7-10.438-18.215-28.7-24.569-2.251-.782-4.5-1.691-6.731-2.649-1.02-.426-2.053-.847-3.018-1.283a2.473 2.473 0 0 0-1.565-.078 2.333 2.333 0 0 0-.442.178 2.511 2.511 0 0 0-.614.454 36.13 36.13 0 0 0-2.383 2.577 124.109 124.109 0 0 0 13.273 5.486c28.783 10.015 28.032 30.383 27.631 34.137Z" fill="#e2e2d3"/><path data-name="패스 56" d="M153.753 40.068a2.344 2.344 0 0 0-.41-.163 2.487 2.487 0 0 0-.9-.1 120.77 120.77 0 0 1-10.276 4.105c-17.773 6.183-25.462 16.307-28.72 24.855a34.165 34.165 0 0 1 2.251 13.821l.336.3a19.6 19.6 0 0 1-.1-2.081c0-6.4 2.5-23.438 27.713-32.211 2.819-.981 5.646-2.1 8.425-3.341.026.028.046.059.072.088q2.463-1.054 4.717-2.135a35.664 35.664 0 0 0-2.471-2.675 2.519 2.519 0 0 0-.637-.463Z" fill="#e2e2d3"/><path data-name="패스 57" d="M111.189 82.332c.121-.116.253-.217.374-.336a2.478 2.478 0 0 1 3.478 0c.214.209.444.39.661.591a34.166 34.166 0 0 0-2.251-13.816 34.325 34.325 0 0 0-2.262 13.561Z" fill="#e2e2d3"/><path data-name="패스 58" d="M87.504 63.351a13.068 13.068 0 1 0 13.069 13.067 13.067 13.067 0 0 0-13.069-13.067Zm0 21.137a8.071 8.071 0 1 1 8.071-8.071 8.081 8.081 0 0 1-8.071 8.068Z" fill="#e2e2d3"/><path data-name="패스 59" d="M125.88 76.415a13.068 13.068 0 1 0 13.067-13.064 13.067 13.067 0 0 0-13.067 13.064Zm21.318 0a8.071 8.071 0 1 1-8.071-8.071 8.081 8.081 0 0 1 8.071 8.071Z" fill="#e2e2d3"/><path data-name="패스 60" d="M63.281 140.559a25413.37 25413.37 0 0 0-8.3 25.157c.88 2.641 1.776 5.184 2.672 7.609.041-.083.09-.134.126-.225h.005l.018-.057c.039-.1.075-.194.111-.3a2.159 2.159 0 0 0 .075-.281c.589-1.813 2.719-8.3 10-30.352 11.794-35.7-17.42-49.692-22.973-51.988a128.447 128.447 0 0 0-.589 5.115c6.855 3.038 28.764 15.337 18.855 45.322Z" fill="#e2e2d3"/><path data-name="패스 61" d="M40.966 91.314a2.479 2.479 0 0 0 1.539 3.152c.173.059.88.315 1.926.777.168-1.745.361-3.457.589-5.115a20.408 20.408 0 0 0-.9-.354 2.475 2.475 0 0 0-3.154 1.54Z" fill="#e2e2d3"/><path data-name="패스 62" d="M54.759 166.399c-.713 2.174-1.144 3.488-1.394 4.26-.057.17-.124.382-.188.62l-.093.271.023.01c-.253 1.12-.271 2.62 1.513 3.217a2.725 2.725 0 0 0 .839.137 2.432 2.432 0 0 0 2.2-1.585c-.9-2.424-1.792-4.967-2.672-7.609-.079.222-.164.475-.228.679Z" fill="#e2e2d3"/><path data-name="패스 63" d="M163.815 140.562c-9.79-29.632 11.626-42.037 18.667-45.228-.168-1.75-.359-3.467-.583-5.13-5.982 2.517-34.465 16.591-22.792 51.913 7.286 22.054 9.413 28.539 10 30.352a2.685 2.685 0 0 0 .077.281c.036.106.072.2.111.3l.016.057h.005l.01.018c.9-2.455 1.807-5.027 2.693-7.7-1.476-4.489-3.975-12.07-8.204-24.863Z" fill="#e2e2d3"/><path data-name="패스 64" d="M171.642 174.914a2.736 2.736 0 0 0 .839-.137c1.784-.6 1.766-2.1 1.513-3.217l.023-.01-.093-.271c-.065-.238-.134-.449-.189-.62-.253-.772-.682-2.086-1.4-4.26-.1-.294-.212-.646-.32-.973a255.92 255.92 0 0 1-2.693 7.7 2.474 2.474 0 0 0 2.32 1.788Z" fill="#e2e2d3"/><path data-name="패스 65" d="M184.596 94.459a2.48 2.48 0 0 0-1.616-4.689c-.036.013-.431.155-1.082.429.225 1.663.416 3.38.584 5.13 1.148-.517 1.931-.801 2.114-.87Z" fill="#e2e2d3"/><path data-name="패스 66" d="M249.47 45.404a16.751 16.751 0 0 0 7.5-1.75 2.479 2.479 0 0 0 0-4.446 11.958 11.958 0 0 1 0-21.442 2.481 2.481 0 0 0 0-4.449 16.919 16.919 0 1 0-7.5 32.087Zm0-28.875c.261 0 .522.008.78.026a16.958 16.958 0 0 0 0 23.864c-.258.016-.519.023-.78.023a11.957 11.957 0 1 1 0-23.913Z" fill="#e2e2d3"/><path data-name="패스 67" d="M18.825 33.644 7.261 45.211a2.48 2.48 0 0 0 3.509 3.506l7.33-7.33v-5.99a2.481 2.481 0 0 1 .725-1.753Z" fill="#e2e2d3"/><path data-name="패스 68" d="m23.061 41.387 7.332 7.33a2.48 2.48 0 0 0 3.506-3.506L22.336 33.644a2.47 2.47 0 0 1 .725 1.753Z" fill="#e2e2d3"/><path data-name="패스 69" d="M19.623 33.106a2.457 2.457 0 0 1 .955-.194 2.459 2.459 0 0 0-.955.194Z" fill="#e2e2d3"/><path data-name="패스 70" d="M20.581 32.916a2.457 2.457 0 0 1 .955.194 2.449 2.449 0 0 0-.955-.194Z" fill="#e2e2d3"/><path data-name="패스 71" d="M7.261 56.774a2.481 2.481 0 1 0 3.509 3.509l7.33-7.33v-7.017Z" fill="#e2e2d3"/><path data-name="패스 72" d="M30.394 60.283a2.48 2.48 0 0 0 3.506-3.509L23.062 45.936v7.017Z" fill="#e2e2d3"/><path data-name="패스 73" d="M7.261 68.342a2.481 2.481 0 0 0 3.509 3.509l7.33-7.332v-7.015Z" fill="#e2e2d3"/><path data-name="패스 74" d="M30.394 71.85a2.48 2.48 0 0 0 3.506-3.509L23.062 57.503v7.015Z" fill="#e2e2d3"/><path data-name="패스 75" d="M18.099 64.518v30.531a2.481 2.481 0 1 0 4.962 0V64.518l-2.481-2.479Z" fill="#e2e2d3"/><path data-name="패스 76" d="M19.624 33.11a2.444 2.444 0 0 0-.8.534 2.462 2.462 0 0 1 .8-.534Z" fill="#e2e2d3"/><path data-name="패스 77" d="M18.827 56.774a2.481 2.481 0 0 1 3.506 0l.728.728v-4.549l-2.481-2.481-2.481 2.481v4.549Z" fill="#e2e2d3"/><path data-name="패스 78" d="M22.336 33.645a2.444 2.444 0 0 0-.8-.534 2.435 2.435 0 0 1 .8.534Z" fill="#e2e2d3"/><path data-name="패스 79" d="m22.333 45.211.728.726v-4.549l-2.481-2.481-2.481 2.481v4.549l.728-.726a2.475 2.475 0 0 1 3.506 0Z" fill="#e2e2d3"/><path data-name="패스 80" d="M23.061 41.387v-5.99a2.47 2.47 0 0 0-.726-1.753 2.468 2.468 0 0 0-2.708-.534 2.464 2.464 0 0 0-.8.534 2.481 2.481 0 0 0-.725 1.753v5.99l2.481-2.481Z" fill="#e2e2d3"/><path data-name="패스 81" d="M23.061 52.954v-7.017l-.728-.726a2.475 2.475 0 0 0-3.506 0l-.728.726v7.017l2.481-2.481Z" fill="#e2e2d3"/><path data-name="패스 82" d="M20.58 56.049a2.477 2.477 0 0 0-1.753.726l-.728.728v7.015l2.481-2.479 2.481 2.479v-7.015l-.728-.728a2.477 2.477 0 0 0-1.753-.726Z" fill="#e2e2d3"/><path data-name="패스 83" d="m257.941 92.037-11.564 11.564a2.481 2.481 0 0 0 3.509 3.509l7.33-7.332v-5.987a2.481 2.481 0 0 1 .725-1.754Z" fill="#e2e2d3"/><path data-name="패스 84" d="M258.741 91.503a2.456 2.456 0 0 1 .955-.194 2.458 2.458 0 0 0-.955.194Z" fill="#e2e2d3"/><path data-name="패스 85" d="M260.651 91.503a2.458 2.458 0 0 0-.955-.194 2.456 2.456 0 0 1 .955.194Z" fill="#e2e2d3"/><path data-name="패스 86" d="m262.177 99.777 7.332 7.332a2.48 2.48 0 0 0 3.506-3.509l-11.564-11.564a2.47 2.47 0 0 1 .725 1.753Z" fill="#e2e2d3"/><path data-name="패스 87" d="M269.509 118.676a2.48 2.48 0 0 0 3.506-3.509l-10.838-10.838v7.015Z" fill="#e2e2d3"/><path data-name="패스 88" d="M246.377 115.167a2.481 2.481 0 0 0 3.509 3.509l7.33-7.332v-7.015Z" fill="#e2e2d3"/><path data-name="패스 89" d="M269.509 130.246a2.48 2.48 0 0 0 3.506-3.509l-10.838-10.841v7.015Z" fill="#e2e2d3"/><path data-name="패스 90" d="M246.377 126.735a2.481 2.481 0 0 0 3.509 3.509l7.33-7.332v-7.016Z" fill="#e2e2d3"/><path data-name="패스 91" d="M258.74 91.501a2.445 2.445 0 0 0-.8.534 2.454 2.454 0 0 1 .8-.534Z" fill="#e2e2d3"/><path data-name="패스 92" d="M261.451 92.037a2.446 2.446 0 0 0-.8-.534 2.427 2.427 0 0 1 .8.532Z" fill="#e2e2d3"/><path data-name="패스 93" d="M257.215 122.91v30.535a2.481 2.481 0 1 0 4.962 0V122.91l-2.481-2.481Z" fill="#e2e2d3"/><path data-name="패스 94" d="M257.215 111.344v4.552l.728-.728a2.479 2.479 0 0 1 3.506 0l.728.728v-4.552l-2.481-2.481Z" fill="#e2e2d3"/><path data-name="패스 95" d="M257.215 99.777v4.552l.728-.728a2.481 2.481 0 0 1 3.506 0l.728.728v-4.552l-2.481-2.481Z" fill="#e2e2d3"/><path data-name="패스 96" d="M258.741 91.503a2.456 2.456 0 0 0-.8.532 2.481 2.481 0 0 0-.726 1.753v5.994l2.481-2.481 2.481 2.481v-5.987a2.47 2.47 0 0 0-.725-1.753 2.43 2.43 0 0 0-.8-.532 2.453 2.453 0 0 0-1.911 0Z" fill="#e2e2d3"/><path data-name="패스 97" d="M259.696 102.876a2.477 2.477 0 0 0-1.753.726l-.728.728v7.015l2.481-2.481 2.481 2.481v-7.015l-.728-.728a2.477 2.477 0 0 0-1.753-.726Z" fill="#e2e2d3"/><path data-name="패스 98" d="m257.943 115.168-.728.728v7.015l2.481-2.481 2.481 2.481v-7.015l-.728-.728a2.479 2.479 0 0 0-3.506 0Z" fill="#e2e2d3"/><path data-name="패스 99" d="M3.682 128.461h3.8v-4.957h-3.8a2.481 2.481 0 0 0 0 4.962Z" fill="#e2e2d3"/><path data-name="패스 100" d="M16.24 128.461a2.481 2.481 0 0 0 0-4.962h-3.8v4.962Z" fill="#e2e2d3"/><path data-name="패스 101" d="M7.482 132.259a2.481 2.481 0 1 0 4.962 0v-3.8H7.482Z" fill="#e2e2d3"/><path data-name="패스 102" d="M12.442 119.699a2.481 2.481 0 0 0-4.962 0v3.8h4.962Z" fill="#e2e2d3"/><path data-name="사각형 7" fill="#e2e2d3" d="M7.479 123.499h4.961v4.961H7.479z"/><path data-name="패스 103" d="M217.723 101.107a2.481 2.481 0 1 0 0 4.962h2.019v-4.962Z" fill="#e2e2d3"/><path data-name="패스 104" d="M226.726 106.069a2.481 2.481 0 0 0 0-4.962h-2.022v4.962Z" fill="#e2e2d3"/><path data-name="패스 105" d="M222.223 110.569a2.48 2.48 0 0 0 2.481-2.481v-2.019h-4.962v2.019a2.48 2.48 0 0 0 2.481 2.481Z" fill="#e2e2d3"/><path data-name="패스 106" d="M224.704 99.085a2.481 2.481 0 1 0-4.962 0v2.022h4.962Z" fill="#e2e2d3"/><path data-name="사각형 8" fill="#e2e2d3" d="M219.743 101.106h4.961v4.961h-4.961z"/><path data-name="패스 107" d="M165.628 11.241a2.481 2.481 0 0 0 0-4.962h-3.8v4.962Z" fill="#e2e2d3"/><path data-name="패스 108" d="M153.067 11.241h3.8V6.279h-3.8a2.481 2.481 0 0 0 0 4.962Z" fill="#e2e2d3"/><path data-name="패스 109" d="M156.867 15.041a2.481 2.481 0 0 0 4.962 0v-3.8h-4.962Z" fill="#e2e2d3"/><path data-name="패스 110" d="M161.829 2.481a2.481 2.481 0 1 0-4.962 0v3.8h4.962Z" fill="#e2e2d3"/><path data-name="사각형 9" fill="#e2e2d3" d="M156.867 6.28h4.961v4.961h-4.961z"/><path data-name="패스 111" d="M203.624 30.971h1.232v-4.962h-1.232a2.481 2.481 0 1 0 0 4.962Z" fill="#e2e2d3"/><path data-name="패스 112" d="M211.049 30.971a2.481 2.481 0 1 0 0-4.962h-1.232v4.962Z" fill="#e2e2d3"/><path data-name="패스 113" d="M204.855 32.199a2.481 2.481 0 0 0 4.962 0v-1.232h-4.962Z" fill="#e2e2d3"/><path data-name="패스 114" d="M209.817 24.773a2.481 2.481 0 0 0-4.962 0v1.232h4.962Z" fill="#e2e2d3"/><path data-name="사각형 10" fill="#e2e2d3" d="M204.855 26.005h4.962v4.961h-4.962z"/><path data-name="패스 115" d="M25.713 149.521a2.48 2.48 0 1 0 0 4.96h1.232v-4.96Z" fill="#e2e2d3"/><path data-name="패스 116" d="M31.907 149.521v4.96h1.232a2.48 2.48 0 1 0 0-4.96Z" fill="#e2e2d3"/><path data-name="패스 117" d="M26.944 155.715a2.481 2.481 0 1 0 4.962 0v-1.234h-4.962Z" fill="#e2e2d3"/><path data-name="패스 118" d="M31.907 148.287a2.481 2.481 0 0 0-4.962 0v1.234h4.962Z" fill="#e2e2d3"/><path data-name="사각형 11" fill="#e2e2d3" d="M26.945 149.52h4.961v4.961h-4.961z"/><path data-name="패스 119" d="M206.629 68.689h9a6.762 6.762 0 0 0 6.514 8.548h23.066a6.754 6.754 0 1 0 0-13.508h-9a6.762 6.762 0 0 0-6.514-8.548h-23.066a6.754 6.754 0 0 0 0 13.508Zm0-8.546h23.069a1.793 1.793 0 0 1 0 3.586 2.48 2.48 0 1 0 0 4.96h15.512a1.793 1.793 0 1 1 0 3.586h-23.067a1.793 1.793 0 0 1 0-3.586 2.48 2.48 0 1 0 0-4.96h-15.514a1.793 1.793 0 0 1 0-3.586Z" fill="#e2e2d3"/><path data-name="패스 120" d="M87.502 73.27a3.145 3.145 0 1 0 3.145 3.145 3.15 3.15 0 0 0-3.145-3.145Z" fill="#e2e2d3"/><path data-name="패스 121" d="M87.501 71.32a5.094 5.094 0 1 0 5.094 5.094 5.1 5.1 0 0 0-5.094-5.094Zm0 8.239a3.145 3.145 0 1 1 3.145-3.145 3.149 3.149 0 0 1-3.145 3.145Z" fill="#e2e2d3"/><path data-name="패스 122" d="M138.947 79.559a3.145 3.145 0 1 0-3.145-3.145 3.147 3.147 0 0 0 3.145 3.145Z" fill="#e2e2d3"/><path data-name="패스 123" d="M139.127 81.508a5.094 5.094 0 1 0-5.094-5.094 5.092 5.092 0 0 0 5.094 5.094Zm-.181-8.239a3.145 3.145 0 1 1-3.145 3.145 3.149 3.149 0 0 1 3.145-3.145Z" fill="#e2e2d3"/><path data-name="패스 124" d="M125.392 90.137a2.481 2.481 0 0 0-1.541-2.3 27.089 27.089 0 0 1-7.65-4.807c.018.139.034.248.041.294a2.486 2.486 0 0 1-2.037 2.853 2.531 2.531 0 0 1-.416.034c-.049 0-.093-.021-.139-.023a2.587 2.587 0 0 1-.346.005h-.054c-.046 0-.09.023-.137.023a2.456 2.456 0 0 1-.387-.034c-.065-.005-.124.008-.186 0a2.479 2.479 0 0 1-2.06-2.442 2.636 2.636 0 0 1 .036-.423c.01-.057.031-.222.057-.434a27.068 27.068 0 0 1-7.818 4.957 2.48 2.48 0 0 0 0 4.59 26.954 26.954 0 0 1 6.692 3.968c.7-.62 1.386-1.278 2.045-1.98a2.477 2.477 0 0 1 3.622 0 30.43 30.43 0 0 0 2.045 1.98 26.955 26.955 0 0 1 6.692-3.968 2.477 2.477 0 0 0 1.541-2.293Zm-12.088 3.008a32.373 32.373 0 0 0-4.139-3.008 32.383 32.383 0 0 0 4.139-3.008 31.932 31.932 0 0 0 4.136 3.008 32.164 32.164 0 0 0-4.136 3.008Z" fill="#e2e2d3"/><path data-name="패스 125" d="M113.112 86.221c.046 0 .09-.021.137-.023a2.379 2.379 0 0 1-.524-.01 2.45 2.45 0 0 0 .387.033Z" fill="#e2e2d3"/><path data-name="패스 126" d="M116.13 83.742a2.479 2.479 0 0 1-2.06 2.442 2.246 2.246 0 0 1-.416.008c.046 0 .09.023.139.023a2.532 2.532 0 0 0 .416-.034 2.486 2.486 0 0 0 2.037-2.853 9.43 9.43 0 0 1-.041-.294l-.163-.145c.026.24.049.413.052.429a2.368 2.368 0 0 1 .036.424Z" fill="#e2e2d3"/><path data-name="패스 127" d="M113.304 93.633a2.487 2.487 0 0 0-1.812.787 30.43 30.43 0 0 1-2.045 1.98 28.273 28.273 0 0 1 2.117 1.877 2.478 2.478 0 0 0 3.478 0 28.282 28.282 0 0 1 2.117-1.877c-.7-.62-1.386-1.278-2.045-1.98a2.481 2.481 0 0 0-1.81-.787Z" fill="#e2e2d3"/><path data-name="패스 128" d="M113.303 86.197a2.587 2.587 0 0 0 .346-.005c-.065-.005-.124-.026-.186-.034-.072.01-.139.034-.214.039.018-.003.035.002.054 0Z" fill="#e2e2d3"/><path data-name="패스 129" d="M110.479 83.742a2.479 2.479 0 0 0 2.06 2.443c.062.01.121 0 .186 0h-.036a2.481 2.481 0 0 1-2.024-2.866c.01-.072.041-.279.072-.584-.054.052-.111.1-.165.15-.026.212-.046.377-.057.434a2.633 2.633 0 0 0-.036.423Z" fill="#e2e2d3"/><path data-name="패스 130" d="M112.689 86.182h.036a2.382 2.382 0 0 0 .524.01c.075-.005.142-.028.214-.039a2.451 2.451 0 0 1-2.114-2 17.837 17.837 0 0 1-.16-1.828c-.147.139-.3.269-.452.4-.031.3-.062.511-.072.584a2.481 2.481 0 0 0 2.024 2.873Z" fill="#e2e2d3"/><path data-name="패스 131" d="M113.464 86.158c.062.008.121.028.186.034a2.246 2.246 0 0 0 .416-.008 2.479 2.479 0 0 0 2.06-2.443 2.366 2.366 0 0 0-.036-.423c0-.015-.026-.189-.052-.429l-.336-.3c-.054.963-.142 1.534-.147 1.572a2.457 2.457 0 0 1-2.091 1.997Z" fill="#e2e2d3"/><path data-name="패스 132" d="M111.563 81.997c-.121.119-.253.219-.374.336a17.849 17.849 0 0 0 .16 1.828 2.106 2.106 0 0 0 4.206 0c.005-.039.093-.609.147-1.572-.217-.2-.447-.382-.661-.591a2.478 2.478 0 0 0-3.478-.001Z" fill="#e2e2d3"/><path data-name="패스 133" d="M126.871 175.838h-26.3a2.481 2.481 0 0 0 0 4.962h26.3a2.481 2.481 0 0 0 0-4.962Z" fill="#e2e2d3"/><path data-name="패스 134" d="M89.982 128.575v-7.557a2.48 2.48 0 1 0-4.96 0v7.557a2.48 2.48 0 1 0 4.96 0Z" fill="#e2e2d3"/><path data-name="패스 135" d="M139.127 118.537a2.482 2.482 0 0 0-2.481 2.481v7.557a2.481 2.481 0 1 0 4.962 0v-7.557a2.484 2.484 0 0 0-2.481-2.481Z" fill="#e2e2d3"/><path data-name="패스 136" d="M121.919 131.056a2.48 2.48 0 0 0 2.479-2.481v-7.557a2.48 2.48 0 1 0-4.96 0v7.557a2.48 2.48 0 0 0 2.481 2.481Z" fill="#e2e2d3"/><path data-name="패스 137" d="M104.709 131.056a2.48 2.48 0 0 0 2.481-2.481v-7.557a2.48 2.48 0 1 0-4.96 0v7.557a2.48 2.48 0 0 0 2.479 2.481Z" fill="#e2e2d3"/><path data-name="패스 138" d="M119.438 163.022a2.48 2.48 0 1 0 4.96 0v-7.559a2.48 2.48 0 0 0-4.96 0Z" fill="#e2e2d3"/><path data-name="패스 139" d="M102.233 163.022a2.48 2.48 0 1 0 4.96 0v-7.559a2.48 2.48 0 0 0-4.96 0Z" fill="#e2e2d3"/><path data-name="패스 140" d="M130.512 136.269a2.48 2.48 0 0 0-2.481 2.481v7.56a2.481 2.481 0 1 0 4.962 0v-7.56a2.482 2.482 0 0 0-2.481-2.481Z" fill="#e2e2d3"/><path data-name="패스 141" d="M115.783 146.31v-7.56a2.48 2.48 0 1 0-4.96 0v7.56a2.48 2.48 0 1 0 4.96 0Z" fill="#e2e2d3"/><path data-name="패스 142" d="M98.577 138.75a2.481 2.481 0 0 0-4.962 0v7.56a2.481 2.481 0 1 0 4.962 0Z" fill="#e2e2d3"/></svg>